<?xml version="1.0" encoding="utf-8"?>
<!-- Generator: Adobe Illustrator 23.0.1, SVG Export Plug-In . SVG Version: 6.00 Build 0)  -->
<svg version="1.1" xmlns="http://www.w3.org/2000/svg" xmlns:xlink="http://www.w3.org/1999/xlink" x="0px" y="0px"
	 viewBox="0 0 1024 1024" style="enable-background:new 0 0 1024 1024;" xml:space="preserve">
<g id="Layer_2">
</g>
<g id="Layer_8">
	<g>
		<path d="M392,265.3c0,15.1,0,30.1,0,45.2c0,21.6,0,43.2,0,64.8l10-10c0-14.8,0-29.5,0-44.3c0-18.2,0.8-36.7,0-54.9
			c0-0.3,0-0.5,0-0.8C402,258.8,392,258.8,392,265.3z"/>
		<path d="M449,234.7c0,15.7,0,31.5,0,47.2c0,17.4,0,34.9,0,52.3l5.2-5.1l4.8,4.3c0-13.5,0-26.9,0-40.4c0-19.1,0.8-38.4,0-57.6
			c0-0.3,0-0.5,0-0.8C459,228.3,449,228.3,449,234.7z"/>
		<path d="M453.4,506.1C453.4,506.1,453.4,506.1,453.4,506.1c0.9-0.8,1.7-1.6,2.6-2.5c0,0,0.1-0.1,0.1-0.1c0.9-0.9,1.8-1.7,2.8-2.6
			c0,0,0,0,0,0c0-11,0-21.9,0-32.9l-10-10.4c0,17.6,0,35.2,0,52.8c0.6-0.6,1.3-1.2,2-1.9c0,0,0,0,0,0
			C451.8,507.6,452.6,506.9,453.4,506.1z"/>
		<path d="M512.2,215.1c-0.1,0-0.1,0-0.2,0c-2.6-0.1-5.2,1.5-5.2,4.8c0,14.5,0,28.9,0,43.4c0,34.8,0,69.5,0,104.3
			c0,24.8,0,49.5,0,74.3l6,6.1l4.4-2.8c0-20.7,0-41.5,0-62.2c0,0,0-0.1,0-0.1l-9.8,5.4l8.6-22.9c0,0,0-0.1,0.1-0.2c0,0,0-0.1,0-0.1
			c0,0,0-0.1,0.1-0.2c0-0.1,0.1-0.3,0.2-0.4c0,0,0,0,0-0.1c0.1-0.2,0.2-0.5,0.3-0.8c0,0,0,0,0-0.1c0.1-0.3,0.3-0.6,0.4-1
			c0,0,0,0,0,0c0-29.6,0-59.1,0-88.7c0-1,0-1.9,0-2.9c0-3.5,0.1-6.9,0.1-10.4c0.2-13.3,0.5-26.6-0.1-39.9c0-0.3,0-0.5,0-0.8
			C517.2,216.7,514.7,215.1,512.2,215.1z"/>
		<polygon points="461.2,207.8 511.3,168.3 561.9,207.1 539.9,147.3 592.4,111.2 528.7,113.6 510.6,52.5 493.2,113.9 429.5,112.2 
			482.5,147.7 		"/>
		<path d="M524.5,368.5c0,0,9-5,13-7s14-5,25-2s16,8,28,21s9,39,5,52s-17,22-35,22s-19-4-27-4s-11,2-11,2l-11,7l-52-53l32-32l-37-33
			l-31,30l-8-7l-23,23l7,7l-27,29l35,33l27-27l54,56c0,0-29,27-35,33s-16,11-16,25s10,17,17,18s10-2,19-12s37-44,37-44l46,45
			c5,5,16,7,22,1s9-14,2-22l-52-53l7-5c4,2,20,12,44,12s40-9,56-37s1-63-12-81s-39-29-63-29S524.5,368.5,524.5,368.5z"/>
		<path d="M572.7,443.5c0.8-0.3,1.5-0.6,2.3-0.9c0-10.3,0-20.7,0-31c0-11.4,0-22.9,0-34.3c-0.5-0.5-1-0.9-1.4-1.3c0,0,0,0,0,0
			c-0.4-0.4-0.9-0.8-1.3-1.2c0,0,0,0,0,0c-0.4-0.4-0.8-0.7-1.2-1c0,0,0,0,0,0c-0.4-0.3-0.8-0.6-1.2-0.9c0,0,0,0-0.1,0
			c-0.4-0.3-0.8-0.5-1.1-0.8c0,0,0,0-0.1,0c-0.4-0.2-0.7-0.5-1.1-0.7c0,0,0,0-0.1,0c-0.4-0.2-0.8-0.4-1.1-0.6c0,0,0,0,0,0
			c-0.4-0.2-0.8-0.4-1.2-0.6c0,0,0,0,0,0c0,8.5,0,16.9,0,25.4c0,16.7,0,33.3,0,50c0,0,0,0,0,0C567.7,445,570.3,444.4,572.7,443.5
			C572.7,443.5,572.7,443.5,572.7,443.5z"/>
		<path d="M622,265.3c0,15.1,0,30.1,0,45.2c0,13.3,0,26.7,0,40c0.8,0.7,1.6,1.5,2.4,2.3c0,0,0,0,0.1,0.1c0.8,0.8,1.5,1.6,2.2,2.4
			c0,0,0.1,0.1,0.1,0.1c0.6,0.7,1.2,1.4,1.8,2.1c0.1,0.2,0.3,0.4,0.4,0.5c0.6,0.8,1.2,1.5,1.8,2.3c0.4,0.6,0.8,1.1,1.2,1.7
			c0-13.7,0-27.3,0-41c0-18.2,0.8-36.7,0-54.9c0-0.3,0-0.5,0-0.8C632,258.8,622,258.8,622,265.3z"/>
		<path d="M567.8,491.8c-0.6-0.1-1.1-0.1-1.7-0.2c-0.4-0.1-0.8-0.1-1.2-0.2c0,0,0,0,0,0c0,3.2,0,6.3,0,9.5l10,10.2
			c0-6.2,0-12.4,0-18.7c-1.5-0.1-2.9-0.2-4.4-0.3c-0.4,0-0.8-0.1-1.2-0.1C568.9,491.9,568.4,491.8,567.8,491.8z"/>
		<path d="M565,234.7c0,15.7,0,31.5,0,47.2c0,15.2,0,30.5,0,45.7c0.8,0,1.7,0.1,2.5,0.2c0,0,0,0,0,0c0.8,0.1,1.6,0.1,2.5,0.2
			c0,0,0,0,0,0c0.8,0.1,1.7,0.2,2.5,0.3c0,0,0,0,0,0c0.8,0.1,1.7,0.2,2.5,0.4c0,0,0,0,0,0c0-11.9,0-23.7,0-35.6
			c0-19.1,0.8-38.4,0-57.6c0-0.3,0-0.5,0-0.8C575,228.3,565,228.3,565,234.7z"/>
		<path d="M354.6,841.8c-1.4-0.3-3.1-1.1-4.3-1.6c-3.3-0.7-4.6,0-5.8,3.7c-0.8,2.6-2,5.4-2.4,8.1c-0.6,4.2,3.9,5.6,6.4,6.5
			c2.1,0.8,5.3,2.8,7.5-2.4c0.5-0.5,1.7-3.8,1.9-4.4c1.1-2.8,2.2-5.2,1.9-6.5C358.9,843.7,356.9,842.6,354.6,841.8z"/>
		<path d="M915.1,479.2c-5.3-26.5-13.1-52.5-23.5-77.4c-20.7-49.9-51.3-95.6-89.6-133.8c-38.2-38.2-84-68.8-133.9-89.4
			c-25-10.3-50.9-18.2-77.4-23.4c-9.3-1.8-18.6-3.3-28-4.5l22.9,19.4c0.7,0.1,1.4,0.3,2.1,0.4c25.5,5.1,50.5,12.6,74.5,22.6
			c48,19.9,92,49.4,128.7,86.1c36.7,36.8,66.2,80.8,86,128.8c9.9,24,17.5,49,22.5,74.4c5,25.5,7.6,51.4,7.6,77.4
			c-0.2,6.5-0.2,13-0.1,19.5c-0.2,6.5-0.5,13-0.9,19.5c-0.1,1.6-0.3,3.2-0.5,4.9l-0.6,4.8l-1.2,9.7c-0.1,0.8-0.2,1.6-0.3,2.4
			l-0.4,2.4l-0.9,4.8l-1.7,9.6c-3.4,17.2-8,34.1-13.6,50.7c0-19.5,0-39,0-58.5c0-47.2,0-94.4,0-141.6c0-10.9,0-21.7,0-32.6
			c0-6.4-10-6.4-10,0c0,29.9,0,59.8,0,89.6c0,47.2,0,94.4,0,141.6c0,9.2,0,18.4,0,27.6c-8.8,20.8-19.4,40.9-31.6,59.9
			c0-24,0-48,0-72c0-48.1,0-96.2,0-144.3c0-11.1,0-22.3,0-33.4c0-6.4-10-6.4-10,0c0,30.4,0,60.8,0,91.3c0,48.1,0,96.2,0,144.3
			c0,9.7,0,19.4,0,29.1c-12.9,18.3-27.4,35.5-43.2,51.4c0-9.3,0-18.6,0-28c0-35.1,0-70.2,0-105.3c0-42.8,0-85.5,0-128.3
			c0-36.8,0-73.6,0-110.4c0-17.8,0.7-35.9,0-53.7c0-0.3,0-0.5,0-0.8c0-6.4-10-6.4-10,0c0,14.8,0,29.5,0,44.3c0,35.1,0,70.2,0,105.3
			c0,42.8,0,85.5,0,128.3c0,36.8,0,73.6,0,110.4c0,11.3-0.3,22.7-0.3,34.1c-8.4-27.1-21.9-52.2-39.7-74.6c0-2.9,0-5.7,0-8.6
			c0-34.4,0-68.7,0-103.1c0-41.5,0-83.1,0-124.6c0-35.9,0-71.9,0-107.8c0-17.5,0.7-35.1,0-52.6c0-0.3,0-0.5,0-0.8c0-6.4-10-6.4-10,0
			c0,14.4,0,28.8,0,43.2c0,34.4,0,68.7,0,103.1c0,41.5,0,83.1,0,124.6c0,35.9,0,71.9,0,107.8c0,2.3,0,4.6,0,6.9
			c-12.7-14.1-27.1-26.9-43-38.2c0-3.3,0-6.6,0-9.8c0-34.8,0-69.5,0-104.3c0-42.1,0-84.1,0-126.2c0-36.4,0-72.8,0-109.2
			c0-17.7,0.7-35.5,0-53.2c0-0.3,0-0.5,0-0.8c0-6.4-10-6.4-10,0c0,14.5,0,28.9,0,43.4c0,34.8,0,69.5,0,104.3c0,42.1,0,84.1,0,126.2
			c0,36.4,0,72.8,0,109.2c0,4.5,0,9-0.1,13.5c-14.6-9.4-30.3-17.7-46.9-24.5c0-2.1,0-4.2,0-6.3c0-36.2,0-72.3,0-108.5
			c0-32.6,0-65.1,0-97.7c0,0,0,0,0,0c-0.7,0.9-1.5,1.8-2.2,2.6c-0.1,0.2-0.3,0.3-0.4,0.5c-0.7,0.8-1.4,1.6-2.2,2.4c0,0,0,0-0.1,0.1
			c-0.8,0.9-1.7,1.7-2.5,2.5c0,0,0,0,0,0c-0.8,0.8-1.7,1.6-2.6,2.3c0,24,0,48,0,72c0,37.8,0,75.6,0,113.4c0,4.3,0,8.6-0.1,12.8
			c-15-5.5-30.7-9.9-46.9-13c0-0.4,0-0.9,0-1.3c0-32.9,0-65.7,0-98.6c0,0,0,0,0,0c-0.4,0.1-0.8,0.2-1.2,0.3c0,0,0,0,0,0
			c-0.4,0.1-0.8,0.2-1.2,0.2c0,0,0,0,0,0c-0.4,0.1-0.8,0.1-1.2,0.1c0,0,0,0-0.1,0c-0.4,0-0.8,0.1-1.2,0.1c0,0-0.1,0-0.1,0
			c-0.4,0-0.8,0-1.2,0c0,0-0.1,0-0.1,0c-0.4,0-0.8,0-1.2,0c0,0-0.1,0-0.1,0c-0.4,0-0.8,0-1.2-0.1c0,0,0,0,0,0
			c-0.4,0-0.8-0.1-1.2-0.1c0,29,0,57.9,0,86.9c0,3.6,0,7.1-0.1,10.7c-15.5-2.5-31.4-3.8-47.7-3.9c0-0.3,0.1-0.5,0.1-0.8
			c0-14.5,0-28.9,0-43.4c0-29.6,0-59.2,0-88.7l-6-5.9c-0.3,0.3-0.6,0.7-0.9,1.1c-0.1,0.2-0.3,0.4-0.5,0.6c-0.2,0.3-0.4,0.5-0.6,0.8
			c-0.1,0.1-0.1,0.2-0.2,0.3c-0.3,0.4-0.7,0.8-1,1.2c0,0,0,0,0,0c-0.4,0.5-0.8,0.9-1.2,1.4c0,26.3,0,52.6,0,78.8
			c0,17.7-0.7,35.5,0,53.1c0,0.3,0,0.5,0,0.8c0,0.3,0,0.6,0.1,0.9c0,0,0,0,0,0c-16.3,0.4-32.3,2.1-47.9,4.9c0-0.2,0-0.4,0-0.6
			c0-30.5,0-61,0-91.5c-0.3,0-0.5,0-0.8,0.1c-0.4,0-0.9,0.1-1.4,0.1c-1.2,0-2.4-0.1-3.6-0.3c-0.7-0.1-1.5-0.2-2.2-0.4
			c0,0-0.1,0-0.1,0c-0.7-0.1-1.3-0.3-2-0.4c0,27.1,0,54.2,0,81.3c0,4.6,0,9.2-0.1,13.8c-16.2,3.5-31.9,8.3-46.9,14.2
			c0-1.6,0-3.2,0-4.9c0-36.2,0-72.3,0-108.5c0-33.9,0-67.9,0-101.8l-10-9.4c0,32,0,63.9,0,95.9c0,37.8,0,75.6,0,113.4
			c0,6.5-0.1,13.1-0.2,19.6c-16.6,7.3-32.3,16-46.8,26c0-2.5,0-4.9,0-7.4c0-34.8,0-69.5,0-104.3c0-42.1,0-84.1,0-126.2
			c0-36.4,0-72.8,0-109.2c0-17.7,0.7-35.5,0-53.2c0-0.3,0-0.5,0-0.8c0-6.4-10-6.4-10,0c0,14.5,0,28.9,0,43.4c0,34.8,0,69.5,0,104.3
			c0,42.1,0,84.1,0,126.2c0,36.4,0,72.8,0,109.2c0,8.4-0.2,16.9-0.3,25.3c-15.9,12.1-30.3,25.8-42.7,40.8c0-1.4,0-2.9,0-4.3
			c0-34.4,0-68.7,0-103.1c0-41.5,0-83.1,0-124.6c0-35.9,0-71.9,0-107.8c0-17.5,0.7-35.1,0-52.6c0-0.3,0-0.5,0-0.8c0-6.4-10-6.4-10,0
			c0,14.4,0,28.8,0,43.2c0,34.4,0,68.7,0,103.1c0,41.5,0,83.1,0,124.6c0,35.9,0,71.9,0,107.8c0,9.2-0.2,18.5-0.3,27.8
			c-18.2,25.3-31.2,53.7-37.7,84.1c-0.7-0.6-1.3-1.2-2-1.8c0-13.5,0-27,0-40.6c0-35.1,0-70.2,0-105.3c0-42.8,0-85.5,0-128.3
			c0-36.8,0-73.6,0-110.4c0-17.8,0.7-35.9,0-53.7c0-0.3,0-0.5,0-0.8c0-6.4-10-6.4-10,0c0,14.8,0,29.5,0,44.3c0,35.1,0,70.2,0,105.3
			c0,42.8,0,85.5,0,128.3c0,36.8,0,73.6,0,110.4c0,13.6-0.4,27.3-0.3,41c-0.8-0.8-1.7-1.6-2.5-2.4c-14.7-14.7-28.2-30.6-40.4-47.4
			c0,0,0,0,0,0c0-30.4,0-60.8,0-91.3c0-48.1,0-96.2,0-144.3c0-11.1,0-22.3,0-33.4c0-6.4-10-6.4-10,0c0,30.4,0,60.8,0,91.3
			c0,48.1,0,96.2,0,144.3c0,6.3,0,12.7,0,19c-13.1-19.8-24.4-40.8-33.8-62.6c0-28.9,0-57.8,0-86.7c0-47.2,0-94.4,0-141.6
			c0-10.9,0-21.7,0-32.6c0-6.4-10-6.4-10,0c0,29.9,0,59.8,0,89.6c0,47.2,0,94.4,0,141.6c0,1.3,0,2.7,0,4
			c-6.1-17.4-10.9-35.2-14.5-53.3c-5-25.5-7.6-51.5-7.6-77.5c0-26,2.6-52,7.6-77.5c5.1-25.5,12.6-50.5,22.6-74.5
			c19.9-48,49.4-92,86.2-128.8c36.8-36.8,80.8-66.2,128.9-86.1c23-9.5,47-16.9,71.4-21.9l25.7-20c-8.6,1.1-17.1,2.6-25.6,4.2
			c-26.5,5.3-52.4,13.1-77.4,23.5c-49.9,20.7-95.6,51.3-133.7,89.5c-38.2,38.2-68.7,83.9-89.4,133.8c-10.3,24.9-18.2,50.9-23.4,77.4
			c-5.2,26.5-7.8,53.5-7.9,80.4c0,27,2.7,54,7.9,80.4c5.3,26.5,13.1,52.4,23.5,77.3c20.7,49.9,51.3,95.5,89.4,133.7
			c38.2,38.1,83.9,68.7,133.7,89.3c24.9,10.3,50.9,18.2,77.3,23.4c26.5,5.2,53.4,7.8,80.4,7.9c27,0,53.9-2.7,80.4-7.9
			c26.5-5.2,52.4-13.1,77.3-23.5c49.8-20.6,95.5-51.3,133.6-89.4c38.1-38.1,68.7-83.8,89.3-133.6c10.3-24.9,18.2-50.8,23.4-77.3
			l1.8-10l0.9-5l0.4-2.5c0.1-0.8,0.2-1.7,0.3-2.5l1.3-10l0.6-5c0.2-1.7,0.5-3.3,0.6-5c0.6-6.7,1.4-13.4,2.1-20.1
			c0.4-6.7,0.7-13.5,0.9-20.2C923,532.7,920.3,505.7,915.1,479.2z M328.1,888.2c-0.1-0.1-0.2-0.1-0.3-0.2c0.1-0.1,0.1-0.3,0.2-0.3
			c0.1,0,0.2,0.1,0.3,0.1C328.2,888,328.1,888.1,328.1,888.2z M370.2,864.4c-3.6,10.8-4.3,12.3-15.7,12.6c-2.6-0.9-3.3-0.7-8.2-3.5
			c-0.4-0.2-1.9-0.4-3.8-1c-1-0.2-2.2-0.5-4.6-1.1c-2.7-0.7-4.9,0.7-5.8,4.3c-1.5,5.8-4.3,11.3-6.9,16.8c-0.5,1.2-2.4,2.7-3.5,2.5
			c-3.8-0.5-8.4-0.7-10.8-3c-1.6-1.6-0.5-6.6,0.3-9.9c0.6-2.7,2.6-5.1,3.8-7.7c1-2.2,1.8-4.5,2.7-6.7c0.2-0.6,0.8-1,1-1.5
			c2.3-7.1,4-14.5,7.1-21.1c2.9-6.2,5.3-12.4,6.6-19.1c0.5-2.5,3.3-5.5,5.7-6.3c2.5-0.8,5.9,0.5,8.8,1.3c5.2,1.5,10.3,3.2,15.4,5
			c2.2,0.8,1.8,0.6,3.9,1.5c0.3,0.1,3.1,1.7,3.4,1.7c8.7,1.8,8.5,6.8,8.8,11.4c0.1,2-0.5,3.7-1.2,6.4c-0.4,1.6-1.5,3.2-1.9,4.8
			c-0.9,3.4-1.1,2.5-3,7.6C371,861.4,370.6,863.1,370.2,864.4z M393.1,906.1c-1.6,10.1-2.3,11.7-7.1,11.6c-4-0.1-12.2-3.9-11.5-6.7
			c2.6-11,2.5-13.7,11.1-11.9C393.2,900.4,393.3,899.6,393.1,906.1z M473.2,865c-0.4,3.7-1.2,6.8-1.7,10.5
			c-2.3,14.2-4.4,28.5-6.7,42.7c-0.7,4.2-1.1,8.7-3.1,12.3c-0.9,1.7-5.4,1.9-8.2,1.8c-2.7-0.1-5.4-1.4-8-2.2
			c-0.7-0.2-1.6-0.7-1.9-1.3c-1.5-2.8-2.1-5.7-2.7-8.4c-1.9-9.3-4.7-17.1-6-25.5c-0.1-0.4-0.5-0.8-0.7-1.2c-0.5-0.1-1-0.1-1.6-0.2
			c-1.8,9.1-3.8,18.2-5.3,27.4c-1.8,7.1-2.1,9.3-9.7,6.9c-2.1-0.9-5.7-1.7-6.4-3.8c-0.9-2.6,0.7-7.3,1.2-10.2
			c1.4-8.3,3.5-16.5,4.6-24.9c1.5-11,4-23.8,5-34.9c1.1-9,1.9-8.2,12.4-5.8c0.9,0.4,2,0.6,2.9,0.7c6.8,1.2,7,1.6,7.7,8.5
			c0.9,8.9,2.1,17.8,3.3,26.8c0.1,0.7,2.7,5.2,3.4,5.5c0.5,0.2,1.2-3.2,1.4-3.8c0.8-3.3,1.3-4.3,1.5-5.6c1.6-7.9,2.3-13.2,3.6-21.7
			c1.2-5.6,1.4-6.5,7.6-5.1c0.5,0.2,0.9,0.3,1.4,0.4c2.2,0.4,6.4,0.2,6.4,1.1C473.5,859.4,473.6,861.7,473.2,865z M499.2,933.8
			c-0.3,1.1-0.8,1.5-7.1,1.5c-4.9-0.6-6.5-0.7-6.9-2.1c-1.1-4.2-1.7-9-0.6-13.1c1.2-4.4,2.8-3.6,11.1-2.2c1.9,0.3,4.1,1.3,4.4,3.7
			C500.4,925.6,500.3,929.9,499.2,933.8z M582.1,925.5c0,6.2-1,6.4-7.2,7.3c-8,1.2-8.1,0.2-9.2-1.6c-2.6-4.3-3.4-6-7-13.7
			c-1.3-2.6-2.1-5.7-3.4-8.6c-0.6-1.2-1.4-2.9-2.1-4.1c-0.5-0.2-0.8-0.5-1.5,0.1c-1.1,3.7-2.4,7.4-3.4,11.2
			c-1.3,4.9-2.2,9.9-3.4,14.9c-1.2,5.2-0.2,5.8-10,5.8c-6.4-0.3-6-0.5-7.1-6.5c-0.3-1.4-0.7-3.8-0.9-5.3
			c-1.8-11.5-1.9-12.9-3.4-20.6c-0.7-5.9-1.2-7.8-1.6-11.8c-0.6-5.3-1.5-10.5-2.2-15.8c-0.7-5.2-1.7-10.6-1.8-16.3
			c0-4.3,0.5-3.9,9.4-4.7c5.6-0.5,6.1,4.2,6.7,7.5c1.2,7.9,1.5,15.9,2.4,23.9c0.1,1.3,0.5,3.3,1.2,4.6c0.6-1.1,2-3,2.6-4.1
			c5.9-12.9,6.6-12.4,9.9-12.2c3.4,0.3,4.6-0.3,7.6,5.6c1.6,3.2,1.5,3.3,2.1,4.4c0.7,1.3,3.1,4.1,4.1,5.2c1.1-1.5,1.1-2.3,1.3-6.3
			c0.5-7.9,0.7-15.8,0.8-23.7c0.1-6.8,0.1-6.8,6.7-6.8c9.6,0,9.6,0,9.6,9.7C582.1,884.2,582.1,904.8,582.1,925.5z M618.2,924.5
			c-3.9,0.9-8.1,3.3-9.7,0.7c-2.1-3.3-4.2-9.6-4.5-15c0.1-0.3,0.7-1,1-1.1c5.9-2.5,7.1-2.9,13.7-3.3c1.6,2.5,2.8,4.7,4.1,7.3
			c0.6,2.6,0.6,1.9,1,4.2C625.4,922.7,624.3,922.6,618.2,924.5z M687.7,904.2c-0.9,1.7-3.3,3-5.4,3.7c-4.7,1.8-9.8,2.8-14.5,4.6
			c-10.5,3.2-13.8,5.2-21.6,0.5c-1.2-0.7-3.1-3.6-5.3-8c-1.6-3.9-1.6-3.1-3.1-7.8c-0.9-2.6-1.3-2.8-2-5.4c-1.8-7.6-3.6-12-6.5-22.4
			c-2.7-10.2-3.2-10.9-3.1-21.1c0.3-7.5,7-8.3,12.3-10.4c5.8-2.3,11.6-4.7,17.7-6.5c2.6-0.7,5.7,0,8.6,0.4c1,0.1,2.3,1.1,4.5,4.2
			c3.1,5.4,2.6,4.1,4.3,7.6c1,2.4,1.5,4,1.3,5.6c-0.8,3.9-0.3,2.7-8.6,5.3c-3.9,0.8-3.6,1.6-6.2-3.6c-0.8-1.6-2.6-2.9-8.2-1.1
			c-2.3,0.7-3.9,1.6-6.2,2.1c-3.7,0.8-4.4,5.4-2.8,7c2.7,7.8,4,11.1,6.1,16.6c2.5,6.5,4.3,13.3,6.9,19.8c1.3,3.2,5.3,1.9,8.7,1.2
			c1.6-0.3,1.5-0.6,1.9-0.6c5.8-1.4,6-3.2,5.5-7.7c-0.1-0.7,0.7-1.9,1.4-2.2c3.2-1.3,6.5-2.6,9.9-3.3c1.3-0.3,3.9,0.9,4.2,1.9
			C689.5,891.1,691.1,897.8,687.7,904.2z M722.6,892.4c-2,0.9-2.8,1-7.5,1.6c-1.5-0.8-1.4-1.4-3.3-5.1c-1-2.6-2-6.2-2.3-7.1
			c-1.5-4.4-0.8-4.3,5-6c3.2-1.1,6.1-2.7,7.8-1.4c0.6,0.8,1.7,2.8,2.4,4.4c1,2.3,2.1,4.5,2.5,7C727.7,890,728.9,889.6,722.6,892.4z"
			/>
	</g>
</g>
</svg>
