<?xml version="1.0" encoding="utf-8"?>
<!-- Generator: Adobe Illustrator 23.0.1, SVG Export Plug-In . SVG Version: 6.00 Build 0)  -->
<svg version="1.1" xmlns="http://www.w3.org/2000/svg" xmlns:xlink="http://www.w3.org/1999/xlink" x="0px" y="0px"
	 viewBox="0 0 1024 1024" style="enable-background:new 0 0 1024 1024;" xml:space="preserve">
<style type="text/css">
	.st0{display:none;}
	.st1{fill:#E5321E;}
	.st2{display:inline;}
	.st3{fill:#FFFFFF;}
</style>
<g id="Layer_1" class="st0">
	
		<image style="overflow:visible;" width="400" height="400" xlink:href="../../Downloads/TWQQUwoq_400x400.jpg"  transform="matrix(2.304 0 0 2.304 51.2 51.225)">
	</image>
</g>
<g id="Layer_9">
</g>
<g id="Layer_2">
	<path class="st1" d="M915.1,479.2c-5.3-26.5-13.1-52.5-23.5-77.4c-20.7-49.9-51.3-95.6-89.6-133.8c-38.2-38.2-84-68.8-133.9-89.4
		c-25-10.3-50.9-18.2-77.4-23.4c-9.3-1.8-18.6-3.3-28-4.5l22.9,19.4c0.7,0.1,1.4,0.3,2.1,0.4c25.5,5.1,50.5,12.6,74.5,22.6
		c48,19.9,92,49.4,128.7,86.1c36.7,36.8,66.2,80.8,86,128.8c9.9,24,17.5,49,22.5,74.4c5,25.5,7.6,51.4,7.6,77.4
		c-0.2,6.5-0.2,13-0.1,19.5c-0.2,6.5-0.5,13-0.9,19.5c-0.1,1.6-0.3,3.2-0.5,4.9l-0.6,4.8l-1.2,9.7c-0.1,0.8-0.2,1.6-0.3,2.4
		l-0.4,2.4l-0.9,4.8l-1.7,9.6c-5.1,25.5-12.7,50.6-22.6,74.6c-19.9,48.1-49.5,92.2-86.3,129c-36.8,36.8-80.9,66.3-129,86.2
		c-24,10-49.1,17.5-74.6,22.6c-25.5,5-51.5,7.6-77.6,7.6c-26,0-52-2.6-77.6-7.7c-25.5-5.1-50.5-12.6-74.6-22.6
		c-48.1-19.9-92.1-49.4-128.9-86.2c-36.8-36.8-66.3-80.9-86.1-128.9c-9.9-24-17.5-49-22.6-74.5c-5-25.5-7.6-51.5-7.6-77.5
		c0-26,2.6-52,7.6-77.5c5.1-25.5,12.6-50.5,22.6-74.5c19.9-48,49.4-92,86.2-128.8c36.8-36.8,80.8-66.2,128.9-86.1
		c23-9.5,47-16.9,71.4-21.9l25.7-20c-8.6,1.1-17.1,2.6-25.6,4.2c-26.5,5.3-52.4,13.1-77.4,23.5c-49.9,20.7-95.6,51.3-133.7,89.5
		c-38.2,38.2-68.7,83.9-89.4,133.8c-10.3,24.9-18.2,50.9-23.4,77.4c-5.2,26.5-7.8,53.5-7.9,80.4c0,27,2.7,54,7.9,80.4
		c5.3,26.5,13.1,52.4,23.5,77.3c20.7,49.9,51.3,95.5,89.4,133.7c38.2,38.1,83.9,68.7,133.7,89.3c24.9,10.3,50.9,18.2,77.3,23.4
		c26.5,5.2,53.4,7.8,80.4,7.9c27,0,53.9-2.7,80.4-7.9c26.5-5.2,52.4-13.1,77.3-23.5c49.8-20.6,95.5-51.3,133.6-89.4
		c38.1-38.1,68.7-83.8,89.3-133.6c10.3-24.9,18.2-50.8,23.4-77.3l1.8-10l0.9-5l0.4-2.5c0.1-0.8,0.2-1.7,0.3-2.5l1.3-10l0.6-5
		c0.2-1.7,0.5-3.3,0.6-5c0.6-6.7,1.4-13.4,2.1-20.1c0.4-6.7,0.7-13.5,0.9-20.2C923,532.7,920.3,505.7,915.1,479.2z"/>
	<polygon class="st1" points="592.4,111.2 539.9,147.3 561.9,207.1 511.3,168.3 461.2,207.8 482.5,147.7 429.5,112.2 493.2,113.9 
		510.6,52.5 528.7,113.6 	"/>
	<path class="st1" d="M243.1,859.3c71.7,65.8,167,105.9,271.6,105.9c105,0,200.7-40.4,272.5-106.7
		c-22.3-114.1-135.6-200.9-272-200.9C378.6,657.6,265.1,744.8,243.1,859.3z"/>
	<g id="Layer_3" class="st0">
		<g class="st2">
			<g>
				<path class="st3" d="M446.5,250.5c0,14.3,0,28.6,0,42.9c0,34.4,0,68.7,0,103.1c0,41.6,0,83.1,0,124.7c0,35.9,0,71.9,0,107.8
					c0,17.4-0.8,35,0,52.4c0,0.2,0,0.5,0,0.7c0,6.4,10,6.4,10,0c0-14.3,0-28.6,0-42.9c0-34.4,0-68.7,0-103.1c0-41.6,0-83.1,0-124.7
					c0-35.9,0-71.9,0-107.8c0-17.4,0.8-35,0-52.4c0-0.2,0-0.5,0-0.7C456.5,244.1,446.5,244.1,446.5,250.5L446.5,250.5z"/>
			</g>
		</g>
		<g class="st2">
			<g>
				<path class="st3" d="M332.5,294.5c0,14,0,28,0,42c0,33.8,0,67.6,0,101.4c0,40.7,0,81.5,0,122.2c0,35.2,0,70.4,0,105.7
					c0,17.1-0.8,34.4,0,51.4c0,0.2,0,0.5,0,0.7c0,6.4,10,6.4,10,0c0-14,0-28,0-42c0-33.8,0-67.6,0-101.4c0-40.7,0-81.5,0-122.2
					c0-35.2,0-70.4,0-105.7c0-17.1,0.8-34.4,0-51.4c0-0.2,0-0.5,0-0.7C342.5,288.1,332.5,288.1,332.5,294.5L332.5,294.5z"/>
			</g>
		</g>
		<g class="st2">
			<g>
				<path class="st3" d="M279.5,339.5c0,14.4,0,28.7,0,43.1c0,34.5,0,68.9,0,103.4c0,41.7,0,83.4,0,125.2c0,36.1,0,72.2,0,108.3
					c0,17.5-0.7,35.3,0,52.8c0,0.3,0,0.5,0,0.8c0,6.4,10,6.4,10,0c0-14.4,0-28.7,0-43.1c0-34.5,0-68.9,0-103.4
					c0-41.7,0-83.4,0-125.2c0-36.1,0-72.2,0-108.3c0-17.5,0.7-35.3,0-52.8c0-0.3,0-0.5,0-0.8C289.5,333.1,279.5,333.1,279.5,339.5
					L279.5,339.5z"/>
			</g>
		</g>
		<g class="st2">
			<g>
				<path class="st3" d="M229.5,405.5c0,15,0,30,0,45c0,36,0,72,0,108c0,43.4,0,86.7,0,130.1c0,37.6,0,75.3,0,112.9
					c0,18.2-0.7,36.5,0,54.7c0,0.3,0,0.5,0,0.8c0,6.4,10,6.4,10,0c0-15,0-30,0-45c0-36,0-72,0-108c0-43.4,0-86.7,0-130.1
					c0-37.6,0-75.3,0-112.9c0-18.2,0.7-36.5,0-54.7c0-0.3,0-0.5,0-0.8C239.5,399.1,229.5,399.1,229.5,405.5L229.5,405.5z"/>
			</g>
		</g>
		<g class="st2">
			<g>
				<path class="st3" d="M504.5,247.5c0,14.2,0,28.3,0,42.5c0,34,0,68,0,101.9c0,41.1,0,82.2,0,123.3c0,35.4,0,70.8,0,106.2
					c0,17.2-0.7,34.7,0,51.9c0,0.2,0,0.5,0,0.7c0,6.4,10,6.4,10,0c0-14.2,0-28.3,0-42.5c0-34,0-68,0-101.9c0-41.1,0-82.2,0-123.3
					c0-35.4,0-70.8,0-106.2c0-17.2,0.7-34.7,0-51.9c0-0.2,0-0.5,0-0.7C514.5,241.1,504.5,241.1,504.5,247.5L504.5,247.5z"/>
			</g>
		</g>
		<g class="st2">
			<g>
				<path class="st3" d="M177.5,561.5c0,26.9,0,53.8,0,80.7c0,42.9,0,85.8,0,128.7c0,9.9,0,19.8,0,29.6c0,6.4,10,6.4,10,0
					c0-26.9,0-53.8,0-80.7c0-42.9,0-85.8,0-128.7c0-9.9,0-19.8,0-29.6C187.5,555.1,177.5,555.1,177.5,561.5L177.5,561.5z"/>
			</g>
		</g>
		<g class="st2">
			<g>
				<path class="st3" d="M389.5,265.5c0,14.2,0,28.3,0,42.5c0,34,0,68,0,101.9c0,41.1,0,82.2,0,123.3c0,35.4,0,70.8,0,106.2
					c0,17.2-0.7,34.7,0,51.9c0,0.2,0,0.5,0,0.7c0,6.4,10,6.4,10,0c0-14.2,0-28.3,0-42.5c0-34,0-68,0-101.9c0-41.1,0-82.2,0-123.3
					c0-35.4,0-70.8,0-106.2c0-17.2,0.7-34.7,0-51.9c0-0.2,0-0.5,0-0.7C399.5,259.1,389.5,259.1,389.5,265.5L389.5,265.5z"/>
			</g>
		</g>
		<g class="st2">
			<g>
				<path class="st3" d="M562.5,250.5c0,14.3,0,28.6,0,42.9c0,34.4,0,68.7,0,103.1c0,41.6,0,83.1,0,124.7c0,35.9,0,71.9,0,107.8
					c0,17.4-0.8,35,0,52.4c0,0.2,0,0.5,0,0.7c0,6.4,10,6.4,10,0c0-14.3,0-28.6,0-42.9c0-34.4,0-68.7,0-103.1c0-41.6,0-83.1,0-124.7
					c0-35.9,0-71.9,0-107.8c0-17.4,0.8-35,0-52.4c0-0.2,0-0.5,0-0.7C572.5,244.1,562.5,244.1,562.5,250.5L562.5,250.5z"/>
			</g>
		</g>
		<g class="st2">
			<g>
				<path class="st3" d="M676.5,294.5c0,14,0,28,0,42c0,33.8,0,67.6,0,101.4c0,40.7,0,81.5,0,122.2c0,35.2,0,70.4,0,105.7
					c0,17.1-0.8,34.4,0,51.4c0,0.2,0,0.5,0,0.7c0,6.4,10,6.4,10,0c0-14,0-28,0-42c0-33.8,0-67.6,0-101.4c0-40.7,0-81.5,0-122.2
					c0-35.2,0-70.4,0-105.7c0-17.1,0.8-34.4,0-51.4c0-0.2,0-0.5,0-0.7C686.5,288.1,676.5,288.1,676.5,294.5L676.5,294.5z"/>
			</g>
		</g>
		<g class="st2">
			<g>
				<path class="st3" d="M729.5,339.5c0,14.4,0,28.7,0,43.1c0,34.5,0,68.9,0,103.4c0,41.7,0,83.4,0,125.2c0,36.1,0,72.2,0,108.3
					c0,17.5-0.7,35.3,0,52.8c0,0.3,0,0.5,0,0.8c0,6.4,10,6.4,10,0c0-14.4,0-28.7,0-43.1c0-34.5,0-68.9,0-103.4
					c0-41.7,0-83.4,0-125.2c0-36.1,0-72.2,0-108.3c0-17.5,0.7-35.3,0-52.8c0-0.3,0-0.5,0-0.8C739.5,333.1,729.5,333.1,729.5,339.5
					L729.5,339.5z"/>
			</g>
		</g>
		<g class="st2">
			<g>
				<path class="st3" d="M779.5,405.5c0,15,0,30,0,45c0,36,0,72,0,108c0,43.4,0,86.7,0,130.1c0,37.6,0,75.3,0,112.9
					c0,18.2-0.7,36.5,0,54.7c0,0.3,0,0.5,0,0.8c0,6.4,10,6.4,10,0c0-15,0-30,0-45c0-36,0-72,0-108c0-43.4,0-86.7,0-130.1
					c0-37.6,0-75.3,0-112.9c0-18.2,0.7-36.5,0-54.7c0-0.3,0-0.5,0-0.8C789.5,399.1,779.5,399.1,779.5,405.5L779.5,405.5z"/>
			</g>
		</g>
		<g class="st2">
			<g>
				<path class="st3" d="M831.5,561.5c0,26.9,0,53.8,0,80.7c0,42.9,0,85.8,0,128.7c0,9.9,0,19.8,0,29.6c0,6.4,10,6.4,10,0
					c0-26.9,0-53.8,0-80.7c0-42.9,0-85.8,0-128.7c0-9.9,0-19.8,0-29.6C841.5,555.1,831.5,555.1,831.5,561.5L831.5,561.5z"/>
			</g>
		</g>
		<g class="st2">
			<g>
				<path class="st3" d="M619.5,265.5c0,14.2,0,28.3,0,42.5c0,34,0,68,0,101.9c0,41.1,0,82.2,0,123.3c0,35.4,0,70.8,0,106.2
					c0,17.2-0.7,34.7,0,51.9c0,0.2,0,0.5,0,0.7c0,6.4,10,6.4,10,0c0-14.2,0-28.3,0-42.5c0-34,0-68,0-101.9c0-41.1,0-82.2,0-123.3
					c0-35.4,0-70.8,0-106.2c0-17.2,0.7-34.7,0-51.9c0-0.2,0-0.5,0-0.7C629.5,259.1,619.5,259.1,619.5,265.5L619.5,265.5z"/>
			</g>
		</g>
	</g>
	<g id="Layer_6" class="st0">
		<g class="st2">
			<g>
				<path class="st3" d="M447.9,252.2c0,14.3,0,28.6,0,42.9c0,34.4,0,68.7,0,103.1c0,41.6,0,83.1,0,124.7c0,35.9,0,71.9,0,107.8
					c0,17.4-0.8,35,0,52.4c0,0.2,0,0.5,0,0.7c0,6.4,10,6.4,10,0c0-14.3,0-28.6,0-42.9c0-34.4,0-68.7,0-103.1c0-41.6,0-83.1,0-124.7
					c0-35.9,0-71.9,0-107.8c0-17.4,0.8-35,0-52.4c0-0.2,0-0.5,0-0.7C457.9,245.7,447.9,245.7,447.9,252.2L447.9,252.2z"/>
			</g>
		</g>
		<g class="st2">
			<g>
				<path class="st3" d="M333.9,317.4c0,13.4,0,26.7,0,40.1c0,32.1,0,64.1,0,96.2c0,38.6,0,77.2,0,115.8c0,33.5,0,67.1,0,100.6
					c0,16.2-0.7,32.7,0,48.9c0,0.2,0,0.5,0,0.7c0,6.4,10,6.4,10,0c0-13.4,0-26.7,0-40.1c0-32.1,0-64.1,0-96.2c0-38.6,0-77.2,0-115.8
					c0-33.5,0-67.1,0-100.6c0-16.2,0.7-32.7,0-48.9c0-0.2,0-0.5,0-0.7C343.9,311,333.9,311,333.9,317.4L333.9,317.4z"/>
			</g>
		</g>
		<g class="st2">
			<g>
				<path class="st3" d="M280.9,310.3c0,15.4,0,30.8,0,46.1c0,36.9,0,73.9,0,110.8c0,44.7,0,89.4,0,134.1c0,38.7,0,77.3,0,116
					c0,18.8-0.7,37.7,0,56.5c0,0.3,0,0.5,0,0.8c0,6.4,10,6.4,10,0c0-15.4,0-30.8,0-46.1c0-36.9,0-73.9,0-110.8
					c0-44.7,0-89.4,0-134.1c0-38.7,0-77.3,0-116c0-18.8,0.7-37.7,0-56.5c0-0.3,0-0.5,0-0.8C290.9,303.9,280.9,303.9,280.9,310.3
					L280.9,310.3z"/>
			</g>
		</g>
		<g class="st2">
			<g>
				<path class="st3" d="M230.9,413.4c0,14.8,0,29.6,0,44.3c0,35.5,0,71,0,106.5c0,42.8,0,85.5,0,128.3c0,37.1,0,74.2,0,111.3
					c0,18-0.8,36.1,0,54.1c0,0.3,0,0.5,0,0.8c0,6.4,10,6.4,10,0c0-14.8,0-29.6,0-44.3c0-35.5,0-71,0-106.5c0-42.8,0-85.5,0-128.3
					c0-37.1,0-74.2,0-111.3c0-18,0.8-36.1,0-54.1c0-0.3,0-0.5,0-0.8C240.9,407,230.9,407,230.9,413.4L230.9,413.4z"/>
			</g>
		</g>
		<g class="st2">
			<g>
				<path class="st3" d="M505.9,220.3c0,15.1,0,30.2,0,45.3c0,36.2,0,72.5,0,108.7c0,43.9,0,87.7,0,131.6c0,37.9,0,75.8,0,113.8
					c0,18.4-0.8,36.9,0,55.3c0,0.3,0,0.5,0,0.8c0,6.4,10,6.4,10,0c0-15.1,0-30.2,0-45.3c0-36.2,0-72.5,0-108.7
					c0-43.9,0-87.7,0-131.6c0-37.9,0-75.8,0-113.8c0-18.4,0.8-36.9,0-55.3c0-0.3,0-0.5,0-0.8C515.9,213.8,505.9,213.8,505.9,220.3
					L505.9,220.3z"/>
			</g>
		</g>
		<g class="st2">
			<g>
				<path class="st3" d="M178.9,563.2c0,26.9,0,53.8,0,80.7c0,42.9,0,85.8,0,128.7c0,9.9,0,19.8,0,29.6c0,6.4,10,6.4,10,0
					c0-26.9,0-53.8,0-80.7c0-42.9,0-85.8,0-128.7c0-9.9,0-19.8,0-29.6C188.9,556.7,178.9,556.7,178.9,563.2L178.9,563.2z"/>
			</g>
		</g>
		<g class="st2">
			<g>
				<path class="st3" d="M390.9,241c0,15,0,30,0,45c0,36,0,72,0,108c0,43.6,0,87.2,0,130.7c0,37.7,0,75.4,0,113.1
					c0,18.3-0.7,36.8,0,55c0,0.3,0,0.5,0,0.8c0,6.4,10,6.4,10,0c0-15,0-30,0-45c0-36,0-72,0-108c0-43.6,0-87.2,0-130.7
					c0-37.7,0-75.4,0-113.1c0-18.3,0.7-36.8,0-55c0-0.3,0-0.5,0-0.8C400.9,234.6,390.9,234.6,390.9,241L390.9,241z"/>
			</g>
		</g>
		<g class="st2">
			<g>
				<path class="st3" d="M563.9,252.2c0,14.3,0,28.6,0,42.9c0,34.4,0,68.7,0,103.1c0,41.6,0,83.1,0,124.7c0,35.9,0,71.9,0,107.8
					c0,17.4-0.8,35,0,52.4c0,0.2,0,0.5,0,0.7c0,6.4,10,6.4,10,0c0-14.3,0-28.6,0-42.9c0-34.4,0-68.7,0-103.1c0-41.6,0-83.1,0-124.7
					c0-35.9,0-71.9,0-107.8c0-17.4,0.8-35,0-52.4c0-0.2,0-0.5,0-0.7C573.9,245.7,563.9,245.7,563.9,252.2L563.9,252.2z"/>
			</g>
		</g>
		<g class="st2">
			<g>
				<path class="st3" d="M677.9,317.4c0,13.4,0,26.7,0,40.1c0,32.1,0,64.1,0,96.2c0,38.6,0,77.2,0,115.8c0,33.5,0,67.1,0,100.6
					c0,16.2-0.7,32.7,0,48.9c0,0.2,0,0.5,0,0.7c0,6.4,10,6.4,10,0c0-13.4,0-26.7,0-40.1c0-32.1,0-64.1,0-96.2c0-38.6,0-77.2,0-115.8
					c0-33.5,0-67.1,0-100.6c0-16.2,0.7-32.7,0-48.9c0-0.2,0-0.5,0-0.7C687.9,311,677.9,311,677.9,317.4L677.9,317.4z"/>
			</g>
		</g>
		<g class="st2">
			<g>
				<path class="st3" d="M730.9,310.3c0,15.4,0,30.8,0,46.1c0,36.9,0,73.9,0,110.8c0,44.7,0,89.4,0,134.1c0,38.7,0,77.3,0,116
					c0,18.8-0.7,37.7,0,56.5c0,0.3,0,0.5,0,0.8c0,6.4,10,6.4,10,0c0-15.4,0-30.8,0-46.1c0-36.9,0-73.9,0-110.8
					c0-44.7,0-89.4,0-134.1c0-38.7,0-77.3,0-116c0-18.8,0.7-37.7,0-56.5c0-0.3,0-0.5,0-0.8C740.9,303.9,730.9,303.9,730.9,310.3
					L730.9,310.3z"/>
			</g>
		</g>
		<g class="st2">
			<g>
				<path class="st3" d="M780.9,413.4c0,14.8,0,29.6,0,44.3c0,35.5,0,71,0,106.5c0,42.8,0,85.5,0,128.3c0,37.1,0,74.2,0,111.3
					c0,18-0.8,36.1,0,54.1c0,0.3,0,0.5,0,0.8c0,6.4,10,6.4,10,0c0-14.8,0-29.6,0-44.3c0-35.5,0-71,0-106.5c0-42.8,0-85.5,0-128.3
					c0-37.1,0-74.2,0-111.3c0-18,0.8-36.1,0-54.1c0-0.3,0-0.5,0-0.8C790.9,407,780.9,407,780.9,413.4L780.9,413.4z"/>
			</g>
		</g>
		<g class="st2">
			<g>
				<path class="st3" d="M832.9,563.2c0,26.9,0,53.8,0,80.7c0,42.9,0,85.8,0,128.7c0,9.9,0,19.8,0,29.6c0,6.4,10,6.4,10,0
					c0-26.9,0-53.8,0-80.7c0-42.9,0-85.8,0-128.7c0-9.9,0-19.8,0-29.6C842.9,556.7,832.9,556.7,832.9,563.2L832.9,563.2z"/>
			</g>
		</g>
		<g class="st2">
			<g>
				<path class="st3" d="M620.9,241c0,15,0,30,0,45c0,36,0,72,0,108c0,43.6,0,87.2,0,130.7c0,37.7,0,75.4,0,113.1
					c0,18.3-0.7,36.8,0,55c0,0.3,0,0.5,0,0.8c0,6.4,10,6.4,10,0c0-15,0-30,0-45c0-36,0-72,0-108c0-43.6,0-87.2,0-130.7
					c0-37.7,0-75.4,0-113.1c0-18.3,0.7-36.8,0-55c0-0.3,0-0.5,0-0.8C630.9,234.6,620.9,234.6,620.9,241L620.9,241z"/>
			</g>
		</g>
	</g>
	<g id="Layer_4" class="st0">
		<g class="st2">
			<g>
				<path class="st3" d="M448.2,247.5c0,14.3,0,28.6,0,42.9c0,34.4,0,68.7,0,103.1c0,41.6,0,83.1,0,124.7c0,35.9,0,71.9,0,107.8
					c0,17.4-0.8,35,0,52.4c0,0.2,0,0.5,0,0.7c0,6.4,10,6.4,10,0c0-14.3,0-28.6,0-42.9c0-34.4,0-68.7,0-103.1c0-41.6,0-83.1,0-124.7
					c0-35.9,0-71.9,0-107.8c0-17.4,0.8-35,0-52.4c0-0.2,0-0.5,0-0.7C458.2,241.1,448.2,241.1,448.2,247.5L448.2,247.5z"/>
			</g>
		</g>
		<g class="st2">
			<g>
				<path class="st3" d="M334.2,247.5c0,15.5,0,31,0,46.5c0,37.2,0,74.4,0,111.6c0,45,0,90,0,135c0,38.9,0,77.8,0,116.8
					c0,18.9-0.8,37.9,0,56.8c0,0.3,0,0.5,0,0.8c0,6.4,10,6.4,10,0c0-15.5,0-31,0-46.5c0-37.2,0-74.4,0-111.6c0-45,0-90,0-135
					c0-38.9,0-77.8,0-116.8c0-18.9,0.8-37.9,0-56.8c0-0.3,0-0.5,0-0.8C344.2,241.1,334.2,241.1,334.2,247.5L334.2,247.5z"/>
			</g>
		</g>
		<g class="st2">
			<g>
				<path class="st3" d="M281.2,286.3c0,16.1,0,32.2,0,48.3c0,38.5,0,76.9,0,115.4c0,46.5,0,93,0,139.5c0,40.3,0,80.7,0,121
					c0,19.5-0.8,39.1,0,58.6c0,0.3,0,0.6,0,0.8c0,6.4,10,6.4,10,0c0-16.1,0-32.2,0-48.3c0-38.5,0-76.9,0-115.4c0-46.5,0-93,0-139.5
					c0-40.3,0-80.7,0-121c0-19.5,0.8-39.1,0-58.6c0-0.3,0-0.6,0-0.8C291.2,279.9,281.2,279.9,281.2,286.3L281.2,286.3z"/>
			</g>
		</g>
		<g class="st2">
			<g>
				<path class="st3" d="M231.2,351.2c0,16.7,0,33.4,0,50.1c0,40.1,0,80.1,0,120.2c0,48.3,0,96.6,0,144.9c0,41.9,0,83.8,0,125.7
					c0,20.3-0.8,40.8,0,61c0,0.3,0,0.6,0,0.8c0,6.4,10,6.4,10,0c0-16.7,0-33.4,0-50.1c0-40.1,0-80.1,0-120.2c0-48.3,0-96.6,0-144.9
					c0-41.9,0-83.8,0-125.7c0-20.3,0.8-40.8,0-61c0-0.3,0-0.6,0-0.8C241.2,344.8,231.2,344.8,231.2,351.2L231.2,351.2z"/>
			</g>
		</g>
		<g class="st2">
			<g>
				<path class="st3" d="M506.2,207.8c0,15.4,0,30.8,0,46.3c0,36.9,0,73.7,0,110.6c0,44.6,0,89.1,0,133.7c0,38.5,0,77.1,0,115.6
					c0,18.7-0.7,37.6,0,56.3c0,0.3,0,0.5,0,0.8c0,6.4,10,6.4,10,0c0-15.4,0-30.8,0-46.3c0-36.9,0-73.7,0-110.6
					c0-44.6,0-89.1,0-133.7c0-38.5,0-77.1,0-115.6c0-18.7,0.7-37.6,0-56.3c0-0.3,0-0.5,0-0.8C516.2,201.3,506.2,201.3,506.2,207.8
					L506.2,207.8z"/>
			</g>
		</g>
		<g class="st2">
			<g>
				<path class="st3" d="M179.2,490.3c0,34.6,0,69.3,0,103.9c0,55.2,0,110.3,0,165.5c0,12.6,0,25.2,0,37.8c0,6.4,10,6.4,10,0
					c0-34.6,0-69.3,0-103.9c0-55.2,0-110.3,0-165.5c0-12.6,0-25.2,0-37.8C189.2,483.9,179.2,483.9,179.2,490.3L179.2,490.3z"/>
			</g>
		</g>
		<g class="st2">
			<g>
				<path class="st3" d="M391.2,224.1c0,15.5,0,30.9,0,46.4c0,37,0,73.9,0,110.9c0,44.9,0,89.7,0,134.6c0,38.6,0,77.3,0,115.9
					c0,18.7-0.7,37.7,0,56.4c0,0.3,0,0.5,0,0.8c0,6.4,10,6.4,10,0c0-15.5,0-30.9,0-46.4c0-37,0-73.9,0-110.9c0-44.9,0-89.7,0-134.6
					c0-38.6,0-77.3,0-115.9c0-18.7,0.7-37.7,0-56.4c0-0.3,0-0.5,0-0.8C401.2,217.7,391.2,217.7,391.2,224.1L391.2,224.1z"/>
			</g>
		</g>
		<g class="st2">
			<g>
				<path class="st3" d="M564,247.5c0,14.3,0,28.6,0,42.9c0,34.4,0,68.7,0,103.1c0,41.6,0,83.1,0,124.7c0,35.9,0,71.9,0,107.8
					c0,17.4-0.8,35,0,52.4c0,0.2,0,0.5,0,0.7c0,6.4,10,6.4,10,0c0-14.3,0-28.6,0-42.9c0-34.4,0-68.7,0-103.1c0-41.6,0-83.1,0-124.7
					c0-35.9,0-71.9,0-107.8c0-17.4,0.8-35,0-52.4c0-0.2,0-0.5,0-0.7C574,241.1,564,241.1,564,247.5L564,247.5z"/>
			</g>
		</g>
		<g class="st2">
			<g>
				<path class="st3" d="M678,247.5c0,15.5,0,31,0,46.5c0,37.2,0,74.4,0,111.6c0,45,0,90,0,135c0,38.9,0,77.8,0,116.8
					c0,18.9-0.8,37.9,0,56.8c0,0.3,0,0.5,0,0.8c0,6.4,10,6.4,10,0c0-15.5,0-31,0-46.5c0-37.2,0-74.4,0-111.6c0-45,0-90,0-135
					c0-38.9,0-77.8,0-116.8c0-18.9,0.8-37.9,0-56.8c0-0.3,0-0.5,0-0.8C688,241.1,678,241.1,678,247.5L678,247.5z"/>
			</g>
		</g>
		<g class="st2">
			<g>
				<path class="st3" d="M731,286.3c0,16.1,0,32.2,0,48.3c0,38.5,0,76.9,0,115.4c0,46.5,0,93,0,139.5c0,40.3,0,80.7,0,121
					c0,19.5-0.8,39.1,0,58.6c0,0.3,0,0.6,0,0.8c0,6.4,10,6.4,10,0c0-16.1,0-32.2,0-48.3c0-38.5,0-76.9,0-115.4c0-46.5,0-93,0-139.5
					c0-40.3,0-80.7,0-121c0-19.5,0.8-39.1,0-58.6c0-0.3,0-0.6,0-0.8C741,279.9,731,279.9,731,286.3L731,286.3z"/>
			</g>
		</g>
		<g class="st2">
			<g>
				<path class="st3" d="M781,351.2c0,16.7,0,33.4,0,50.1c0,40.1,0,80.1,0,120.2c0,48.3,0,96.6,0,144.9c0,41.9,0,83.8,0,125.7
					c0,20.3-0.8,40.8,0,61c0,0.3,0,0.6,0,0.8c0,6.4,10,6.4,10,0c0-16.7,0-33.4,0-50.1c0-40.1,0-80.1,0-120.2c0-48.3,0-96.6,0-144.9
					c0-41.9,0-83.8,0-125.7c0-20.3,0.8-40.8,0-61c0-0.3,0-0.6,0-0.8C791,344.8,781,344.8,781,351.2L781,351.2z"/>
			</g>
		</g>
		<g class="st2">
			<g>
				<path class="st3" d="M506,207.8c0,15.4,0,30.8,0,46.3c0,36.9,0,73.7,0,110.6c0,44.6,0,89.1,0,133.7c0,38.5,0,77.1,0,115.6
					c0,18.7-0.7,37.6,0,56.3c0,0.3,0,0.5,0,0.8c0,6.4,10,6.4,10,0c0-15.4,0-30.8,0-46.3c0-36.9,0-73.7,0-110.6
					c0-44.6,0-89.1,0-133.7c0-38.5,0-77.1,0-115.6c0-18.7,0.7-37.6,0-56.3c0-0.3,0-0.5,0-0.8C516,201.3,506,201.3,506,207.8
					L506,207.8z"/>
			</g>
		</g>
		<g class="st2">
			<g>
				<path class="st3" d="M833,490.3c0,34.6,0,69.3,0,103.9c0,55.2,0,110.3,0,165.5c0,12.6,0,25.2,0,37.8c0,6.4,10,6.4,10,0
					c0-34.6,0-69.3,0-103.9c0-55.2,0-110.3,0-165.5c0-12.6,0-25.2,0-37.8C843,483.9,833,483.9,833,490.3L833,490.3z"/>
			</g>
		</g>
		<g class="st2">
			<g>
				<path class="st3" d="M621,224.1c0,15.5,0,30.9,0,46.4c0,37,0,73.9,0,110.9c0,44.9,0,89.7,0,134.6c0,38.6,0,77.3,0,115.9
					c0,18.7-0.7,37.7,0,56.4c0,0.3,0,0.5,0,0.8c0,6.4,10,6.4,10,0c0-15.5,0-30.9,0-46.4c0-37,0-73.9,0-110.9c0-44.9,0-89.7,0-134.6
					c0-38.6,0-77.3,0-115.9c0-18.7,0.7-37.7,0-56.4c0-0.3,0-0.5,0-0.8C631,217.7,621,217.7,621,224.1L621,224.1z"/>
			</g>
		</g>
	</g>
	<g id="Layer_5" class="st0">
		<g class="st2">
			<g>
				<path class="st3" d="M448.2,233.3c0,15.7,0,31.5,0,47.2c0,37.8,0,75.5,0,113.3c0,45.7,0,91.4,0,137.1c0,39.5,0,79,0,118.5
					c0,19.1-0.8,38.4,0,57.6c0,0.3,0,0.5,0,0.8c0,6.4,10,6.4,10,0c0-15.7,0-31.5,0-47.2c0-37.8,0-75.5,0-113.3
					c0-45.7,0-91.4,0-137.1c0-39.5,0-79,0-118.5c0-19.1,0.8-38.4,0-57.6c0-0.3,0-0.5,0-0.8C458.2,226.9,448.2,226.9,448.2,233.3
					L448.2,233.3z"/>
			</g>
		</g>
		<g class="st2">
			<g>
				<path class="st3" d="M334.2,306.8c0,14.5,0,28.9,0,43.4c0,34.8,0,69.5,0,104.3c0,42.1,0,84.1,0,126.2c0,36.4,0,72.8,0,109.2
					c0,17.7-0.7,35.5,0,53.2c0,0.3,0,0.5,0,0.8c0,6.4,10,6.4,10,0c0-14.5,0-28.9,0-43.4c0-34.8,0-69.5,0-104.3
					c0-42.1,0-84.1,0-126.2c0-36.4,0-72.8,0-109.2c0-17.7,0.7-35.5,0-53.2c0-0.3,0-0.5,0-0.8C344.2,300.3,334.2,300.3,334.2,306.8
					L334.2,306.8z"/>
			</g>
		</g>
		<g class="st2">
			<g>
				<path class="st3" d="M281.2,362.8c0,14.4,0,28.8,0,43.2c0,34.4,0,68.7,0,103.1c0,41.5,0,83.1,0,124.6c0,35.9,0,71.9,0,107.8
					c0,17.5-0.7,35.1,0,52.6c0,0.3,0,0.5,0,0.8c0,6.4,10,6.4,10,0c0-14.4,0-28.8,0-43.2c0-34.4,0-68.7,0-103.1
					c0-41.5,0-83.1,0-124.6c0-35.9,0-71.9,0-107.8c0-17.5,0.7-35.1,0-52.6c0-0.3,0-0.5,0-0.8C291.2,356.3,281.2,356.3,281.2,362.8
					L281.2,362.8z"/>
			</g>
		</g>
		<g class="st2">
			<g>
				<path class="st3" d="M231.2,412.6c0,14.7,0,29.4,0,44.1c0,35.2,0,70.3,0,105.5c0,42.7,0,85.4,0,128.1c0,36.8,0,73.6,0,110.3
					c0,17.9-0.8,36,0,53.9c0,0.3,0,0.5,0,0.8c0,6.4,10,6.4,10,0c0-14.7,0-29.4,0-44.1c0-35.2,0-70.3,0-105.5c0-42.7,0-85.4,0-128.1
					c0-36.8,0-73.6,0-110.3c0-17.9,0.8-36,0-53.9c0-0.3,0-0.5,0-0.8C241.2,406.1,231.2,406.1,231.2,412.6L231.2,412.6z"/>
			</g>
		</g>
		<g class="st2">
			<g>
				<path class="st3" d="M506.2,236.5c0,15.4,0,30.8,0,46.3c0,36.9,0,73.7,0,110.6c0,44.6,0,89.1,0,133.7c0,38.5,0,77.1,0,115.6
					c0,18.7-0.7,37.6,0,56.3c0,0.3,0,0.5,0,0.8c0,6.4,10,6.4,10,0c0-15.4,0-30.8,0-46.3c0-36.9,0-73.7,0-110.6
					c0-44.6,0-89.1,0-133.7c0-38.5,0-77.1,0-115.6c0-18.7,0.7-37.6,0-56.3c0-0.3,0-0.5,0-0.8C516.2,230.1,506.2,230.1,506.2,236.5
					L506.2,236.5z"/>
			</g>
		</g>
		<g class="st2">
			<g>
				<path class="st3" d="M178,522.9c0,30.4,0,60.8,0,91.3c0,48.1,0,96.2,0,144.3c0,11.1,0,22.3,0,33.4c0,6.4,10,6.4,10,0
					c0-30.4,0-60.8,0-91.3c0-48.1,0-96.2,0-144.3c0-11.1,0-22.3,0-33.4C188,516.4,178,516.4,178,522.9L178,522.9z"/>
			</g>
		</g>
		<g class="st2">
			<g>
				<path class="st3" d="M391.2,263.8c0,15.1,0,30.1,0,45.2c0,36.2,0,72.3,0,108.5c0,43.7,0,87.5,0,131.2c0,37.8,0,75.6,0,113.4
					c0,18.2-0.8,36.7,0,54.9c0,0.3,0,0.5,0,0.8c0,6.4,10,6.4,10,0c0-15.1,0-30.1,0-45.2c0-36.2,0-72.3,0-108.5
					c0-43.7,0-87.5,0-131.2c0-37.8,0-75.6,0-113.4c0-18.2,0.8-36.7,0-54.9c0-0.3,0-0.5,0-0.8C401.2,257.4,391.2,257.4,391.2,263.8
					L391.2,263.8z"/>
			</g>
		</g>
		<g class="st2">
			<g>
				<path class="st3" d="M506,218.5c0,14.5,0,28.9,0,43.4c0,34.8,0,69.5,0,104.3c0,42.1,0,84.1,0,126.2c0,36.4,0,72.8,0,109.1
					c0,17.7-0.7,35.5,0,53.1c0,0.3,0,0.5,0,0.8c0,6.4,10,6.4,10,0c0-14.5,0-28.9,0-43.4c0-34.8,0-69.5,0-104.3
					c0-42.1,0-84.1,0-126.2c0-36.4,0-72.8,0-109.1c0-17.7,0.7-35.5,0-53.1c0-0.3,0-0.5,0-0.8C516,212,506,212,506,218.5L506,218.5z"
					/>
			</g>
		</g>
		<g class="st2">
			<g>
				<path class="st3" d="M134.2,453.9c0,29.9,0,59.8,0,89.6c0,47.2,0,94.4,0,141.6c0,10.9,0,21.7,0,32.6c0,6.4,10,6.4,10,0
					c0-29.9,0-59.8,0-89.6c0-47.2,0-94.4,0-141.6c0-10.9,0-21.7,0-32.6C144.2,447.5,134.2,447.4,134.2,453.9L134.2,453.9z"/>
			</g>
		</g>
		<g class="st2">
			<g>
				<path class="st3" d="M506.2,236.5c0,15.4,0,30.8,0,46.3c0,36.9,0,73.7,0,110.6c0,44.6,0,89.1,0,133.7c0,38.5,0,77.1,0,115.6
					c0,18.7-0.7,37.6,0,56.3c0,0.3,0,0.5,0,0.8c0,6.4,10,6.4,10,0c0-15.4,0-30.8,0-46.3c0-36.9,0-73.7,0-110.6
					c0-44.6,0-89.1,0-133.7c0-38.5,0-77.1,0-115.6c0-18.7,0.7-37.6,0-56.3c0-0.3,0-0.5,0-0.8C516.2,230.1,506.2,230.1,506.2,236.5
					L506.2,236.5z"/>
			</g>
		</g>
		<g class="st2">
			<g>
				<path class="st3" d="M506.4,218.5c0,14.5,0,28.9,0,43.4c0,34.8,0,69.5,0,104.3c0,42.1,0,84.1,0,126.2c0,36.4,0,72.8,0,109.1
					c0,17.7-0.7,35.5,0,53.1c0,0.3,0,0.5,0,0.8c0,6.4,10,6.4,10,0c0-14.5,0-28.9,0-43.4c0-34.8,0-69.5,0-104.3
					c0-42.1,0-84.1,0-126.2c0-36.4,0-72.8,0-109.1c0-17.7,0.7-35.5,0-53.1c0-0.3,0-0.5,0-0.8C516.4,212,506.4,212,506.4,218.5
					L506.4,218.5z"/>
			</g>
		</g>
		<g class="st2">
			<g>
				<path class="st3" d="M564.2,233.3c0,15.7,0,31.5,0,47.2c0,37.8,0,75.5,0,113.3c0,45.7,0,91.4,0,137.1c0,39.5,0,79,0,118.5
					c0,19.1-0.8,38.4,0,57.6c0,0.3,0,0.5,0,0.8c0,6.4,10,6.4,10,0c0-15.7,0-31.5,0-47.2c0-37.8,0-75.5,0-113.3
					c0-45.7,0-91.4,0-137.1c0-39.5,0-79,0-118.5c0-19.1,0.8-38.4,0-57.6c0-0.3,0-0.5,0-0.8C574.2,226.9,564.2,226.9,564.2,233.3
					L564.2,233.3z"/>
			</g>
		</g>
		<g class="st2">
			<g>
				<path class="st3" d="M678.2,306.8c0,14.5,0,28.9,0,43.4c0,34.8,0,69.5,0,104.3c0,42.1,0,84.1,0,126.2c0,36.4,0,72.8,0,109.2
					c0,17.7-0.7,35.5,0,53.2c0,0.3,0,0.5,0,0.8c0,6.4,10,6.4,10,0c0-14.5,0-28.9,0-43.4c0-34.8,0-69.5,0-104.3
					c0-42.1,0-84.1,0-126.2c0-36.4,0-72.8,0-109.2c0-17.7,0.7-35.5,0-53.2c0-0.3,0-0.5,0-0.8C688.2,300.3,678.2,300.3,678.2,306.8
					L678.2,306.8z"/>
			</g>
		</g>
		<g class="st2">
			<g>
				<path class="st3" d="M731.2,362.8c0,14.4,0,28.8,0,43.2c0,34.4,0,68.7,0,103.1c0,41.5,0,83.1,0,124.6c0,35.9,0,71.9,0,107.8
					c0,17.5-0.7,35.1,0,52.6c0,0.3,0,0.5,0,0.8c0,6.4,10,6.4,10,0c0-14.4,0-28.8,0-43.2c0-34.4,0-68.7,0-103.1
					c0-41.5,0-83.1,0-124.6c0-35.9,0-71.9,0-107.8c0-17.5,0.7-35.1,0-52.6c0-0.3,0-0.5,0-0.8C741.2,356.3,731.2,356.3,731.2,362.8
					L731.2,362.8z"/>
			</g>
		</g>
		<g class="st2">
			<g>
				<path class="st3" d="M781.2,412.6c0,14.7,0,29.4,0,44.1c0,35.2,0,70.3,0,105.5c0,42.7,0,85.4,0,128.1c0,36.8,0,73.6,0,110.3
					c0,17.9-0.8,36,0,53.9c0,0.3,0,0.5,0,0.8c0,6.4,10,6.4,10,0c0-14.7,0-29.4,0-44.1c0-35.2,0-70.3,0-105.5c0-42.7,0-85.4,0-128.1
					c0-36.8,0-73.6,0-110.3c0-17.9,0.8-36,0-53.9c0-0.3,0-0.5,0-0.8C791.2,406.1,781.2,406.1,781.2,412.6L781.2,412.6z"/>
			</g>
		</g>
		<g class="st2">
			<g>
				<path class="st3" d="M506.2,236.5c0,15.4,0,30.8,0,46.3c0,36.9,0,73.7,0,110.6c0,44.6,0,89.1,0,133.7c0,38.5,0,77.1,0,115.6
					c0,18.7-0.7,37.6,0,56.3c0,0.3,0,0.5,0,0.8c0,6.4,10,6.4,10,0c0-15.4,0-30.8,0-46.3c0-36.9,0-73.7,0-110.6
					c0-44.6,0-89.1,0-133.7c0-38.5,0-77.1,0-115.6c0-18.7,0.7-37.6,0-56.3c0-0.3,0-0.5,0-0.8C516.2,230.1,506.2,230.1,506.2,236.5
					L506.2,236.5z"/>
			</g>
		</g>
		<g class="st2">
			<g>
				<path class="st3" d="M834.4,522.9c0,30.4,0,60.8,0,91.3c0,48.1,0,96.2,0,144.3c0,11.1,0,22.3,0,33.4c0,6.4,10,6.4,10,0
					c0-30.4,0-60.8,0-91.3c0-48.1,0-96.2,0-144.3c0-11.1,0-22.3,0-33.4C844.4,516.4,834.4,516.4,834.4,522.9L834.4,522.9z"/>
			</g>
		</g>
		<g class="st2">
			<g>
				<path class="st3" d="M621.2,263.8c0,15.1,0,30.1,0,45.2c0,36.2,0,72.3,0,108.5c0,43.7,0,87.5,0,131.2c0,37.8,0,75.6,0,113.4
					c0,18.2-0.8,36.7,0,54.9c0,0.3,0,0.5,0,0.8c0,6.4,10,6.4,10,0c0-15.1,0-30.1,0-45.2c0-36.2,0-72.3,0-108.5
					c0-43.7,0-87.5,0-131.2c0-37.8,0-75.6,0-113.4c0-18.2,0.8-36.7,0-54.9c0-0.3,0-0.5,0-0.8C631.2,257.4,621.2,257.4,621.2,263.8
					L621.2,263.8z"/>
			</g>
		</g>
		<g class="st2">
			<g>
				<path class="st3" d="M506.4,218.5c0,14.5,0,28.9,0,43.4c0,34.8,0,69.5,0,104.3c0,42.1,0,84.1,0,126.2c0,36.4,0,72.8,0,109.1
					c0,17.7-0.7,35.5,0,53.1c0,0.3,0,0.5,0,0.8c0,6.4,10,6.4,10,0c0-14.5,0-28.9,0-43.4c0-34.8,0-69.5,0-104.3
					c0-42.1,0-84.1,0-126.2c0-36.4,0-72.8,0-109.1c0-17.7,0.7-35.5,0-53.1c0-0.3,0-0.5,0-0.8C516.4,212,506.4,212,506.4,218.5
					L506.4,218.5z"/>
			</g>
		</g>
		<g class="st2">
			<g>
				<path class="st3" d="M878.2,453.9c0,29.9,0,59.8,0,89.6c0,47.2,0,94.4,0,141.6c0,10.9,0,21.7,0,32.6c0,6.4,10,6.4,10,0
					c0-29.9,0-59.8,0-89.6c0-47.2,0-94.4,0-141.6c0-10.9,0-21.7,0-32.6C888.2,447.5,878.2,447.4,878.2,453.9L878.2,453.9z"/>
			</g>
		</g>
		<g class="st2">
			<g>
				<path class="st3" d="M506.2,236.5c0,15.4,0,30.8,0,46.3c0,36.9,0,73.7,0,110.6c0,44.6,0,89.1,0,133.7c0,38.5,0,77.1,0,115.6
					c0,18.7-0.7,37.6,0,56.3c0,0.3,0,0.5,0,0.8c0,6.4,10,6.4,10,0c0-15.4,0-30.8,0-46.3c0-36.9,0-73.7,0-110.6
					c0-44.6,0-89.1,0-133.7c0-38.5,0-77.1,0-115.6c0-18.7,0.7-37.6,0-56.3c0-0.3,0-0.5,0-0.8C516.2,230.1,506.2,230.1,506.2,236.5
					L506.2,236.5z"/>
			</g>
		</g>
	</g>
	<g id="Layer_7" class="st0">
	</g>
	<g>
		<path class="st1" d="M517.2,445.2c0-20.7,0-41.5,0-62.2c0,0,0-0.1,0-0.1l-9.8,5.4l8.6-22.9c0,0,0-0.1,0.1-0.2c0,0,0-0.1,0-0.1
			c0,0,0-0.1,0.1-0.2c0-0.1,0.1-0.3,0.2-0.4c0,0,0,0,0-0.1c0.1-0.2,0.2-0.5,0.3-0.8c0,0,0,0,0-0.1c0.1-0.3,0.3-0.6,0.4-1
			c0,0,0,0,0,0c0-29.6,0-59.1,0-88.7c0-1,0-1.9,0-2.9c0-3.5,0.1-6.9,0.1-10.4c0.2-13.3,0.5-26.6-0.1-39.9c0-0.3,0-0.5,0-0.8
			c0-3.2-2.5-4.8-5-4.8c-0.1,0-0.1,0-0.2,0c-2.6-0.1-5.2,1.5-5.2,4.8c0,14.5,0,28.9,0,43.4c0,34.8,0,69.5,0,104.3
			c0,24.8,0,49.5,0,74.3l6,6.1L517.2,445.2z"/>
		<path class="st1" d="M454.3,329.2l4.8,4.3c0-13.5,0-26.9,0-40.4c0-19.1,0.8-38.4,0-57.6c0-0.3,0-0.5,0-0.8c0-6.4-10-6.4-10,0
			c0,15.7,0,31.5,0,47.2c0,17.4,0,34.9,0,52.3L454.3,329.2z"/>
		<path class="st1" d="M242,414c0-6.4-10-6.4-10,0c0,14.8,0,29.5,0,44.3c0,35.1,0,70.2,0,105.3c0,42.8,0,85.5,0,128.3
			c0,36.8,0,73.6,0,110.4c0,17.8-0.7,35.9,0,53.7c0,0.3,0,0.5,0,0.8c0,6.4,10,6.4,10,0c0-14.8,0-29.5,0-44.3c0-35.1,0-70.2,0-105.3
			c0-42.8,0-85.5,0-128.3c0-36.8,0-73.6,0-110.4c0-17.8,0.7-35.9,0-53.7C242,414.5,242,414.3,242,414z"/>
		<path class="st1" d="M178.8,524.3c0,30.4,0,60.8,0,91.3c0,48.1,0,96.2,0,144.3c0,11.1,0,22.3,0,33.4c0,6.4,10,6.4,10,0
			c0-30.4,0-60.8,0-91.3c0-48.1,0-96.2,0-144.3c0-11.1,0-22.3,0-33.4C188.8,517.9,178.8,517.9,178.8,524.3z"/>
		<path class="st1" d="M135,455.3c0,29.9,0,59.8,0,89.6c0,47.2,0,94.4,0,141.6c0,10.9,0,21.7,0,32.6c0,6.4,10,6.4,10,0
			c0-29.9,0-59.8,0-89.6c0-47.2,0-94.4,0-141.6c0-10.9,0-21.7,0-32.6C145,448.9,135,448.9,135,455.3z"/>
		<path class="st1" d="M402,320.9c0-18.2,0.8-36.7,0-54.9c0-0.3,0-0.5,0-0.8c0-6.4-10-6.4-10,0c0,15.1,0,30.1,0,45.2
			c0,21.6,0,43.2,0,64.8l10-10C402,350.5,402,335.7,402,320.9z"/>
		<path class="st1" d="M567.5,327.8C567.5,327.8,567.5,327.8,567.5,327.8c0.9,0.1,1.7,0.1,2.5,0.2c0,0,0,0,0,0
			c0.8,0.1,1.7,0.2,2.5,0.3c0,0,0,0,0,0c0.8,0.1,1.7,0.2,2.5,0.4c0,0,0,0,0,0c0-11.9,0-23.7,0-35.6c0-19.1,0.8-38.4,0-57.6
			c0-0.3,0-0.5,0-0.8c0-6.4-10-6.4-10,0c0,15.7,0,31.5,0,47.2c0,15.2,0,30.5,0,45.7C565.8,327.7,566.6,327.7,567.5,327.8z"/>
		<path class="st1" d="M624.4,352.7C624.4,352.7,624.4,352.8,624.4,352.7c0.8,0.8,1.6,1.6,2.3,2.4c0,0,0.1,0.1,0.1,0.1
			c0.6,0.7,1.2,1.4,1.8,2.1c0.1,0.2,0.3,0.4,0.4,0.5c0.6,0.8,1.2,1.5,1.8,2.3c0.4,0.6,0.8,1.1,1.2,1.7c0-13.7,0-27.3,0-41
			c0-18.2,0.8-36.7,0-54.9c0-0.3,0-0.5,0-0.8c0-6.4-10-6.4-10,0c0,15.1,0,30.1,0,45.2c0,13.3,0,26.7,0,40
			C622.8,351.2,623.6,351.9,624.4,352.7z"/>
		<path class="st1" d="M565,445.3C565,445.3,565,445.3,565,445.3c2.8-0.3,5.3-0.9,7.7-1.7c0,0,0,0,0,0c0.8-0.3,1.5-0.6,2.3-0.9
			c0-10.3,0-20.7,0-31c0-11.4,0-22.9,0-34.3c-0.5-0.5-1-0.9-1.4-1.3c0,0,0,0,0,0c-0.4-0.4-0.9-0.8-1.3-1.2c0,0,0,0,0,0
			c-0.4-0.4-0.8-0.7-1.2-1c0,0,0,0,0,0c-0.4-0.3-0.8-0.6-1.2-0.9c0,0,0,0-0.1,0c-0.4-0.3-0.8-0.5-1.1-0.8c0,0,0,0-0.1,0
			c-0.4-0.2-0.7-0.5-1.1-0.7c0,0,0,0-0.1,0c-0.4-0.2-0.8-0.4-1.1-0.6c0,0,0,0,0,0c-0.4-0.2-0.8-0.4-1.2-0.6c0,0,0,0,0,0
			c0,8.5,0,16.9,0,25.4C565,411.9,565,428.6,565,445.3z"/>
		<path class="st1" d="M451,508.4C451,508.4,451,508.3,451,508.4c0.8-0.7,1.6-1.5,2.4-2.3c0,0,0,0,0,0c0.8-0.8,1.7-1.6,2.6-2.5
			c0,0,0.1-0.1,0.1-0.1c0.9-0.9,1.8-1.7,2.8-2.6c0,0,0,0,0,0c0-11,0-21.9,0-32.9l-10-10.4c0,17.6,0,35.2,0,52.8
			C449.6,509.7,450.3,509.1,451,508.4z"/>
		<path class="st1" d="M570.6,492.1c-0.4,0-0.8-0.1-1.2-0.1c-0.5-0.1-1.1-0.1-1.6-0.2c-0.6-0.1-1.1-0.1-1.7-0.2
			c-0.4-0.1-0.8-0.1-1.2-0.2c0,0,0,0,0,0c0,3.2,0,6.3,0,9.5l10,10.2c0-6.2,0-12.4,0-18.7C573.5,492.3,572,492.2,570.6,492.1z"/>
		<path class="st1" d="M511.2,518.8c-0.3,0.3-0.6,0.7-0.9,1.1c-0.1,0.2-0.3,0.4-0.5,0.6c-0.2,0.3-0.4,0.5-0.6,0.8
			c-0.1,0.1-0.1,0.2-0.2,0.3c-0.3,0.4-0.7,0.8-1,1.2c0,0,0,0,0,0c-0.4,0.5-0.8,0.9-1.2,1.4c0,26.3,0,52.6,0,78.8
			c0,17.7-0.7,35.5,0,53.1c0,0.3,0,0.5,0,0.8c0,0.3,0,0.6,0.1,0.9c-0.2,14.2-0.5,28.5,0.1,42.6c0,0.3,0,0.5,0,0.8
			c0,3.2,2.5,4.8,5,4.8c2.5,0,5-1.6,5-4.8c0-14.3,0-28.6,0-42.8c0.1-0.5,0.2-1,0.2-1.5c0-14.5,0-28.9,0-43.4c0-29.6,0-59.2,0-88.7
			L511.2,518.8z"/>
		<path class="st1" d="M742,364.2c0-6.4-10-6.4-10,0c0,14.4,0,28.8,0,43.2c0,34.4,0,68.7,0,103.1c0,41.5,0,83.1,0,124.6
			c0,35.9,0,71.9,0,107.8c0,17.5-0.7,35.1,0,52.6c0,0.3,0,0.5,0,0.8c0,6.4,10,6.4,10,0c0-14.4,0-28.8,0-43.2c0-34.4,0-68.7,0-103.1
			c0-41.5,0-83.1,0-124.6c0-35.9,0-71.9,0-107.8c0-17.5,0.7-35.1,0-52.6C742,364.7,742,364.5,742,364.2z"/>
		<path class="st1" d="M689,308.2c0-6.4-10-6.4-10,0c0,14.5,0,28.9,0,43.4c0,34.8,0,69.5,0,104.3c0,42.1,0,84.1,0,126.2
			c0,36.4,0,72.8,0,109.2c0,17.7-0.7,35.5,0,53.2c0,0.3,0,0.5,0,0.8c0,6.4,10,6.4,10,0c0-14.5,0-28.9,0-43.4c0-34.8,0-69.5,0-104.3
			c0-42.1,0-84.1,0-126.2c0-36.4,0-72.8,0-109.2c0-17.7,0.7-35.5,0-53.2C689,308.7,689,308.5,689,308.2z"/>
		<path class="st1" d="M629.7,470.5c-0.1,0.2-0.3,0.3-0.4,0.5c-0.7,0.8-1.4,1.6-2.2,2.4c0,0,0,0-0.1,0.1c-0.8,0.9-1.7,1.7-2.5,2.5
			c0,0,0,0,0,0c-0.8,0.8-1.7,1.6-2.6,2.3c0,24,0,48,0,72c0,37.8,0,75.6,0,113.4c0,18.2-0.8,36.7,0,54.9c0,0.3,0,0.5,0,0.8
			c0,6.4,10,6.4,10,0c0-15.1,0-30.1,0-45.2c0-36.2,0-72.3,0-108.5c0-32.6,0-65.1,0-97.7c0,0,0,0,0,0
			C631.2,468.7,630.5,469.6,629.7,470.5z"/>
		<path class="st1" d="M792,414c0-6.4-10-6.4-10,0c0,14.8,0,29.5,0,44.3c0,35.1,0,70.2,0,105.3c0,42.8,0,85.5,0,128.3
			c0,36.8,0,73.6,0,110.4c0,17.8-0.7,35.9,0,53.7c0,0.3,0,0.5,0,0.8c0,6.4,10,6.4,10,0c0-14.8,0-29.5,0-44.3c0-35.1,0-70.2,0-105.3
			c0-42.8,0-85.5,0-128.3c0-36.8,0-73.6,0-110.4c0-17.8,0.7-35.9,0-53.7C792,414.5,792,414.3,792,414z"/>
		<path class="st1" d="M835.2,524.3c0,30.4,0,60.8,0,91.3c0,48.1,0,96.2,0,144.3c0,11.1,0,22.3,0,33.4c0,6.4,10,6.4,10,0
			c0-30.4,0-60.8,0-91.3c0-48.1,0-96.2,0-144.3c0-11.1,0-22.3,0-33.4C845.2,517.9,835.2,517.9,835.2,524.3z"/>
		<path class="st1" d="M392,454.3c0,32,0,63.9,0,95.9c0,37.8,0,75.6,0,113.4c0,18.2-0.8,36.7,0,54.9c0,0.3,0,0.5,0,0.8
			c0,6.4,10,6.4,10,0c0-15.1,0-30.1,0-45.2c0-36.2,0-72.3,0-108.5c0-33.9,0-67.9,0-101.8L392,454.3z"/>
		<path class="st1" d="M292,364.2c0-6.4-10-6.4-10,0c0,14.4,0,28.8,0,43.2c0,34.4,0,68.7,0,103.1c0,41.5,0,83.1,0,124.6
			c0,35.9,0,71.9,0,107.8c0,17.5-0.7,35.1,0,52.6c0,0.3,0,0.5,0,0.8c0,6.4,10,6.4,10,0c0-14.4,0-28.8,0-43.2c0-34.4,0-68.7,0-103.1
			c0-41.5,0-83.1,0-124.6c0-35.9,0-71.9,0-107.8c0-17.5,0.7-35.1,0-52.6C292,364.7,292,364.5,292,364.2z"/>
		<path class="st1" d="M345,308.2c0-6.4-10-6.4-10,0c0,14.5,0,28.9,0,43.4c0,34.8,0,69.5,0,104.3c0,42.1,0,84.1,0,126.2
			c0,36.4,0,72.8,0,109.2c0,17.7-0.7,35.5,0,53.2c0,0.3,0,0.5,0,0.8c0,6.4,10,6.4,10,0c0-14.5,0-28.9,0-43.4c0-34.8,0-69.5,0-104.3
			c0-42.1,0-84.1,0-126.2c0-36.4,0-72.8,0-109.2c0-17.7,0.7-35.5,0-53.2C345,308.7,345,308.5,345,308.2z"/>
		<path class="st1" d="M458.2,570.6c-0.4,0-0.9,0.1-1.4,0.1c-1.2,0-2.4-0.1-3.6-0.3c-0.7-0.1-1.5-0.2-2.2-0.4c0,0-0.1,0-0.1,0
			c-0.7-0.1-1.3-0.3-2-0.4c0,27.1,0,54.2,0,81.3c0,19.1-0.8,38.4,0,57.6c0,0.3,0,0.5,0,0.8c0,6.4,10,6.4,10,0c0-15.7,0-31.5,0-47.2
			c0-30.5,0-61,0-91.5C458.8,570.6,458.5,570.6,458.2,570.6z"/>
		<path class="st1" d="M876.8,455.3c0,29.9,0,59.8,0,89.6c0,47.2,0,94.4,0,141.6c0,10.9,0,21.7,0,32.6c0,6.4,10,6.4,10,0
			c0-29.9,0-59.8,0-89.6c0-47.2,0-94.4,0-141.6c0-10.9,0-21.7,0-32.6C886.8,448.9,876.8,448.9,876.8,455.3z"/>
		<path class="st1" d="M573.8,563.7C573.8,563.7,573.7,563.7,573.8,563.7c-0.4,0.1-0.8,0.2-1.2,0.2c0,0,0,0,0,0
			c-0.4,0.1-0.8,0.1-1.2,0.1c0,0,0,0-0.1,0c-0.4,0-0.8,0.1-1.2,0.1c0,0-0.1,0-0.1,0c-0.4,0-0.8,0-1.2,0c0,0-0.1,0-0.1,0
			c-0.4,0-0.8,0-1.2,0c0,0-0.1,0-0.1,0c-0.4,0-0.8,0-1.2-0.1c0,0,0,0,0,0c-0.4,0-0.8-0.1-1.2-0.1c0,29,0,57.9,0,86.9
			c0,19.1-0.8,38.4,0,57.6c0,0.3,0,0.5,0,0.8c0,6.4,10,6.4,10,0c0-15.7,0-31.5,0-47.2c0-32.9,0-65.7,0-98.6c0,0,0,0,0,0
			C574.6,563.5,574.2,563.6,573.8,563.7z"/>
	</g>
	<path class="st0" d="M456.9,564.7c-0.9,0-1.8-0.1-2.8-0.2c-13-1.9-19.6-8.9-19.6-21c0-12.6,7.2-18.7,13.1-23.7
		c1.4-1.2,2.7-2.3,3.8-3.4c5.1-5.1,25.9-24.5,32.8-31l-49.8-51.6l-26.9,26.9l-39.3-37l27.1-29.1l-7.1-7.1l27.1-27.1l8,7l31-30
		l41.5,37l-32.1,32.1l48.2,49.1l9-5.7c0.6-0.4,4.1-2.5,12.6-2.5c3.7,0,6.1,0.7,8.7,1.5c3.6,1.1,8,2.5,18.3,2.5
		c16,0,28.4-7.6,32.1-19.9c4.1-13.4,6.4-37.5-4.3-49.1c-11.8-12.8-16.4-17.4-26.6-20.1c-9.9-2.7-19-0.1-22.9,1.8
		c-3.9,1.9-12.8,6.9-12.9,6.9l-7.1,4l2.9-7.6c0.5-1.4,13-33.9,38.8-33.9c26.1,0,52.4,12.2,65.4,30.2c15.5,21.5,28,56.5,12.2,84.2
		c-15.8,27.7-32.3,38.5-58.6,38.5c-22.2,0-37.8-8.3-43.8-11.5l-2.6,1.9l49.7,50.6c7.1,8.1,6.3,17.6-2.1,26.1
		c-3.4,3.4-8.3,5-13.8,4.5c-4.8-0.4-9.5-2.5-12.5-5.5l-43.6-42.7c-6.7,8.1-27.4,33.1-35,41.6C467.9,560.2,463.9,564.7,456.9,564.7z
		 M434.5,425.2l58.2,60.4l-2.2,2.1c-0.3,0.3-29,27-34.9,32.9c-1.3,1.3-2.7,2.5-4.2,3.7c-5.4,4.6-11,9.3-11,19.1
		c0,11.5,7.7,14.1,14.4,15c5.3,0.8,7.3-1,16.3-11c8.9-9.8,36.6-43.6,36.9-43.9l2.1-2.5l48.3,47.3c3.8,3.8,12.9,5.9,17.8,1
		c6.2-6.2,6.8-12.2,1.9-17.8l-54.4-55.4l11.3-8.1l1.6,0.8c0.4,0.2,0.9,0.5,1.6,0.8c5.5,3,20.2,10.8,41.1,10.8
		c24.1,0,38.6-9.6,53.4-35.5c15.5-27-0.2-61.6-11.8-77.8c-12-16.6-36.3-27.8-60.6-27.8c-14.3,0-24.1,13-29.2,21.9
		c1.8-1,3.6-1.9,4.9-2.5c1.3-0.6,12.9-6.1,27.1-2.2c11.9,3.2,17.3,8.7,29.4,21.9c13.4,14.5,9.6,42.3,5.7,54.9
		c-4.6,14.9-19.1,24.1-37.9,24.1c-11.3,0-16.2-1.5-20.1-2.7c-2.4-0.7-4.1-1.3-6.9-1.3c-6.7,0-9.4,1.5-9.4,1.5l-13,8.3l-55.8-56.9
		l31.9-31.9l-32.5-29l-31,30l-8-7l-18.9,18.9l6.9,6.9l-26.9,28.9l30.7,29L434.5,425.2z"/>
	<path class="st3" d="M524.5,368.5c0,0,12-32,36-32s50,11,63,29s28,53,12,81s-32,37-56,37s-40-10-44-12l-7,5l52,53c7,8,4,16-2,22
		s-17,4-22-1l-46-45c0,0-28,34-37,44s-12,13-19,12s-17-4-17-18s10-19,16-25s35-33,35-33l-54-56l-27,27l-35-33l27-29l-7-7l23-23l8,7
		l31-30l37,33l-32,32l52,53l11-7c0,0,3-2,11-2s9,4,27,4s31-9,35-22s7-39-5-52s-17-18-28-21s-21,0-25,2S524.5,368.5,524.5,368.5z"/>
</g>
<g id="Layer_8">
	<g>
		<path class="st3" d="M551.7,904.9c-1.1,3.7-2.4,7.4-3.4,11.2c-1.3,4.9-2.2,9.9-3.4,14.9c-1.2,5.2-0.2,5.8-10,5.8
			c-6.4-0.3-6-0.5-7.1-6.5c-0.3-1.4-0.7-3.8-0.9-5.3c-1.8-11.5-1.9-12.9-3.4-20.6c-0.7-5.9-1.2-7.8-1.6-11.8
			c-0.6-5.3-1.5-10.5-2.2-15.8c-0.7-5.2-1.7-10.6-1.8-16.3c0-4.3,0.5-3.9,9.4-4.7c5.6-0.5,6.1,4.2,6.7,7.5
			c1.2,7.9,1.5,15.9,2.4,23.9c0.1,1.3,0.5,3.3,1.2,4.6c0.6-1.1,2-3,2.6-4.1c5.9-12.9,6.6-12.4,9.9-12.2c3.4,0.3,4.6-0.3,7.6,5.6
			c1.6,3.2,1.5,3.3,2.1,4.4c0.7,1.3,3.1,4.1,4.1,5.2c1.1-1.5,1.1-2.3,1.3-6.3c0.5-7.9,0.7-15.8,0.8-23.7c0.1-6.8,0.1-6.8,6.7-6.8
			c9.6,0,9.6,0,9.6,9.7c0,20.6,0,41.3,0,61.9c0,6.2-1,6.4-7.2,7.3c-8,1.2-8.1,0.2-9.2-1.6c-2.6-4.3-3.4-6-7-13.7
			c-1.3-2.6-2.1-5.7-3.4-8.6c-0.6-1.2-1.4-2.9-2.1-4.1C552.7,904.7,552.4,904.3,551.7,904.9z"/>
		<path class="st3" d="M432.5,893.4c-1.8,9.1-3.8,18.2-5.3,27.4c-1.8,7.1-2.1,9.3-9.7,6.9c-2.1-0.9-5.7-1.7-6.4-3.8
			c-0.9-2.6,0.7-7.3,1.2-10.2c1.4-8.3,3.5-16.5,4.6-24.9c1.5-11,4-23.8,5-34.9c1.1-9,1.9-8.2,12.4-5.8c0.9,0.4,2,0.6,2.9,0.7
			c6.8,1.2,7,1.6,7.7,8.5c0.9,8.9,2.1,17.8,3.3,26.8c0.1,0.7,2.7,5.2,3.4,5.5c0.5,0.2,1.2-3.2,1.4-3.8c0.8-3.3,1.3-4.3,1.5-5.6
			c1.6-7.9,2.3-13.2,3.6-21.7c1.2-5.6,1.4-6.5,7.6-5.1c0.5,0.2,0.9,0.3,1.4,0.4c2.2,0.4,6.4,0.2,6.4,1.1c0,4.6,0.1,7-0.3,10.2
			c-0.4,3.7-1.2,6.8-1.7,10.5c-2.3,14.2-4.4,28.5-6.7,42.7c-0.7,4.2-1.1,8.7-3.1,12.3c-0.9,1.7-5.4,1.9-8.2,1.8
			c-2.7-0.1-5.4-1.4-8-2.2c-0.7-0.2-1.6-0.7-1.9-1.3c-1.5-2.8-2.1-5.7-2.7-8.4c-1.9-9.3-4.7-17.1-6-25.5c-0.1-0.4-0.5-0.8-0.7-1.2
			C433.6,893.5,433.1,893.4,432.5,893.4z"/>
		<path class="st3" d="M354.5,877c-2.6-0.9-3.3-0.7-8.2-3.5c-0.4-0.2-1.9-0.4-3.8-1c-1-0.2-2.2-0.5-4.6-1.1
			c-2.7-0.7-4.9,0.7-5.8,4.3c-1.5,5.8-4.3,11.3-6.9,16.8c-0.5,1.2-2.4,2.7-3.5,2.5c-3.8-0.5-8.4-0.7-10.8-3
			c-1.6-1.6-0.5-6.6,0.3-9.9c0.6-2.7,2.6-5.1,3.8-7.7c1-2.2,1.8-4.5,2.7-6.7c0.2-0.6,0.8-1,1-1.5c2.3-7.1,4-14.5,7.1-21.1
			c2.9-6.2,5.3-12.4,6.6-19.1c0.5-2.5,3.3-5.5,5.7-6.3c2.5-0.8,5.9,0.5,8.8,1.3c5.2,1.5,10.3,3.2,15.4,5c2.2,0.8,1.8,0.6,3.9,1.5
			c0.3,0.1,3.1,1.7,3.4,1.7c8.7,1.8,8.5,6.8,8.8,11.4c0.1,2-0.5,3.7-1.2,6.4c-0.4,1.6-1.5,3.2-1.9,4.8c-0.9,3.4-1.1,2.5-3,7.6
			c-1.4,2.1-1.7,3.8-2.1,5C366.6,875.2,365.9,876.6,354.5,877z M354.6,841.8c-1.4-0.3-3.1-1.1-4.3-1.6c-3.3-0.7-4.6,0-5.8,3.7
			c-0.8,2.6-2,5.4-2.4,8.1c-0.6,4.2,3.9,5.6,6.4,6.5c2.1,0.8,5.3,2.8,7.5-2.4c0.5-0.5,1.7-3.8,1.9-4.4c1.1-2.8,2.2-5.2,1.9-6.5
			C358.9,843.7,356.9,842.6,354.6,841.8z"/>
		<path class="st3" d="M666.3,854.6c-3.9,0.8-3.6,1.6-6.2-3.6c-0.8-1.6-2.6-2.9-8.2-1.1c-2.3,0.7-3.9,1.6-6.2,2.1
			c-3.7,0.8-4.4,5.4-2.8,7c2.7,7.8,4,11.1,6.1,16.6c2.5,6.5,4.3,13.3,6.9,19.8c1.3,3.2,5.3,1.9,8.7,1.2c1.6-0.3,1.5-0.6,1.9-0.6
			c5.8-1.4,6-3.2,5.5-7.7c-0.1-0.7,0.7-1.9,1.4-2.2c3.2-1.3,6.5-2.6,9.9-3.3c1.3-0.3,3.9,0.9,4.2,1.9c1.9,6.4,3.5,13.1,0.1,19.5
			c-0.9,1.7-3.3,3-5.4,3.7c-4.7,1.8-9.8,2.8-14.5,4.6c-10.5,3.2-13.8,5.2-21.6,0.5c-1.2-0.7-3.1-3.6-5.3-8c-1.6-3.9-1.6-3.1-3.1-7.8
			c-0.9-2.6-1.3-2.8-2-5.4c-1.8-7.6-3.6-12-6.5-22.4c-2.7-10.2-3.2-10.9-3.1-21.1c0.3-7.5,7-8.3,12.3-10.4
			c5.8-2.3,11.6-4.7,17.7-6.5c2.6-0.7,5.7,0,8.6,0.4c1,0.1,2.3,1.1,4.5,4.2c3.1,5.4,2.6,4.1,4.3,7.6c1,2.4,1.5,4,1.3,5.6
			C674.1,853.2,674.6,852,666.3,854.6z"/>
		<path class="st3" d="M623.8,917.4c1.5,5.3,0.5,5.2-5.7,7.1c-3.9,0.9-8.1,3.3-9.7,0.7c-2.1-3.3-4.2-9.6-4.5-15c0.1-0.3,0.7-1,1-1.1
			c5.9-2.5,7.1-2.9,13.7-3.3c1.6,2.5,2.8,4.7,4.1,7.3C623.4,915.8,623.5,915.1,623.8,917.4z"/>
		<path class="st3" d="M385.6,899.1c7.5,1.3,7.6,0.5,7.5,7c-1.6,10.1-2.3,11.7-7.1,11.6c-4-0.1-12.2-3.9-11.5-6.7
			C377.2,900,377.1,897.2,385.6,899.1z"/>
		<path class="st3" d="M492.1,935.3c-4.9-0.6-6.5-0.7-6.9-2.1c-1.1-4.2-1.7-9-0.6-13.1c1.2-4.4,2.8-3.6,11.1-2.2
			c1.9,0.3,4.1,1.3,4.4,3.7c0.4,4.1,0.2,8.3-0.8,12.3C498.9,934.9,498.4,935.3,492.1,935.3z"/>
		<path class="st3" d="M722.3,874.4c0.6,0.8,1.7,2.8,2.4,4.4c1,2.3,2.1,4.5,2.5,7c0.6,4.2,1.8,3.8-4.5,6.6c-2,0.9-2.8,1-7.5,1.6
			c-1.5-0.8-1.4-1.4-3.3-5.1c-1-2.6-2-6.2-2.3-7.1c-1.5-4.4-0.8-4.3,5-6C717.7,874.7,720.6,873.1,722.3,874.4z"/>
		<path class="st3" d="M328.1,888.2c-0.1-0.1-0.2-0.1-0.3-0.2c0.1-0.1,0.1-0.3,0.2-0.3c0.1,0,0.2,0.1,0.3,0.1
			C328.2,888,328.1,888.1,328.1,888.2z"/>
	</g>
</g>
</svg>
