<?xml version="1.0" encoding="UTF-8" standalone="no"?>
<svg
   xmlns:dc="http://purl.org/dc/elements/1.1/"
   xmlns:cc="http://creativecommons.org/ns#"
   xmlns:rdf="http://www.w3.org/1999/02/22-rdf-syntax-ns#"
   xmlns:svg="http://www.w3.org/2000/svg"
   xmlns="http://www.w3.org/2000/svg"
   xmlns:sodipodi="http://sodipodi.sourceforge.net/DTD/sodipodi-0.dtd"
   xmlns:inkscape="http://www.inkscape.org/namespaces/inkscape"
   width="92.990761mm"
   height="92.990761mm"
   viewBox="0 0 92.990761 92.990761"
   version="1.1"
   id="svg1347"
   inkscape:version="1.0.1 (3bc2e813f5, 2020-09-07)"
   sodipodi:docname="micro.svg">
  <defs
     id="defs1341" />
  <sodipodi:namedview
     id="base"
     pagecolor="#ffffff"
     bordercolor="#666666"
     borderopacity="1.0"
     inkscape:pageopacity="0.0"
     inkscape:pageshadow="2"
     inkscape:zoom="1.4"
     inkscape:cx="288.93194"
     inkscape:cy="124.34996"
     inkscape:document-units="mm"
     inkscape:current-layer="layer1"
     inkscape:document-rotation="0"
     showgrid="false"
     inkscape:window-width="1920"
     inkscape:window-height="1043"
     inkscape:window-x="0"
     inkscape:window-y="0"
     inkscape:window-maximized="1" />
  <metadata
     id="metadata1344">
    <rdf:RDF>
      <cc:Work
         rdf:about="">
        <dc:format>image/svg+xml</dc:format>
        <dc:type
           rdf:resource="http://purl.org/dc/dcmitype/StillImage" />
        <dc:title></dc:title>
      </cc:Work>
    </rdf:RDF>
  </metadata>
  <g
     inkscape:label="Layer 1"
     inkscape:groupmode="layer"
     id="layer1"
     transform="translate(-65.445302,-69.248913)">
    <path
       class="st3"
       d="m 117.8328,89.980013 c 0,0 4.12507,-11.000177 12.37519,-11.000177 8.25015,0 17.18778,3.781312 21.6566,9.968911 4.46882,6.187599 9.62515,18.219033 4.12506,27.844193 -5.50009,9.62515 -11.00017,12.71894 -19.2503,12.71894 -8.25013,0 -13.75022,-3.43754 -15.12525,-4.12505 l -2.40629,1.71877 17.8753,18.21905 c 2.40628,2.75005 1.37503,5.50009 -0.68751,7.56263 -2.06254,2.06252 -5.84385,1.37501 -7.56263,-0.34377 l -15.81275,-15.46899 c 0,0 -9.62516,11.68768 -12.71896,15.12523 -3.093798,3.43756 -4.125069,4.46883 -6.531357,4.12508 -2.406291,-0.34375 -5.843849,-1.37503 -5.843849,-6.18761 0,-4.81257 3.437558,-6.53135 5.500088,-8.59389 2.062533,-2.06253 12.031448,-11.34392 12.031448,-11.34392 l -18.562802,-19.25031 -9.281394,9.28139 -12.031445,-11.34393 9.281393,-9.968897 -2.406279,-2.406292 7.90637,-7.906381 2.75005,2.40629 10.65642,-10.312666 12.718957,11.343932 -11.000185,11.000184 17.875305,18.21903 3.7813,-2.40629 c 0,0 1.03125,-0.6875 3.78131,-0.6875 2.75004,0 3.09381,1.37501 9.2814,1.37501 6.18761,0 10.65642,-3.09381 12.03145,-7.56261 1.37501,-4.46882 2.40629,-13.406467 -1.71878,-17.875289 -4.12506,-4.468823 -5.84384,-6.187602 -9.62516,-7.218866 -3.78131,-1.031268 -7.21887,0 -8.59387,0.687509 -1.37504,0.687512 -4.46883,2.406289 -4.46883,2.406289 z"
       id="path435"
       style="display:inline;fill:#e5321e;fill-opacity:1;stroke-width:0.343753" />
  </g>
</svg>
