<?xml version="1.0" encoding="UTF-8" standalone="no"?>
<svg
   xmlns:dc="http://purl.org/dc/elements/1.1/"
   xmlns:cc="http://creativecommons.org/ns#"
   xmlns:rdf="http://www.w3.org/1999/02/22-rdf-syntax-ns#"
   xmlns:svg="http://www.w3.org/2000/svg"
   xmlns="http://www.w3.org/2000/svg"
   xmlns:xlink="http://www.w3.org/1999/xlink"
   xmlns:sodipodi="http://sodipodi.sourceforge.net/DTD/sodipodi-0.dtd"
   xmlns:inkscape="http://www.inkscape.org/namespaces/inkscape"
   version="1.1"
   x="0px"
   y="0px"
   viewBox="0 0 1024 1024"
   xml:space="preserve"
   id="svg459"
   sodipodi:docname="nano.svg"
   inkscape:version="1.0.1 (3bc2e813f5, 2020-09-07)"
   style="enable-background:new 0 0 1024 1024;"><metadata
   id="metadata465"><rdf:RDF><cc:Work
       rdf:about=""><dc:format>image/svg+xml</dc:format><dc:type
         rdf:resource="http://purl.org/dc/dcmitype/StillImage" /><dc:title /></cc:Work></rdf:RDF></metadata><defs
   id="defs463" /><sodipodi:namedview
   pagecolor="#ffffff"
   bordercolor="#666666"
   borderopacity="1"
   objecttolerance="10"
   gridtolerance="10"
   guidetolerance="10"
   inkscape:pageopacity="0"
   inkscape:pageshadow="2"
   inkscape:window-width="1920"
   inkscape:window-height="1043"
   id="namedview461"
   showgrid="false"
   inkscape:pagecheckerboard="true"
   inkscape:zoom="0.38916016"
   inkscape:cx="-177.37702"
   inkscape:cy="476.64734"
   inkscape:window-x="0"
   inkscape:window-y="0"
   inkscape:window-maximized="1"
   inkscape:current-layer="svg459"
   inkscape:document-rotation="0" />
<style
   type="text/css"
   id="style2">
	.st0{display:none;}
	.st1{fill:#E5321E;}
	.st2{display:inline;}
	.st3{fill:#FFFFFF;}
</style>
<polygon
   class="st1"
   points="511.3,168.3 461.2,207.8 482.5,147.7 429.5,112.2 493.2,113.9 510.6,52.5 528.7,113.6 592.4,111.2 539.9,147.3 561.9,207.1 "
   id="polygon10-3"
   style="display:none;fill:#e5321e;stroke:#000000;stroke-width:27.7;stroke-miterlimit:4;stroke-dasharray:none;stroke-opacity:1"
   transform="matrix(1.0359943,0,0,1.0359943,-20.059907,-2.0059239)" /><circle
   style="display:inline;stroke:#e5321e;stroke-width:44.6416;stroke-miterlimit:4;stroke-dasharray:none;stroke-opacity:1"
   id="path1312"
   cx="512.80377"
   cy="601.39038"
   r="400.75653" /><g
   id="Layer_1"
   class="st0">
	
		<image
   sodipodi:absref="/home/user/Downloads/TWQQUwoq_400x400.jpg"
   xlink:href="../../Downloads/TWQQUwoq_400x400.jpg"
   style="overflow:visible"
   width="400"
   height="400"
   transform="matrix(2.304,0,0,2.304,51.2,51.225)"
   id="image4">
	</image>
</g>
<g
   id="Layer_9"
   transform="matrix(1.0359943,0,0,1.0359943,-18.373276,-1.8855159)"
   style="display:none">
</g>
<g
   id="Layer_2"
   transform="matrix(1.0533106,0,0,1.0533106,-28.719228,6.9974009)"
   style="display:inline">
	<path
   class="st1"
   d="M 915.1,479.2 C 909.8,452.7 902,426.7 891.6,401.8 870.9,351.9 840.3,306.2 802,268 763.8,229.8 718,199.2 668.1,178.6 c -25,-10.3 -50.9,-18.2 -77.4,-23.4 -9.3,-1.8 -18.6,-3.3 -28,-4.5 l 22.9,19.4 c 0.7,0.1 1.4,0.3 2.1,0.4 25.5,5.1 50.5,12.6 74.5,22.6 48,19.9 92,49.4 128.7,86.1 36.7,36.8 66.2,80.8 86,128.8 9.9,24 17.5,49 22.5,74.4 5,25.5 7.6,51.4 7.6,77.4 -0.2,6.5 -0.2,13 -0.1,19.5 -0.2,6.5 -0.5,13 -0.9,19.5 -0.1,1.6 -0.3,3.2 -0.5,4.9 l -0.6,4.8 -1.2,9.7 c -0.1,0.8 -0.2,1.6 -0.3,2.4 l -0.4,2.4 -0.9,4.8 -1.7,9.6 c -5.1,25.5 -12.7,50.6 -22.6,74.6 -19.9,48.1 -49.5,92.2 -86.3,129 -36.8,36.8 -80.9,66.3 -129,86.2 -24,10 -49.1,17.5 -74.6,22.6 -25.5,5 -51.5,7.6 -77.6,7.6 -26,0 -52,-2.6 -77.6,-7.7 -25.5,-5.1 -50.5,-12.6 -74.6,-22.6 C 310,907.2 266,877.7 229.2,840.9 192.4,804.1 162.9,760 143.1,712 c -9.9,-24 -17.5,-49 -22.6,-74.5 -5,-25.5 -7.6,-51.5 -7.6,-77.5 0,-26 2.6,-52 7.6,-77.5 5.1,-25.5 12.6,-50.5 22.6,-74.5 19.9,-48 49.4,-92 86.2,-128.8 36.8,-36.8 80.8,-66.2 128.9,-86.1 23,-9.5 47,-16.9 71.4,-21.9 l 25.7,-20 c -8.6,1.1 -17.1,2.6 -25.6,4.2 -26.5,5.3 -52.4,13.1 -77.4,23.5 -49.9,20.7 -95.6,51.3 -133.7,89.5 -38.2,38.2 -68.7,83.9 -89.4,133.8 -10.3,24.9 -18.2,50.9 -23.4,77.4 -5.2,26.5 -7.8,53.5 -7.9,80.4 0,27 2.7,54 7.9,80.4 5.3,26.5 13.1,52.4 23.5,77.3 20.7,49.9 51.3,95.5 89.4,133.7 38.2,38.1 83.9,68.7 133.7,89.3 24.9,10.3 50.9,18.2 77.3,23.4 26.5,5.2 53.4,7.8 80.4,7.9 27,0 53.9,-2.7 80.4,-7.9 26.5,-5.2 52.4,-13.1 77.3,-23.5 49.8,-20.6 95.5,-51.3 133.6,-89.4 38.1,-38.1 68.7,-83.8 89.3,-133.6 10.3,-24.9 18.2,-50.8 23.4,-77.3 l 1.8,-10 0.9,-5 0.4,-2.5 c 0.1,-0.8 0.2,-1.7 0.3,-2.5 l 1.3,-10 0.6,-5 c 0.2,-1.7 0.5,-3.3 0.6,-5 0.6,-6.7 1.4,-13.4 2.1,-20.1 0.4,-6.7 0.7,-13.5 0.9,-20.2 0,-27.3 -2.7,-54.3 -7.9,-80.8 z"
   id="path8"
   style="display:none" />
	<polygon
   class="st1"
   points="493.2,113.9 510.6,52.5 528.7,113.6 592.4,111.2 539.9,147.3 561.9,207.1 511.3,168.3 461.2,207.8 482.5,147.7 429.5,112.2 "
   id="polygon10"
   transform="translate(-1.6280313,-0.11622458)"
   style="display:none" />
	<path
   class="st1"
   d="m 243.1,859.3 c 71.7,65.8 167,105.9 271.6,105.9 105,0 200.7,-40.4 272.5,-106.7 -22.3,-114.1 -135.6,-200.9 -272,-200.9 -136.6,0 -250.1,87.2 -272.1,201.7 z"
   id="path12"
   style="display:inline" />
	<g
   id="Layer_3"
   class="st0">
		<g
   class="st2"
   id="g18">
			<g
   id="g16">
				<path
   class="st3"
   d="m 446.5,250.5 c 0,14.3 0,28.6 0,42.9 0,34.4 0,68.7 0,103.1 0,41.6 0,83.1 0,124.7 0,35.9 0,71.9 0,107.8 0,17.4 -0.8,35 0,52.4 0,0.2 0,0.5 0,0.7 0,6.4 10,6.4 10,0 0,-14.3 0,-28.6 0,-42.9 0,-34.4 0,-68.7 0,-103.1 0,-41.6 0,-83.1 0,-124.7 0,-35.9 0,-71.9 0,-107.8 0,-17.4 0.8,-35 0,-52.4 0,-0.2 0,-0.5 0,-0.7 0,-6.4 -10,-6.4 -10,0 z"
   id="path14" />
			</g>
		</g>
		<g
   class="st2"
   id="g24">
			<g
   id="g22">
				<path
   class="st3"
   d="m 332.5,294.5 c 0,14 0,28 0,42 0,33.8 0,67.6 0,101.4 0,40.7 0,81.5 0,122.2 0,35.2 0,70.4 0,105.7 0,17.1 -0.8,34.4 0,51.4 0,0.2 0,0.5 0,0.7 0,6.4 10,6.4 10,0 0,-14 0,-28 0,-42 0,-33.8 0,-67.6 0,-101.4 0,-40.7 0,-81.5 0,-122.2 0,-35.2 0,-70.4 0,-105.7 0,-17.1 0.8,-34.4 0,-51.4 0,-0.2 0,-0.5 0,-0.7 0,-6.4 -10,-6.4 -10,0 z"
   id="path20" />
			</g>
		</g>
		<g
   class="st2"
   id="g30">
			<g
   id="g28">
				<path
   class="st3"
   d="m 279.5,339.5 c 0,14.4 0,28.7 0,43.1 0,34.5 0,68.9 0,103.4 0,41.7 0,83.4 0,125.2 0,36.1 0,72.2 0,108.3 0,17.5 -0.7,35.3 0,52.8 0,0.3 0,0.5 0,0.8 0,6.4 10,6.4 10,0 0,-14.4 0,-28.7 0,-43.1 0,-34.5 0,-68.9 0,-103.4 0,-41.7 0,-83.4 0,-125.2 0,-36.1 0,-72.2 0,-108.3 0,-17.5 0.7,-35.3 0,-52.8 0,-0.3 0,-0.5 0,-0.8 0,-6.4 -10,-6.4 -10,0 z"
   id="path26" />
			</g>
		</g>
		<g
   class="st2"
   id="g36">
			<g
   id="g34">
				<path
   class="st3"
   d="m 229.5,405.5 c 0,15 0,30 0,45 0,36 0,72 0,108 0,43.4 0,86.7 0,130.1 0,37.6 0,75.3 0,112.9 0,18.2 -0.7,36.5 0,54.7 0,0.3 0,0.5 0,0.8 0,6.4 10,6.4 10,0 0,-15 0,-30 0,-45 0,-36 0,-72 0,-108 0,-43.4 0,-86.7 0,-130.1 0,-37.6 0,-75.3 0,-112.9 0,-18.2 0.7,-36.5 0,-54.7 0,-0.3 0,-0.5 0,-0.8 0,-6.4 -10,-6.4 -10,0 z"
   id="path32" />
			</g>
		</g>
		<g
   class="st2"
   id="g42">
			<g
   id="g40">
				<path
   class="st3"
   d="m 504.5,247.5 c 0,14.2 0,28.3 0,42.5 0,34 0,68 0,101.9 0,41.1 0,82.2 0,123.3 0,35.4 0,70.8 0,106.2 0,17.2 -0.7,34.7 0,51.9 0,0.2 0,0.5 0,0.7 0,6.4 10,6.4 10,0 0,-14.2 0,-28.3 0,-42.5 0,-34 0,-68 0,-101.9 0,-41.1 0,-82.2 0,-123.3 0,-35.4 0,-70.8 0,-106.2 0,-17.2 0.7,-34.7 0,-51.9 0,-0.2 0,-0.5 0,-0.7 0,-6.4 -10,-6.4 -10,0 z"
   id="path38" />
			</g>
		</g>
		<g
   class="st2"
   id="g48">
			<g
   id="g46">
				<path
   class="st3"
   d="m 177.5,561.5 c 0,26.9 0,53.8 0,80.7 0,42.9 0,85.8 0,128.7 0,9.9 0,19.8 0,29.6 0,6.4 10,6.4 10,0 0,-26.9 0,-53.8 0,-80.7 0,-42.9 0,-85.8 0,-128.7 0,-9.9 0,-19.8 0,-29.6 0,-6.4 -10,-6.4 -10,0 z"
   id="path44" />
			</g>
		</g>
		<g
   class="st2"
   id="g54">
			<g
   id="g52">
				<path
   class="st3"
   d="m 389.5,265.5 c 0,14.2 0,28.3 0,42.5 0,34 0,68 0,101.9 0,41.1 0,82.2 0,123.3 0,35.4 0,70.8 0,106.2 0,17.2 -0.7,34.7 0,51.9 0,0.2 0,0.5 0,0.7 0,6.4 10,6.4 10,0 0,-14.2 0,-28.3 0,-42.5 0,-34 0,-68 0,-101.9 0,-41.1 0,-82.2 0,-123.3 0,-35.4 0,-70.8 0,-106.2 0,-17.2 0.7,-34.7 0,-51.9 0,-0.2 0,-0.5 0,-0.7 0,-6.4 -10,-6.4 -10,0 z"
   id="path50" />
			</g>
		</g>
		<g
   class="st2"
   id="g60">
			<g
   id="g58">
				<path
   class="st3"
   d="m 562.5,250.5 c 0,14.3 0,28.6 0,42.9 0,34.4 0,68.7 0,103.1 0,41.6 0,83.1 0,124.7 0,35.9 0,71.9 0,107.8 0,17.4 -0.8,35 0,52.4 0,0.2 0,0.5 0,0.7 0,6.4 10,6.4 10,0 0,-14.3 0,-28.6 0,-42.9 0,-34.4 0,-68.7 0,-103.1 0,-41.6 0,-83.1 0,-124.7 0,-35.9 0,-71.9 0,-107.8 0,-17.4 0.8,-35 0,-52.4 0,-0.2 0,-0.5 0,-0.7 0,-6.4 -10,-6.4 -10,0 z"
   id="path56" />
			</g>
		</g>
		<g
   class="st2"
   id="g66">
			<g
   id="g64">
				<path
   class="st3"
   d="m 676.5,294.5 c 0,14 0,28 0,42 0,33.8 0,67.6 0,101.4 0,40.7 0,81.5 0,122.2 0,35.2 0,70.4 0,105.7 0,17.1 -0.8,34.4 0,51.4 0,0.2 0,0.5 0,0.7 0,6.4 10,6.4 10,0 0,-14 0,-28 0,-42 0,-33.8 0,-67.6 0,-101.4 0,-40.7 0,-81.5 0,-122.2 0,-35.2 0,-70.4 0,-105.7 0,-17.1 0.8,-34.4 0,-51.4 0,-0.2 0,-0.5 0,-0.7 0,-6.4 -10,-6.4 -10,0 z"
   id="path62" />
			</g>
		</g>
		<g
   class="st2"
   id="g72">
			<g
   id="g70">
				<path
   class="st3"
   d="m 729.5,339.5 c 0,14.4 0,28.7 0,43.1 0,34.5 0,68.9 0,103.4 0,41.7 0,83.4 0,125.2 0,36.1 0,72.2 0,108.3 0,17.5 -0.7,35.3 0,52.8 0,0.3 0,0.5 0,0.8 0,6.4 10,6.4 10,0 0,-14.4 0,-28.7 0,-43.1 0,-34.5 0,-68.9 0,-103.4 0,-41.7 0,-83.4 0,-125.2 0,-36.1 0,-72.2 0,-108.3 0,-17.5 0.7,-35.3 0,-52.8 0,-0.3 0,-0.5 0,-0.8 0,-6.4 -10,-6.4 -10,0 z"
   id="path68" />
			</g>
		</g>
		<g
   class="st2"
   id="g78">
			<g
   id="g76">
				<path
   class="st3"
   d="m 779.5,405.5 c 0,15 0,30 0,45 0,36 0,72 0,108 0,43.4 0,86.7 0,130.1 0,37.6 0,75.3 0,112.9 0,18.2 -0.7,36.5 0,54.7 0,0.3 0,0.5 0,0.8 0,6.4 10,6.4 10,0 0,-15 0,-30 0,-45 0,-36 0,-72 0,-108 0,-43.4 0,-86.7 0,-130.1 0,-37.6 0,-75.3 0,-112.9 0,-18.2 0.7,-36.5 0,-54.7 0,-0.3 0,-0.5 0,-0.8 0,-6.4 -10,-6.4 -10,0 z"
   id="path74" />
			</g>
		</g>
		<g
   class="st2"
   id="g84">
			<g
   id="g82">
				<path
   class="st3"
   d="m 831.5,561.5 c 0,26.9 0,53.8 0,80.7 0,42.9 0,85.8 0,128.7 0,9.9 0,19.8 0,29.6 0,6.4 10,6.4 10,0 0,-26.9 0,-53.8 0,-80.7 0,-42.9 0,-85.8 0,-128.7 0,-9.9 0,-19.8 0,-29.6 0,-6.4 -10,-6.4 -10,0 z"
   id="path80" />
			</g>
		</g>
		<g
   class="st2"
   id="g90">
			<g
   id="g88">
				<path
   class="st3"
   d="m 619.5,265.5 c 0,14.2 0,28.3 0,42.5 0,34 0,68 0,101.9 0,41.1 0,82.2 0,123.3 0,35.4 0,70.8 0,106.2 0,17.2 -0.7,34.7 0,51.9 0,0.2 0,0.5 0,0.7 0,6.4 10,6.4 10,0 0,-14.2 0,-28.3 0,-42.5 0,-34 0,-68 0,-101.9 0,-41.1 0,-82.2 0,-123.3 0,-35.4 0,-70.8 0,-106.2 0,-17.2 0.7,-34.7 0,-51.9 0,-0.2 0,-0.5 0,-0.7 0,-6.4 -10,-6.4 -10,0 z"
   id="path86" />
			</g>
		</g>
	</g>
	<g
   id="Layer_6"
   class="st0">
		<g
   class="st2"
   id="g97">
			<g
   id="g95">
				<path
   class="st3"
   d="m 447.9,252.2 c 0,14.3 0,28.6 0,42.9 0,34.4 0,68.7 0,103.1 0,41.6 0,83.1 0,124.7 0,35.9 0,71.9 0,107.8 0,17.4 -0.8,35 0,52.4 0,0.2 0,0.5 0,0.7 0,6.4 10,6.4 10,0 0,-14.3 0,-28.6 0,-42.9 0,-34.4 0,-68.7 0,-103.1 0,-41.6 0,-83.1 0,-124.7 0,-35.9 0,-71.9 0,-107.8 0,-17.4 0.8,-35 0,-52.4 0,-0.2 0,-0.5 0,-0.7 0,-6.5 -10,-6.5 -10,0 z"
   id="path93" />
			</g>
		</g>
		<g
   class="st2"
   id="g103">
			<g
   id="g101">
				<path
   class="st3"
   d="m 333.9,317.4 c 0,13.4 0,26.7 0,40.1 0,32.1 0,64.1 0,96.2 0,38.6 0,77.2 0,115.8 0,33.5 0,67.1 0,100.6 0,16.2 -0.7,32.7 0,48.9 0,0.2 0,0.5 0,0.7 0,6.4 10,6.4 10,0 0,-13.4 0,-26.7 0,-40.1 0,-32.1 0,-64.1 0,-96.2 0,-38.6 0,-77.2 0,-115.8 0,-33.5 0,-67.1 0,-100.6 0,-16.2 0.7,-32.7 0,-48.9 0,-0.2 0,-0.5 0,-0.7 0,-6.4 -10,-6.4 -10,0 z"
   id="path99" />
			</g>
		</g>
		<g
   class="st2"
   id="g109">
			<g
   id="g107">
				<path
   class="st3"
   d="m 280.9,310.3 c 0,15.4 0,30.8 0,46.1 0,36.9 0,73.9 0,110.8 0,44.7 0,89.4 0,134.1 0,38.7 0,77.3 0,116 0,18.8 -0.7,37.7 0,56.5 0,0.3 0,0.5 0,0.8 0,6.4 10,6.4 10,0 0,-15.4 0,-30.8 0,-46.1 0,-36.9 0,-73.9 0,-110.8 0,-44.7 0,-89.4 0,-134.1 0,-38.7 0,-77.3 0,-116 0,-18.8 0.7,-37.7 0,-56.5 0,-0.3 0,-0.5 0,-0.8 0,-6.4 -10,-6.4 -10,0 z"
   id="path105" />
			</g>
		</g>
		<g
   class="st2"
   id="g115">
			<g
   id="g113">
				<path
   class="st3"
   d="m 230.9,413.4 c 0,14.8 0,29.6 0,44.3 0,35.5 0,71 0,106.5 0,42.8 0,85.5 0,128.3 0,37.1 0,74.2 0,111.3 0,18 -0.8,36.1 0,54.1 0,0.3 0,0.5 0,0.8 0,6.4 10,6.4 10,0 0,-14.8 0,-29.6 0,-44.3 0,-35.5 0,-71 0,-106.5 0,-42.8 0,-85.5 0,-128.3 0,-37.1 0,-74.2 0,-111.3 0,-18 0.8,-36.1 0,-54.1 0,-0.3 0,-0.5 0,-0.8 0,-6.4 -10,-6.4 -10,0 z"
   id="path111" />
			</g>
		</g>
		<g
   class="st2"
   id="g121">
			<g
   id="g119">
				<path
   class="st3"
   d="m 505.9,220.3 c 0,15.1 0,30.2 0,45.3 0,36.2 0,72.5 0,108.7 0,43.9 0,87.7 0,131.6 0,37.9 0,75.8 0,113.8 0,18.4 -0.8,36.9 0,55.3 0,0.3 0,0.5 0,0.8 0,6.4 10,6.4 10,0 0,-15.1 0,-30.2 0,-45.3 0,-36.2 0,-72.5 0,-108.7 0,-43.9 0,-87.7 0,-131.6 0,-37.9 0,-75.8 0,-113.8 0,-18.4 0.8,-36.9 0,-55.3 0,-0.3 0,-0.5 0,-0.8 0,-6.5 -10,-6.5 -10,0 z"
   id="path117" />
			</g>
		</g>
		<g
   class="st2"
   id="g127">
			<g
   id="g125">
				<path
   class="st3"
   d="m 178.9,563.2 c 0,26.9 0,53.8 0,80.7 0,42.9 0,85.8 0,128.7 0,9.9 0,19.8 0,29.6 0,6.4 10,6.4 10,0 0,-26.9 0,-53.8 0,-80.7 0,-42.9 0,-85.8 0,-128.7 0,-9.9 0,-19.8 0,-29.6 0,-6.5 -10,-6.5 -10,0 z"
   id="path123" />
			</g>
		</g>
		<g
   class="st2"
   id="g133">
			<g
   id="g131">
				<path
   class="st3"
   d="m 390.9,241 c 0,15 0,30 0,45 0,36 0,72 0,108 0,43.6 0,87.2 0,130.7 0,37.7 0,75.4 0,113.1 0,18.3 -0.7,36.8 0,55 0,0.3 0,0.5 0,0.8 0,6.4 10,6.4 10,0 0,-15 0,-30 0,-45 0,-36 0,-72 0,-108 0,-43.6 0,-87.2 0,-130.7 0,-37.7 0,-75.4 0,-113.1 0,-18.3 0.7,-36.8 0,-55 0,-0.3 0,-0.5 0,-0.8 0,-6.4 -10,-6.4 -10,0 z"
   id="path129" />
			</g>
		</g>
		<g
   class="st2"
   id="g139">
			<g
   id="g137">
				<path
   class="st3"
   d="m 563.9,252.2 c 0,14.3 0,28.6 0,42.9 0,34.4 0,68.7 0,103.1 0,41.6 0,83.1 0,124.7 0,35.9 0,71.9 0,107.8 0,17.4 -0.8,35 0,52.4 0,0.2 0,0.5 0,0.7 0,6.4 10,6.4 10,0 0,-14.3 0,-28.6 0,-42.9 0,-34.4 0,-68.7 0,-103.1 0,-41.6 0,-83.1 0,-124.7 0,-35.9 0,-71.9 0,-107.8 0,-17.4 0.8,-35 0,-52.4 0,-0.2 0,-0.5 0,-0.7 0,-6.5 -10,-6.5 -10,0 z"
   id="path135" />
			</g>
		</g>
		<g
   class="st2"
   id="g145">
			<g
   id="g143">
				<path
   class="st3"
   d="m 677.9,317.4 c 0,13.4 0,26.7 0,40.1 0,32.1 0,64.1 0,96.2 0,38.6 0,77.2 0,115.8 0,33.5 0,67.1 0,100.6 0,16.2 -0.7,32.7 0,48.9 0,0.2 0,0.5 0,0.7 0,6.4 10,6.4 10,0 0,-13.4 0,-26.7 0,-40.1 0,-32.1 0,-64.1 0,-96.2 0,-38.6 0,-77.2 0,-115.8 0,-33.5 0,-67.1 0,-100.6 0,-16.2 0.7,-32.7 0,-48.9 0,-0.2 0,-0.5 0,-0.7 0,-6.4 -10,-6.4 -10,0 z"
   id="path141" />
			</g>
		</g>
		<g
   class="st2"
   id="g151">
			<g
   id="g149">
				<path
   class="st3"
   d="m 730.9,310.3 c 0,15.4 0,30.8 0,46.1 0,36.9 0,73.9 0,110.8 0,44.7 0,89.4 0,134.1 0,38.7 0,77.3 0,116 0,18.8 -0.7,37.7 0,56.5 0,0.3 0,0.5 0,0.8 0,6.4 10,6.4 10,0 0,-15.4 0,-30.8 0,-46.1 0,-36.9 0,-73.9 0,-110.8 0,-44.7 0,-89.4 0,-134.1 0,-38.7 0,-77.3 0,-116 0,-18.8 0.7,-37.7 0,-56.5 0,-0.3 0,-0.5 0,-0.8 0,-6.4 -10,-6.4 -10,0 z"
   id="path147" />
			</g>
		</g>
		<g
   class="st2"
   id="g157">
			<g
   id="g155">
				<path
   class="st3"
   d="m 780.9,413.4 c 0,14.8 0,29.6 0,44.3 0,35.5 0,71 0,106.5 0,42.8 0,85.5 0,128.3 0,37.1 0,74.2 0,111.3 0,18 -0.8,36.1 0,54.1 0,0.3 0,0.5 0,0.8 0,6.4 10,6.4 10,0 0,-14.8 0,-29.6 0,-44.3 0,-35.5 0,-71 0,-106.5 0,-42.8 0,-85.5 0,-128.3 0,-37.1 0,-74.2 0,-111.3 0,-18 0.8,-36.1 0,-54.1 0,-0.3 0,-0.5 0,-0.8 0,-6.4 -10,-6.4 -10,0 z"
   id="path153" />
			</g>
		</g>
		<g
   class="st2"
   id="g163">
			<g
   id="g161">
				<path
   class="st3"
   d="m 832.9,563.2 c 0,26.9 0,53.8 0,80.7 0,42.9 0,85.8 0,128.7 0,9.9 0,19.8 0,29.6 0,6.4 10,6.4 10,0 0,-26.9 0,-53.8 0,-80.7 0,-42.9 0,-85.8 0,-128.7 0,-9.9 0,-19.8 0,-29.6 0,-6.5 -10,-6.5 -10,0 z"
   id="path159" />
			</g>
		</g>
		<g
   class="st2"
   id="g169">
			<g
   id="g167">
				<path
   class="st3"
   d="m 620.9,241 c 0,15 0,30 0,45 0,36 0,72 0,108 0,43.6 0,87.2 0,130.7 0,37.7 0,75.4 0,113.1 0,18.3 -0.7,36.8 0,55 0,0.3 0,0.5 0,0.8 0,6.4 10,6.4 10,0 0,-15 0,-30 0,-45 0,-36 0,-72 0,-108 0,-43.6 0,-87.2 0,-130.7 0,-37.7 0,-75.4 0,-113.1 0,-18.3 0.7,-36.8 0,-55 0,-0.3 0,-0.5 0,-0.8 0,-6.4 -10,-6.4 -10,0 z"
   id="path165" />
			</g>
		</g>
	</g>
	<g
   id="Layer_4"
   class="st0">
		<g
   class="st2"
   id="g176">
			<g
   id="g174">
				<path
   class="st3"
   d="m 448.2,247.5 c 0,14.3 0,28.6 0,42.9 0,34.4 0,68.7 0,103.1 0,41.6 0,83.1 0,124.7 0,35.9 0,71.9 0,107.8 0,17.4 -0.8,35 0,52.4 0,0.2 0,0.5 0,0.7 0,6.4 10,6.4 10,0 0,-14.3 0,-28.6 0,-42.9 0,-34.4 0,-68.7 0,-103.1 0,-41.6 0,-83.1 0,-124.7 0,-35.9 0,-71.9 0,-107.8 0,-17.4 0.8,-35 0,-52.4 0,-0.2 0,-0.5 0,-0.7 0,-6.4 -10,-6.4 -10,0 z"
   id="path172" />
			</g>
		</g>
		<g
   class="st2"
   id="g182">
			<g
   id="g180">
				<path
   class="st3"
   d="m 334.2,247.5 c 0,15.5 0,31 0,46.5 0,37.2 0,74.4 0,111.6 0,45 0,90 0,135 0,38.9 0,77.8 0,116.8 0,18.9 -0.8,37.9 0,56.8 0,0.3 0,0.5 0,0.8 0,6.4 10,6.4 10,0 0,-15.5 0,-31 0,-46.5 0,-37.2 0,-74.4 0,-111.6 0,-45 0,-90 0,-135 0,-38.9 0,-77.8 0,-116.8 0,-18.9 0.8,-37.9 0,-56.8 0,-0.3 0,-0.5 0,-0.8 0,-6.4 -10,-6.4 -10,0 z"
   id="path178" />
			</g>
		</g>
		<g
   class="st2"
   id="g188">
			<g
   id="g186">
				<path
   class="st3"
   d="m 281.2,286.3 c 0,16.1 0,32.2 0,48.3 0,38.5 0,76.9 0,115.4 0,46.5 0,93 0,139.5 0,40.3 0,80.7 0,121 0,19.5 -0.8,39.1 0,58.6 0,0.3 0,0.6 0,0.8 0,6.4 10,6.4 10,0 0,-16.1 0,-32.2 0,-48.3 0,-38.5 0,-76.9 0,-115.4 0,-46.5 0,-93 0,-139.5 0,-40.3 0,-80.7 0,-121 0,-19.5 0.8,-39.1 0,-58.6 0,-0.3 0,-0.6 0,-0.8 0,-6.4 -10,-6.4 -10,0 z"
   id="path184" />
			</g>
		</g>
		<g
   class="st2"
   id="g194">
			<g
   id="g192">
				<path
   class="st3"
   d="m 231.2,351.2 c 0,16.7 0,33.4 0,50.1 0,40.1 0,80.1 0,120.2 0,48.3 0,96.6 0,144.9 0,41.9 0,83.8 0,125.7 0,20.3 -0.8,40.8 0,61 0,0.3 0,0.6 0,0.8 0,6.4 10,6.4 10,0 0,-16.7 0,-33.4 0,-50.1 0,-40.1 0,-80.1 0,-120.2 0,-48.3 0,-96.6 0,-144.9 0,-41.9 0,-83.8 0,-125.7 0,-20.3 0.8,-40.8 0,-61 0,-0.3 0,-0.6 0,-0.8 0,-6.4 -10,-6.4 -10,0 z"
   id="path190" />
			</g>
		</g>
		<g
   class="st2"
   id="g200">
			<g
   id="g198">
				<path
   class="st3"
   d="m 506.2,207.8 c 0,15.4 0,30.8 0,46.3 0,36.9 0,73.7 0,110.6 0,44.6 0,89.1 0,133.7 0,38.5 0,77.1 0,115.6 0,18.7 -0.7,37.6 0,56.3 0,0.3 0,0.5 0,0.8 0,6.4 10,6.4 10,0 0,-15.4 0,-30.8 0,-46.3 0,-36.9 0,-73.7 0,-110.6 0,-44.6 0,-89.1 0,-133.7 0,-38.5 0,-77.1 0,-115.6 0,-18.7 0.7,-37.6 0,-56.3 0,-0.3 0,-0.5 0,-0.8 0,-6.5 -10,-6.5 -10,0 z"
   id="path196" />
			</g>
		</g>
		<g
   class="st2"
   id="g206">
			<g
   id="g204">
				<path
   class="st3"
   d="m 179.2,490.3 c 0,34.6 0,69.3 0,103.9 0,55.2 0,110.3 0,165.5 0,12.6 0,25.2 0,37.8 0,6.4 10,6.4 10,0 0,-34.6 0,-69.3 0,-103.9 0,-55.2 0,-110.3 0,-165.5 0,-12.6 0,-25.2 0,-37.8 0,-6.4 -10,-6.4 -10,0 z"
   id="path202" />
			</g>
		</g>
		<g
   class="st2"
   id="g212">
			<g
   id="g210">
				<path
   class="st3"
   d="m 391.2,224.1 c 0,15.5 0,30.9 0,46.4 0,37 0,73.9 0,110.9 0,44.9 0,89.7 0,134.6 0,38.6 0,77.3 0,115.9 0,18.7 -0.7,37.7 0,56.4 0,0.3 0,0.5 0,0.8 0,6.4 10,6.4 10,0 0,-15.5 0,-30.9 0,-46.4 0,-37 0,-73.9 0,-110.9 0,-44.9 0,-89.7 0,-134.6 0,-38.6 0,-77.3 0,-115.9 0,-18.7 0.7,-37.7 0,-56.4 0,-0.3 0,-0.5 0,-0.8 0,-6.4 -10,-6.4 -10,0 z"
   id="path208" />
			</g>
		</g>
		<g
   class="st2"
   id="g218">
			<g
   id="g216">
				<path
   class="st3"
   d="m 564,247.5 c 0,14.3 0,28.6 0,42.9 0,34.4 0,68.7 0,103.1 0,41.6 0,83.1 0,124.7 0,35.9 0,71.9 0,107.8 0,17.4 -0.8,35 0,52.4 0,0.2 0,0.5 0,0.7 0,6.4 10,6.4 10,0 0,-14.3 0,-28.6 0,-42.9 0,-34.4 0,-68.7 0,-103.1 0,-41.6 0,-83.1 0,-124.7 0,-35.9 0,-71.9 0,-107.8 0,-17.4 0.8,-35 0,-52.4 0,-0.2 0,-0.5 0,-0.7 0,-6.4 -10,-6.4 -10,0 z"
   id="path214" />
			</g>
		</g>
		<g
   class="st2"
   id="g224">
			<g
   id="g222">
				<path
   class="st3"
   d="m 678,247.5 c 0,15.5 0,31 0,46.5 0,37.2 0,74.4 0,111.6 0,45 0,90 0,135 0,38.9 0,77.8 0,116.8 0,18.9 -0.8,37.9 0,56.8 0,0.3 0,0.5 0,0.8 0,6.4 10,6.4 10,0 0,-15.5 0,-31 0,-46.5 0,-37.2 0,-74.4 0,-111.6 0,-45 0,-90 0,-135 0,-38.9 0,-77.8 0,-116.8 0,-18.9 0.8,-37.9 0,-56.8 0,-0.3 0,-0.5 0,-0.8 0,-6.4 -10,-6.4 -10,0 z"
   id="path220" />
			</g>
		</g>
		<g
   class="st2"
   id="g230">
			<g
   id="g228">
				<path
   class="st3"
   d="m 731,286.3 c 0,16.1 0,32.2 0,48.3 0,38.5 0,76.9 0,115.4 0,46.5 0,93 0,139.5 0,40.3 0,80.7 0,121 0,19.5 -0.8,39.1 0,58.6 0,0.3 0,0.6 0,0.8 0,6.4 10,6.4 10,0 0,-16.1 0,-32.2 0,-48.3 0,-38.5 0,-76.9 0,-115.4 0,-46.5 0,-93 0,-139.5 0,-40.3 0,-80.7 0,-121 0,-19.5 0.8,-39.1 0,-58.6 0,-0.3 0,-0.6 0,-0.8 0,-6.4 -10,-6.4 -10,0 z"
   id="path226" />
			</g>
		</g>
		<g
   class="st2"
   id="g236">
			<g
   id="g234">
				<path
   class="st3"
   d="m 781,351.2 c 0,16.7 0,33.4 0,50.1 0,40.1 0,80.1 0,120.2 0,48.3 0,96.6 0,144.9 0,41.9 0,83.8 0,125.7 0,20.3 -0.8,40.8 0,61 0,0.3 0,0.6 0,0.8 0,6.4 10,6.4 10,0 0,-16.7 0,-33.4 0,-50.1 0,-40.1 0,-80.1 0,-120.2 0,-48.3 0,-96.6 0,-144.9 0,-41.9 0,-83.8 0,-125.7 0,-20.3 0.8,-40.8 0,-61 0,-0.3 0,-0.6 0,-0.8 0,-6.4 -10,-6.4 -10,0 z"
   id="path232" />
			</g>
		</g>
		<g
   class="st2"
   id="g242">
			<g
   id="g240">
				<path
   class="st3"
   d="m 506,207.8 c 0,15.4 0,30.8 0,46.3 0,36.9 0,73.7 0,110.6 0,44.6 0,89.1 0,133.7 0,38.5 0,77.1 0,115.6 0,18.7 -0.7,37.6 0,56.3 0,0.3 0,0.5 0,0.8 0,6.4 10,6.4 10,0 0,-15.4 0,-30.8 0,-46.3 0,-36.9 0,-73.7 0,-110.6 0,-44.6 0,-89.1 0,-133.7 0,-38.5 0,-77.1 0,-115.6 0,-18.7 0.7,-37.6 0,-56.3 0,-0.3 0,-0.5 0,-0.8 0,-6.5 -10,-6.5 -10,0 z"
   id="path238" />
			</g>
		</g>
		<g
   class="st2"
   id="g248">
			<g
   id="g246">
				<path
   class="st3"
   d="m 833,490.3 c 0,34.6 0,69.3 0,103.9 0,55.2 0,110.3 0,165.5 0,12.6 0,25.2 0,37.8 0,6.4 10,6.4 10,0 0,-34.6 0,-69.3 0,-103.9 0,-55.2 0,-110.3 0,-165.5 0,-12.6 0,-25.2 0,-37.8 0,-6.4 -10,-6.4 -10,0 z"
   id="path244" />
			</g>
		</g>
		<g
   class="st2"
   id="g254">
			<g
   id="g252">
				<path
   class="st3"
   d="m 621,224.1 c 0,15.5 0,30.9 0,46.4 0,37 0,73.9 0,110.9 0,44.9 0,89.7 0,134.6 0,38.6 0,77.3 0,115.9 0,18.7 -0.7,37.7 0,56.4 0,0.3 0,0.5 0,0.8 0,6.4 10,6.4 10,0 0,-15.5 0,-30.9 0,-46.4 0,-37 0,-73.9 0,-110.9 0,-44.9 0,-89.7 0,-134.6 0,-38.6 0,-77.3 0,-115.9 0,-18.7 0.7,-37.7 0,-56.4 0,-0.3 0,-0.5 0,-0.8 0,-6.4 -10,-6.4 -10,0 z"
   id="path250" />
			</g>
		</g>
	</g>
	<g
   id="Layer_5"
   class="st0">
		<g
   class="st2"
   id="g261">
			<g
   id="g259">
				<path
   class="st3"
   d="m 448.2,233.3 c 0,15.7 0,31.5 0,47.2 0,37.8 0,75.5 0,113.3 0,45.7 0,91.4 0,137.1 0,39.5 0,79 0,118.5 0,19.1 -0.8,38.4 0,57.6 0,0.3 0,0.5 0,0.8 0,6.4 10,6.4 10,0 0,-15.7 0,-31.5 0,-47.2 0,-37.8 0,-75.5 0,-113.3 0,-45.7 0,-91.4 0,-137.1 0,-39.5 0,-79 0,-118.5 0,-19.1 0.8,-38.4 0,-57.6 0,-0.3 0,-0.5 0,-0.8 0,-6.4 -10,-6.4 -10,0 z"
   id="path257" />
			</g>
		</g>
		<g
   class="st2"
   id="g267">
			<g
   id="g265">
				<path
   class="st3"
   d="m 334.2,306.8 c 0,14.5 0,28.9 0,43.4 0,34.8 0,69.5 0,104.3 0,42.1 0,84.1 0,126.2 0,36.4 0,72.8 0,109.2 0,17.7 -0.7,35.5 0,53.2 0,0.3 0,0.5 0,0.8 0,6.4 10,6.4 10,0 0,-14.5 0,-28.9 0,-43.4 0,-34.8 0,-69.5 0,-104.3 0,-42.1 0,-84.1 0,-126.2 0,-36.4 0,-72.8 0,-109.2 0,-17.7 0.7,-35.5 0,-53.2 0,-0.3 0,-0.5 0,-0.8 0,-6.5 -10,-6.5 -10,0 z"
   id="path263" />
			</g>
		</g>
		<g
   class="st2"
   id="g273">
			<g
   id="g271">
				<path
   class="st3"
   d="m 281.2,362.8 c 0,14.4 0,28.8 0,43.2 0,34.4 0,68.7 0,103.1 0,41.5 0,83.1 0,124.6 0,35.9 0,71.9 0,107.8 0,17.5 -0.7,35.1 0,52.6 0,0.3 0,0.5 0,0.8 0,6.4 10,6.4 10,0 0,-14.4 0,-28.8 0,-43.2 0,-34.4 0,-68.7 0,-103.1 0,-41.5 0,-83.1 0,-124.6 0,-35.9 0,-71.9 0,-107.8 0,-17.5 0.7,-35.1 0,-52.6 0,-0.3 0,-0.5 0,-0.8 0,-6.5 -10,-6.5 -10,0 z"
   id="path269" />
			</g>
		</g>
		<g
   class="st2"
   id="g279">
			<g
   id="g277">
				<path
   class="st3"
   d="m 231.2,412.6 c 0,14.7 0,29.4 0,44.1 0,35.2 0,70.3 0,105.5 0,42.7 0,85.4 0,128.1 0,36.8 0,73.6 0,110.3 0,17.9 -0.8,36 0,53.9 0,0.3 0,0.5 0,0.8 0,6.4 10,6.4 10,0 0,-14.7 0,-29.4 0,-44.1 0,-35.2 0,-70.3 0,-105.5 0,-42.7 0,-85.4 0,-128.1 0,-36.8 0,-73.6 0,-110.3 0,-17.9 0.8,-36 0,-53.9 0,-0.3 0,-0.5 0,-0.8 0,-6.5 -10,-6.5 -10,0 z"
   id="path275" />
			</g>
		</g>
		<g
   class="st2"
   id="g285">
			<g
   id="g283">
				<path
   class="st3"
   d="m 506.2,236.5 c 0,15.4 0,30.8 0,46.3 0,36.9 0,73.7 0,110.6 0,44.6 0,89.1 0,133.7 0,38.5 0,77.1 0,115.6 0,18.7 -0.7,37.6 0,56.3 0,0.3 0,0.5 0,0.8 0,6.4 10,6.4 10,0 0,-15.4 0,-30.8 0,-46.3 0,-36.9 0,-73.7 0,-110.6 0,-44.6 0,-89.1 0,-133.7 0,-38.5 0,-77.1 0,-115.6 0,-18.7 0.7,-37.6 0,-56.3 0,-0.3 0,-0.5 0,-0.8 0,-6.4 -10,-6.4 -10,0 z"
   id="path281" />
			</g>
		</g>
		<g
   class="st2"
   id="g291">
			<g
   id="g289">
				<path
   class="st3"
   d="m 178,522.9 c 0,30.4 0,60.8 0,91.3 0,48.1 0,96.2 0,144.3 0,11.1 0,22.3 0,33.4 0,6.4 10,6.4 10,0 0,-30.4 0,-60.8 0,-91.3 0,-48.1 0,-96.2 0,-144.3 0,-11.1 0,-22.3 0,-33.4 0,-6.5 -10,-6.5 -10,0 z"
   id="path287" />
			</g>
		</g>
		<g
   class="st2"
   id="g297">
			<g
   id="g295">
				<path
   class="st3"
   d="m 391.2,263.8 c 0,15.1 0,30.1 0,45.2 0,36.2 0,72.3 0,108.5 0,43.7 0,87.5 0,131.2 0,37.8 0,75.6 0,113.4 0,18.2 -0.8,36.7 0,54.9 0,0.3 0,0.5 0,0.8 0,6.4 10,6.4 10,0 0,-15.1 0,-30.1 0,-45.2 0,-36.2 0,-72.3 0,-108.5 0,-43.7 0,-87.5 0,-131.2 0,-37.8 0,-75.6 0,-113.4 0,-18.2 0.8,-36.7 0,-54.9 0,-0.3 0,-0.5 0,-0.8 0,-6.4 -10,-6.4 -10,0 z"
   id="path293" />
			</g>
		</g>
		<g
   class="st2"
   id="g303">
			<g
   id="g301">
				<path
   class="st3"
   d="m 506,218.5 c 0,14.5 0,28.9 0,43.4 0,34.8 0,69.5 0,104.3 0,42.1 0,84.1 0,126.2 0,36.4 0,72.8 0,109.1 0,17.7 -0.7,35.5 0,53.1 0,0.3 0,0.5 0,0.8 0,6.4 10,6.4 10,0 0,-14.5 0,-28.9 0,-43.4 0,-34.8 0,-69.5 0,-104.3 0,-42.1 0,-84.1 0,-126.2 0,-36.4 0,-72.8 0,-109.1 0,-17.7 0.7,-35.5 0,-53.1 0,-0.3 0,-0.5 0,-0.8 0,-6.5 -10,-6.5 -10,0 z"
   id="path299" />
			</g>
		</g>
		<g
   class="st2"
   id="g309">
			<g
   id="g307">
				<path
   class="st3"
   d="m 134.2,453.9 c 0,29.9 0,59.8 0,89.6 0,47.2 0,94.4 0,141.6 0,10.9 0,21.7 0,32.6 0,6.4 10,6.4 10,0 0,-29.9 0,-59.8 0,-89.6 0,-47.2 0,-94.4 0,-141.6 0,-10.9 0,-21.7 0,-32.6 0,-6.4 -10,-6.5 -10,0 z"
   id="path305" />
			</g>
		</g>
		<g
   class="st2"
   id="g315">
			<g
   id="g313">
				<path
   class="st3"
   d="m 506.2,236.5 c 0,15.4 0,30.8 0,46.3 0,36.9 0,73.7 0,110.6 0,44.6 0,89.1 0,133.7 0,38.5 0,77.1 0,115.6 0,18.7 -0.7,37.6 0,56.3 0,0.3 0,0.5 0,0.8 0,6.4 10,6.4 10,0 0,-15.4 0,-30.8 0,-46.3 0,-36.9 0,-73.7 0,-110.6 0,-44.6 0,-89.1 0,-133.7 0,-38.5 0,-77.1 0,-115.6 0,-18.7 0.7,-37.6 0,-56.3 0,-0.3 0,-0.5 0,-0.8 0,-6.4 -10,-6.4 -10,0 z"
   id="path311" />
			</g>
		</g>
		<g
   class="st2"
   id="g321">
			<g
   id="g319">
				<path
   class="st3"
   d="m 506.4,218.5 c 0,14.5 0,28.9 0,43.4 0,34.8 0,69.5 0,104.3 0,42.1 0,84.1 0,126.2 0,36.4 0,72.8 0,109.1 0,17.7 -0.7,35.5 0,53.1 0,0.3 0,0.5 0,0.8 0,6.4 10,6.4 10,0 0,-14.5 0,-28.9 0,-43.4 0,-34.8 0,-69.5 0,-104.3 0,-42.1 0,-84.1 0,-126.2 0,-36.4 0,-72.8 0,-109.1 0,-17.7 0.7,-35.5 0,-53.1 0,-0.3 0,-0.5 0,-0.8 0,-6.5 -10,-6.5 -10,0 z"
   id="path317" />
			</g>
		</g>
		<g
   class="st2"
   id="g327">
			<g
   id="g325">
				<path
   class="st3"
   d="m 564.2,233.3 c 0,15.7 0,31.5 0,47.2 0,37.8 0,75.5 0,113.3 0,45.7 0,91.4 0,137.1 0,39.5 0,79 0,118.5 0,19.1 -0.8,38.4 0,57.6 0,0.3 0,0.5 0,0.8 0,6.4 10,6.4 10,0 0,-15.7 0,-31.5 0,-47.2 0,-37.8 0,-75.5 0,-113.3 0,-45.7 0,-91.4 0,-137.1 0,-39.5 0,-79 0,-118.5 0,-19.1 0.8,-38.4 0,-57.6 0,-0.3 0,-0.5 0,-0.8 0,-6.4 -10,-6.4 -10,0 z"
   id="path323" />
			</g>
		</g>
		<g
   class="st2"
   id="g333">
			<g
   id="g331">
				<path
   class="st3"
   d="m 678.2,306.8 c 0,14.5 0,28.9 0,43.4 0,34.8 0,69.5 0,104.3 0,42.1 0,84.1 0,126.2 0,36.4 0,72.8 0,109.2 0,17.7 -0.7,35.5 0,53.2 0,0.3 0,0.5 0,0.8 0,6.4 10,6.4 10,0 0,-14.5 0,-28.9 0,-43.4 0,-34.8 0,-69.5 0,-104.3 0,-42.1 0,-84.1 0,-126.2 0,-36.4 0,-72.8 0,-109.2 0,-17.7 0.7,-35.5 0,-53.2 0,-0.3 0,-0.5 0,-0.8 0,-6.5 -10,-6.5 -10,0 z"
   id="path329" />
			</g>
		</g>
		<g
   class="st2"
   id="g339">
			<g
   id="g337">
				<path
   class="st3"
   d="m 731.2,362.8 c 0,14.4 0,28.8 0,43.2 0,34.4 0,68.7 0,103.1 0,41.5 0,83.1 0,124.6 0,35.9 0,71.9 0,107.8 0,17.5 -0.7,35.1 0,52.6 0,0.3 0,0.5 0,0.8 0,6.4 10,6.4 10,0 0,-14.4 0,-28.8 0,-43.2 0,-34.4 0,-68.7 0,-103.1 0,-41.5 0,-83.1 0,-124.6 0,-35.9 0,-71.9 0,-107.8 0,-17.5 0.7,-35.1 0,-52.6 0,-0.3 0,-0.5 0,-0.8 0,-6.5 -10,-6.5 -10,0 z"
   id="path335" />
			</g>
		</g>
		<g
   class="st2"
   id="g345">
			<g
   id="g343">
				<path
   class="st3"
   d="m 781.2,412.6 c 0,14.7 0,29.4 0,44.1 0,35.2 0,70.3 0,105.5 0,42.7 0,85.4 0,128.1 0,36.8 0,73.6 0,110.3 0,17.9 -0.8,36 0,53.9 0,0.3 0,0.5 0,0.8 0,6.4 10,6.4 10,0 0,-14.7 0,-29.4 0,-44.1 0,-35.2 0,-70.3 0,-105.5 0,-42.7 0,-85.4 0,-128.1 0,-36.8 0,-73.6 0,-110.3 0,-17.9 0.8,-36 0,-53.9 0,-0.3 0,-0.5 0,-0.8 0,-6.5 -10,-6.5 -10,0 z"
   id="path341" />
			</g>
		</g>
		<g
   class="st2"
   id="g351">
			<g
   id="g349">
				<path
   class="st3"
   d="m 506.2,236.5 c 0,15.4 0,30.8 0,46.3 0,36.9 0,73.7 0,110.6 0,44.6 0,89.1 0,133.7 0,38.5 0,77.1 0,115.6 0,18.7 -0.7,37.6 0,56.3 0,0.3 0,0.5 0,0.8 0,6.4 10,6.4 10,0 0,-15.4 0,-30.8 0,-46.3 0,-36.9 0,-73.7 0,-110.6 0,-44.6 0,-89.1 0,-133.7 0,-38.5 0,-77.1 0,-115.6 0,-18.7 0.7,-37.6 0,-56.3 0,-0.3 0,-0.5 0,-0.8 0,-6.4 -10,-6.4 -10,0 z"
   id="path347" />
			</g>
		</g>
		<g
   class="st2"
   id="g357">
			<g
   id="g355">
				<path
   class="st3"
   d="m 834.4,522.9 c 0,30.4 0,60.8 0,91.3 0,48.1 0,96.2 0,144.3 0,11.1 0,22.3 0,33.4 0,6.4 10,6.4 10,0 0,-30.4 0,-60.8 0,-91.3 0,-48.1 0,-96.2 0,-144.3 0,-11.1 0,-22.3 0,-33.4 0,-6.5 -10,-6.5 -10,0 z"
   id="path353" />
			</g>
		</g>
		<g
   class="st2"
   id="g363">
			<g
   id="g361">
				<path
   class="st3"
   d="m 621.2,263.8 c 0,15.1 0,30.1 0,45.2 0,36.2 0,72.3 0,108.5 0,43.7 0,87.5 0,131.2 0,37.8 0,75.6 0,113.4 0,18.2 -0.8,36.7 0,54.9 0,0.3 0,0.5 0,0.8 0,6.4 10,6.4 10,0 0,-15.1 0,-30.1 0,-45.2 0,-36.2 0,-72.3 0,-108.5 0,-43.7 0,-87.5 0,-131.2 0,-37.8 0,-75.6 0,-113.4 0,-18.2 0.8,-36.7 0,-54.9 0,-0.3 0,-0.5 0,-0.8 0,-6.4 -10,-6.4 -10,0 z"
   id="path359" />
			</g>
		</g>
		<g
   class="st2"
   id="g369">
			<g
   id="g367">
				<path
   class="st3"
   d="m 506.4,218.5 c 0,14.5 0,28.9 0,43.4 0,34.8 0,69.5 0,104.3 0,42.1 0,84.1 0,126.2 0,36.4 0,72.8 0,109.1 0,17.7 -0.7,35.5 0,53.1 0,0.3 0,0.5 0,0.8 0,6.4 10,6.4 10,0 0,-14.5 0,-28.9 0,-43.4 0,-34.8 0,-69.5 0,-104.3 0,-42.1 0,-84.1 0,-126.2 0,-36.4 0,-72.8 0,-109.1 0,-17.7 0.7,-35.5 0,-53.1 0,-0.3 0,-0.5 0,-0.8 0,-6.5 -10,-6.5 -10,0 z"
   id="path365" />
			</g>
		</g>
		<g
   class="st2"
   id="g375">
			<g
   id="g373">
				<path
   class="st3"
   d="m 878.2,453.9 c 0,29.9 0,59.8 0,89.6 0,47.2 0,94.4 0,141.6 0,10.9 0,21.7 0,32.6 0,6.4 10,6.4 10,0 0,-29.9 0,-59.8 0,-89.6 0,-47.2 0,-94.4 0,-141.6 0,-10.9 0,-21.7 0,-32.6 0,-6.4 -10,-6.5 -10,0 z"
   id="path371" />
			</g>
		</g>
		<g
   class="st2"
   id="g381">
			<g
   id="g379">
				<path
   class="st3"
   d="m 506.2,236.5 c 0,15.4 0,30.8 0,46.3 0,36.9 0,73.7 0,110.6 0,44.6 0,89.1 0,133.7 0,38.5 0,77.1 0,115.6 0,18.7 -0.7,37.6 0,56.3 0,0.3 0,0.5 0,0.8 0,6.4 10,6.4 10,0 0,-15.4 0,-30.8 0,-46.3 0,-36.9 0,-73.7 0,-110.6 0,-44.6 0,-89.1 0,-133.7 0,-38.5 0,-77.1 0,-115.6 0,-18.7 0.7,-37.6 0,-56.3 0,-0.3 0,-0.5 0,-0.8 0,-6.4 -10,-6.4 -10,0 z"
   id="path377" />
			</g>
		</g>
	</g>
	<g
   id="Layer_7"
   class="st0">
	</g>
	<g
   id="g431"
   style="display:none">
		<path
   class="st1"
   d="m 517.2,445.2 c 0,-20.7 0,-41.5 0,-62.2 0,0 0,-0.1 0,-0.1 l -9.8,5.4 8.6,-22.9 c 0,0 0,-0.1 0.1,-0.2 0,0 0,-0.1 0,-0.1 0,0 0,-0.1 0.1,-0.2 0,-0.1 0.1,-0.3 0.2,-0.4 0,0 0,0 0,-0.1 0.1,-0.2 0.2,-0.5 0.3,-0.8 0,0 0,0 0,-0.1 0.1,-0.3 0.3,-0.6 0.4,-1 0,0 0,0 0,0 0,-29.6 0,-59.1 0,-88.7 0,-1 0,-1.9 0,-2.9 0,-3.5 0.1,-6.9 0.1,-10.4 0.2,-13.3 0.5,-26.6 -0.1,-39.9 0,-0.3 0,-0.5 0,-0.8 0,-3.2 -2.5,-4.8 -5,-4.8 -0.1,0 -0.1,0 -0.2,0 -2.6,-0.1 -5.2,1.5 -5.2,4.8 0,14.5 0,28.9 0,43.4 0,34.8 0,69.5 0,104.3 0,24.8 0,49.5 0,74.3 l 6,6.1 z"
   id="path385" />
		<path
   class="st1"
   d="m 454.3,329.2 4.8,4.3 c 0,-13.5 0,-26.9 0,-40.4 0,-19.1 0.8,-38.4 0,-57.6 0,-0.3 0,-0.5 0,-0.8 0,-6.4 -10,-6.4 -10,0 0,15.7 0,31.5 0,47.2 0,17.4 0,34.9 0,52.3 z"
   id="path387" />
		<path
   class="st1"
   d="m 242,414 c 0,-6.4 -10,-6.4 -10,0 0,14.8 0,29.5 0,44.3 0,35.1 0,70.2 0,105.3 0,42.8 0,85.5 0,128.3 0,36.8 0,73.6 0,110.4 0,17.8 -0.7,35.9 0,53.7 0,0.3 0,0.5 0,0.8 0,6.4 10,6.4 10,0 0,-14.8 0,-29.5 0,-44.3 0,-35.1 0,-70.2 0,-105.3 0,-42.8 0,-85.5 0,-128.3 0,-36.8 0,-73.6 0,-110.4 0,-17.8 0.7,-35.9 0,-53.7 0,-0.3 0,-0.5 0,-0.8 z"
   id="path389" />
		<path
   class="st1"
   d="m 178.8,524.3 c 0,30.4 0,60.8 0,91.3 0,48.1 0,96.2 0,144.3 0,11.1 0,22.3 0,33.4 0,6.4 10,6.4 10,0 0,-30.4 0,-60.8 0,-91.3 0,-48.1 0,-96.2 0,-144.3 0,-11.1 0,-22.3 0,-33.4 0,-6.4 -10,-6.4 -10,0 z"
   id="path391" />
		<path
   class="st1"
   d="m 135,455.3 c 0,29.9 0,59.8 0,89.6 0,47.2 0,94.4 0,141.6 0,10.9 0,21.7 0,32.6 0,6.4 10,6.4 10,0 0,-29.9 0,-59.8 0,-89.6 0,-47.2 0,-94.4 0,-141.6 0,-10.9 0,-21.7 0,-32.6 0,-6.4 -10,-6.4 -10,0 z"
   id="path393" />
		<path
   class="st1"
   d="m 402,320.9 c 0,-18.2 0.8,-36.7 0,-54.9 0,-0.3 0,-0.5 0,-0.8 0,-6.4 -10,-6.4 -10,0 0,15.1 0,30.1 0,45.2 0,21.6 0,43.2 0,64.8 l 10,-10 c 0,-14.7 0,-29.5 0,-44.3 z"
   id="path395" />
		<path
   class="st1"
   d="m 567.5,327.8 c 0,0 0,0 0,0 0.9,0.1 1.7,0.1 2.5,0.2 0,0 0,0 0,0 0.8,0.1 1.7,0.2 2.5,0.3 0,0 0,0 0,0 0.8,0.1 1.7,0.2 2.5,0.4 0,0 0,0 0,0 0,-11.9 0,-23.7 0,-35.6 0,-19.1 0.8,-38.4 0,-57.6 0,-0.3 0,-0.5 0,-0.8 0,-6.4 -10,-6.4 -10,0 0,15.7 0,31.5 0,47.2 0,15.2 0,30.5 0,45.7 0.8,0.1 1.6,0.1 2.5,0.2 z"
   id="path397" />
		<path
   class="st1"
   d="m 624.4,352.7 c 0,0 0,0.1 0,0 0.8,0.8 1.6,1.6 2.3,2.4 0,0 0.1,0.1 0.1,0.1 0.6,0.7 1.2,1.4 1.8,2.1 0.1,0.2 0.3,0.4 0.4,0.5 0.6,0.8 1.2,1.5 1.8,2.3 0.4,0.6 0.8,1.1 1.2,1.7 0,-13.7 0,-27.3 0,-41 0,-18.2 0.8,-36.7 0,-54.9 0,-0.3 0,-0.5 0,-0.8 0,-6.4 -10,-6.4 -10,0 0,15.1 0,30.1 0,45.2 0,13.3 0,26.7 0,40 0.8,0.9 1.6,1.6 2.4,2.4 z"
   id="path399" />
		<path
   class="st1"
   d="m 565,445.3 c 0,0 0,0 0,0 2.8,-0.3 5.3,-0.9 7.7,-1.7 0,0 0,0 0,0 0.8,-0.3 1.5,-0.6 2.3,-0.9 0,-10.3 0,-20.7 0,-31 0,-11.4 0,-22.9 0,-34.3 -0.5,-0.5 -1,-0.9 -1.4,-1.3 0,0 0,0 0,0 -0.4,-0.4 -0.9,-0.8 -1.3,-1.2 0,0 0,0 0,0 -0.4,-0.4 -0.8,-0.7 -1.2,-1 0,0 0,0 0,0 -0.4,-0.3 -0.8,-0.6 -1.2,-0.9 0,0 0,0 -0.1,0 -0.4,-0.3 -0.8,-0.5 -1.1,-0.8 0,0 0,0 -0.1,0 -0.4,-0.2 -0.7,-0.5 -1.1,-0.7 0,0 0,0 -0.1,0 -0.4,-0.2 -0.8,-0.4 -1.1,-0.6 0,0 0,0 0,0 -0.4,-0.2 -0.8,-0.4 -1.2,-0.6 0,0 0,0 0,0 0,8.5 0,16.9 0,25.4 -0.1,16.2 -0.1,32.9 -0.1,49.6 z"
   id="path401" />
		<path
   class="st1"
   d="m 451,508.4 c 0,0 0,-0.1 0,0 0.8,-0.7 1.6,-1.5 2.4,-2.3 0,0 0,0 0,0 0.8,-0.8 1.7,-1.6 2.6,-2.5 0,0 0.1,-0.1 0.1,-0.1 0.9,-0.9 1.8,-1.7 2.8,-2.6 0,0 0,0 0,0 0,-11 0,-21.9 0,-32.9 l -10,-10.4 c 0,17.6 0,35.2 0,52.8 0.7,-0.7 1.4,-1.3 2.1,-2 z"
   id="path403" />
		<path
   class="st1"
   d="m 570.6,492.1 c -0.4,0 -0.8,-0.1 -1.2,-0.1 -0.5,-0.1 -1.1,-0.1 -1.6,-0.2 -0.6,-0.1 -1.1,-0.1 -1.7,-0.2 -0.4,-0.1 -0.8,-0.1 -1.2,-0.2 0,0 0,0 0,0 0,3.2 0,6.3 0,9.5 l 10,10.2 c 0,-6.2 0,-12.4 0,-18.7 -1.4,-0.1 -2.9,-0.2 -4.3,-0.3 z"
   id="path405" />
		<path
   class="st1"
   d="m 511.2,518.8 c -0.3,0.3 -0.6,0.7 -0.9,1.1 -0.1,0.2 -0.3,0.4 -0.5,0.6 -0.2,0.3 -0.4,0.5 -0.6,0.8 -0.1,0.1 -0.1,0.2 -0.2,0.3 -0.3,0.4 -0.7,0.8 -1,1.2 0,0 0,0 0,0 -0.4,0.5 -0.8,0.9 -1.2,1.4 0,26.3 0,52.6 0,78.8 0,17.7 -0.7,35.5 0,53.1 0,0.3 0,0.5 0,0.8 0,0.3 0,0.6 0.1,0.9 -0.2,14.2 -0.5,28.5 0.1,42.6 0,0.3 0,0.5 0,0.8 0,3.2 2.5,4.8 5,4.8 2.5,0 5,-1.6 5,-4.8 0,-14.3 0,-28.6 0,-42.8 0.1,-0.5 0.2,-1 0.2,-1.5 0,-14.5 0,-28.9 0,-43.4 0,-29.6 0,-59.2 0,-88.7 z"
   id="path407" />
		<path
   class="st1"
   d="m 742,364.2 c 0,-6.4 -10,-6.4 -10,0 0,14.4 0,28.8 0,43.2 0,34.4 0,68.7 0,103.1 0,41.5 0,83.1 0,124.6 0,35.9 0,71.9 0,107.8 0,17.5 -0.7,35.1 0,52.6 0,0.3 0,0.5 0,0.8 0,6.4 10,6.4 10,0 0,-14.4 0,-28.8 0,-43.2 0,-34.4 0,-68.7 0,-103.1 0,-41.5 0,-83.1 0,-124.6 0,-35.9 0,-71.9 0,-107.8 0,-17.5 0.7,-35.1 0,-52.6 0,-0.3 0,-0.5 0,-0.8 z"
   id="path409" />
		<path
   class="st1"
   d="m 689,308.2 c 0,-6.4 -10,-6.4 -10,0 0,14.5 0,28.9 0,43.4 0,34.8 0,69.5 0,104.3 0,42.1 0,84.1 0,126.2 0,36.4 0,72.8 0,109.2 0,17.7 -0.7,35.5 0,53.2 0,0.3 0,0.5 0,0.8 0,6.4 10,6.4 10,0 0,-14.5 0,-28.9 0,-43.4 0,-34.8 0,-69.5 0,-104.3 0,-42.1 0,-84.1 0,-126.2 0,-36.4 0,-72.8 0,-109.2 0,-17.7 0.7,-35.5 0,-53.2 0,-0.3 0,-0.5 0,-0.8 z"
   id="path411" />
		<path
   class="st1"
   d="m 629.7,470.5 c -0.1,0.2 -0.3,0.3 -0.4,0.5 -0.7,0.8 -1.4,1.6 -2.2,2.4 0,0 0,0 -0.1,0.1 -0.8,0.9 -1.7,1.7 -2.5,2.5 0,0 0,0 0,0 -0.8,0.8 -1.7,1.6 -2.6,2.3 0,24 0,48 0,72 0,37.8 0,75.6 0,113.4 0,18.2 -0.8,36.7 0,54.9 0,0.3 0,0.5 0,0.8 0,6.4 10,6.4 10,0 0,-15.1 0,-30.1 0,-45.2 0,-36.2 0,-72.3 0,-108.5 0,-32.6 0,-65.1 0,-97.7 0,0 0,0 0,0 -0.7,0.7 -1.4,1.6 -2.2,2.5 z"
   id="path413" />
		<path
   class="st1"
   d="m 792,414 c 0,-6.4 -10,-6.4 -10,0 0,14.8 0,29.5 0,44.3 0,35.1 0,70.2 0,105.3 0,42.8 0,85.5 0,128.3 0,36.8 0,73.6 0,110.4 0,17.8 -0.7,35.9 0,53.7 0,0.3 0,0.5 0,0.8 0,6.4 10,6.4 10,0 0,-14.8 0,-29.5 0,-44.3 0,-35.1 0,-70.2 0,-105.3 0,-42.8 0,-85.5 0,-128.3 0,-36.8 0,-73.6 0,-110.4 0,-17.8 0.7,-35.9 0,-53.7 0,-0.3 0,-0.5 0,-0.8 z"
   id="path415" />
		<path
   class="st1"
   d="m 835.2,524.3 c 0,30.4 0,60.8 0,91.3 0,48.1 0,96.2 0,144.3 0,11.1 0,22.3 0,33.4 0,6.4 10,6.4 10,0 0,-30.4 0,-60.8 0,-91.3 0,-48.1 0,-96.2 0,-144.3 0,-11.1 0,-22.3 0,-33.4 0,-6.4 -10,-6.4 -10,0 z"
   id="path417" />
		<path
   class="st1"
   d="m 392,454.3 c 0,32 0,63.9 0,95.9 0,37.8 0,75.6 0,113.4 0,18.2 -0.8,36.7 0,54.9 0,0.3 0,0.5 0,0.8 0,6.4 10,6.4 10,0 0,-15.1 0,-30.1 0,-45.2 0,-36.2 0,-72.3 0,-108.5 0,-33.9 0,-67.9 0,-101.8 z"
   id="path419" />
		<path
   class="st1"
   d="m 292,364.2 c 0,-6.4 -10,-6.4 -10,0 0,14.4 0,28.8 0,43.2 0,34.4 0,68.7 0,103.1 0,41.5 0,83.1 0,124.6 0,35.9 0,71.9 0,107.8 0,17.5 -0.7,35.1 0,52.6 0,0.3 0,0.5 0,0.8 0,6.4 10,6.4 10,0 0,-14.4 0,-28.8 0,-43.2 0,-34.4 0,-68.7 0,-103.1 0,-41.5 0,-83.1 0,-124.6 0,-35.9 0,-71.9 0,-107.8 0,-17.5 0.7,-35.1 0,-52.6 0,-0.3 0,-0.5 0,-0.8 z"
   id="path421" />
		<path
   class="st1"
   d="m 345,308.2 c 0,-6.4 -10,-6.4 -10,0 0,14.5 0,28.9 0,43.4 0,34.8 0,69.5 0,104.3 0,42.1 0,84.1 0,126.2 0,36.4 0,72.8 0,109.2 0,17.7 -0.7,35.5 0,53.2 0,0.3 0,0.5 0,0.8 0,6.4 10,6.4 10,0 0,-14.5 0,-28.9 0,-43.4 0,-34.8 0,-69.5 0,-104.3 0,-42.1 0,-84.1 0,-126.2 0,-36.4 0,-72.8 0,-109.2 0,-17.7 0.7,-35.5 0,-53.2 0,-0.3 0,-0.5 0,-0.8 z"
   id="path423" />
		<path
   class="st1"
   d="m 458.2,570.6 c -0.4,0 -0.9,0.1 -1.4,0.1 -1.2,0 -2.4,-0.1 -3.6,-0.3 -0.7,-0.1 -1.5,-0.2 -2.2,-0.4 0,0 -0.1,0 -0.1,0 -0.7,-0.1 -1.3,-0.3 -2,-0.4 0,27.1 0,54.2 0,81.3 0,19.1 -0.8,38.4 0,57.6 0,0.3 0,0.5 0,0.8 0,6.4 10,6.4 10,0 0,-15.7 0,-31.5 0,-47.2 0,-30.5 0,-61 0,-91.5 -0.1,0 -0.4,0 -0.7,0 z"
   id="path425" />
		<path
   class="st1"
   d="m 876.8,455.3 c 0,29.9 0,59.8 0,89.6 0,47.2 0,94.4 0,141.6 0,10.9 0,21.7 0,32.6 0,6.4 10,6.4 10,0 0,-29.9 0,-59.8 0,-89.6 0,-47.2 0,-94.4 0,-141.6 0,-10.9 0,-21.7 0,-32.6 0,-6.4 -10,-6.4 -10,0 z"
   id="path427" />
		<path
   class="st1"
   d="m 573.8,563.7 c 0,0 -0.1,0 0,0 -0.4,0.1 -0.8,0.2 -1.2,0.2 0,0 0,0 0,0 -0.4,0.1 -0.8,0.1 -1.2,0.1 0,0 0,0 -0.1,0 -0.4,0 -0.8,0.1 -1.2,0.1 0,0 -0.1,0 -0.1,0 -0.4,0 -0.8,0 -1.2,0 0,0 -0.1,0 -0.1,0 -0.4,0 -0.8,0 -1.2,0 0,0 -0.1,0 -0.1,0 -0.4,0 -0.8,0 -1.2,-0.1 0,0 0,0 0,0 -0.4,0 -0.8,-0.1 -1.2,-0.1 0,29 0,57.9 0,86.9 0,19.1 -0.8,38.4 0,57.6 0,0.3 0,0.5 0,0.8 0,6.4 10,6.4 10,0 0,-15.7 0,-31.5 0,-47.2 0,-32.9 0,-65.7 0,-98.6 0,0 0,0 0,0 -0.4,0.1 -0.8,0.2 -1.2,0.3 z"
   id="path429" />
	</g>
	<path
   class="st0"
   d="m 456.9,564.7 c -0.9,0 -1.8,-0.1 -2.8,-0.2 -13,-1.9 -19.6,-8.9 -19.6,-21 0,-12.6 7.2,-18.7 13.1,-23.7 1.4,-1.2 2.7,-2.3 3.8,-3.4 5.1,-5.1 25.9,-24.5 32.8,-31 l -49.8,-51.6 -26.9,26.9 -39.3,-37 27.1,-29.1 -7.1,-7.1 27.1,-27.1 8,7 31,-30 41.5,37 -32.1,32.1 48.2,49.1 9,-5.7 c 0.6,-0.4 4.1,-2.5 12.6,-2.5 3.7,0 6.1,0.7 8.7,1.5 3.6,1.1 8,2.5 18.3,2.5 16,0 28.4,-7.6 32.1,-19.9 4.1,-13.4 6.4,-37.5 -4.3,-49.1 -11.8,-12.8 -16.4,-17.4 -26.6,-20.1 -9.9,-2.7 -19,-0.1 -22.9,1.8 -3.9,1.9 -12.8,6.9 -12.9,6.9 l -7.1,4 2.9,-7.6 c 0.5,-1.4 13,-33.9 38.8,-33.9 26.1,0 52.4,12.2 65.4,30.2 15.5,21.5 28,56.5 12.2,84.2 -15.8,27.7 -32.3,38.5 -58.6,38.5 -22.2,0 -37.8,-8.3 -43.8,-11.5 l -2.6,1.9 49.7,50.6 c 7.1,8.1 6.3,17.6 -2.1,26.1 -3.4,3.4 -8.3,5 -13.8,4.5 -4.8,-0.4 -9.5,-2.5 -12.5,-5.5 l -43.6,-42.7 c -6.7,8.1 -27.4,33.1 -35,41.6 -7.9,8.8 -11.9,13.3 -18.9,13.3 z m -22.4,-139.5 58.2,60.4 -2.2,2.1 c -0.3,0.3 -29,27 -34.9,32.9 -1.3,1.3 -2.7,2.5 -4.2,3.7 -5.4,4.6 -11,9.3 -11,19.1 0,11.5 7.7,14.1 14.4,15 5.3,0.8 7.3,-1 16.3,-11 8.9,-9.8 36.6,-43.6 36.9,-43.9 l 2.1,-2.5 48.3,47.3 c 3.8,3.8 12.9,5.9 17.8,1 6.2,-6.2 6.8,-12.2 1.9,-17.8 l -54.4,-55.4 11.3,-8.1 1.6,0.8 c 0.4,0.2 0.9,0.5 1.6,0.8 5.5,3 20.2,10.8 41.1,10.8 24.1,0 38.6,-9.6 53.4,-35.5 15.5,-27 -0.2,-61.6 -11.8,-77.8 -12,-16.6 -36.3,-27.8 -60.6,-27.8 -14.3,0 -24.1,13 -29.2,21.9 1.8,-1 3.6,-1.9 4.9,-2.5 1.3,-0.6 12.9,-6.1 27.1,-2.2 11.9,3.2 17.3,8.7 29.4,21.9 13.4,14.5 9.6,42.3 5.7,54.9 -4.6,14.9 -19.1,24.1 -37.9,24.1 -11.3,0 -16.2,-1.5 -20.1,-2.7 -2.4,-0.7 -4.1,-1.3 -6.9,-1.3 -6.7,0 -9.4,1.5 -9.4,1.5 l -13,8.3 -55.8,-56.9 31.9,-31.9 -32.5,-29 -31,30 -8,-7 -18.9,18.9 6.9,6.9 -26.9,28.9 30.7,29 z"
   id="path433" />
	
</g>
<g
   id="Layer_8"
   transform="matrix(1.0359943,0,0,1.0359943,-18.373276,-1.8855159)"
   style="display:none">
	<g
   id="g456">
		<path
   class="st3"
   d="m 551.7,904.9 c -1.1,3.7 -2.4,7.4 -3.4,11.2 -1.3,4.9 -2.2,9.9 -3.4,14.9 -1.2,5.2 -0.2,5.8 -10,5.8 -6.4,-0.3 -6,-0.5 -7.1,-6.5 -0.3,-1.4 -0.7,-3.8 -0.9,-5.3 -1.8,-11.5 -1.9,-12.9 -3.4,-20.6 -0.7,-5.9 -1.2,-7.8 -1.6,-11.8 -0.6,-5.3 -1.5,-10.5 -2.2,-15.8 -0.7,-5.2 -1.7,-10.6 -1.8,-16.3 0,-4.3 0.5,-3.9 9.4,-4.7 5.6,-0.5 6.1,4.2 6.7,7.5 1.2,7.9 1.5,15.9 2.4,23.9 0.1,1.3 0.5,3.3 1.2,4.6 0.6,-1.1 2,-3 2.6,-4.1 5.9,-12.9 6.6,-12.4 9.9,-12.2 3.4,0.3 4.6,-0.3 7.6,5.6 1.6,3.2 1.5,3.3 2.1,4.4 0.7,1.3 3.1,4.1 4.1,5.2 1.1,-1.5 1.1,-2.3 1.3,-6.3 0.5,-7.9 0.7,-15.8 0.8,-23.7 0.1,-6.8 0.1,-6.8 6.7,-6.8 9.6,0 9.6,0 9.6,9.7 0,20.6 0,41.3 0,61.9 0,6.2 -1,6.4 -7.2,7.3 -8,1.2 -8.1,0.2 -9.2,-1.6 -2.6,-4.3 -3.4,-6 -7,-13.7 -1.3,-2.6 -2.1,-5.7 -3.4,-8.6 -0.6,-1.2 -1.4,-2.9 -2.1,-4.1 -0.7,-0.1 -1,-0.5 -1.7,0.1 z"
   id="path438" />
		<path
   class="st3"
   d="m 432.5,893.4 c -1.8,9.1 -3.8,18.2 -5.3,27.4 -1.8,7.1 -2.1,9.3 -9.7,6.9 -2.1,-0.9 -5.7,-1.7 -6.4,-3.8 -0.9,-2.6 0.7,-7.3 1.2,-10.2 1.4,-8.3 3.5,-16.5 4.6,-24.9 1.5,-11 4,-23.8 5,-34.9 1.1,-9 1.9,-8.2 12.4,-5.8 0.9,0.4 2,0.6 2.9,0.7 6.8,1.2 7,1.6 7.7,8.5 0.9,8.9 2.1,17.8 3.3,26.8 0.1,0.7 2.7,5.2 3.4,5.5 0.5,0.2 1.2,-3.2 1.4,-3.8 0.8,-3.3 1.3,-4.3 1.5,-5.6 1.6,-7.9 2.3,-13.2 3.6,-21.7 1.2,-5.6 1.4,-6.5 7.6,-5.1 0.5,0.2 0.9,0.3 1.4,0.4 2.2,0.4 6.4,0.2 6.4,1.1 0,4.6 0.1,7 -0.3,10.2 -0.4,3.7 -1.2,6.8 -1.7,10.5 -2.3,14.2 -4.4,28.5 -6.7,42.7 -0.7,4.2 -1.1,8.7 -3.1,12.3 -0.9,1.7 -5.4,1.9 -8.2,1.8 -2.7,-0.1 -5.4,-1.4 -8,-2.2 -0.7,-0.2 -1.6,-0.7 -1.9,-1.3 -1.5,-2.8 -2.1,-5.7 -2.7,-8.4 -1.9,-9.3 -4.7,-17.1 -6,-25.5 -0.1,-0.4 -0.5,-0.8 -0.7,-1.2 -0.6,-0.3 -1.1,-0.4 -1.7,-0.4 z"
   id="path440" />
		<path
   class="st3"
   d="m 354.5,877 c -2.6,-0.9 -3.3,-0.7 -8.2,-3.5 -0.4,-0.2 -1.9,-0.4 -3.8,-1 -1,-0.2 -2.2,-0.5 -4.6,-1.1 -2.7,-0.7 -4.9,0.7 -5.8,4.3 -1.5,5.8 -4.3,11.3 -6.9,16.8 -0.5,1.2 -2.4,2.7 -3.5,2.5 -3.8,-0.5 -8.4,-0.7 -10.8,-3 -1.6,-1.6 -0.5,-6.6 0.3,-9.9 0.6,-2.7 2.6,-5.1 3.8,-7.7 1,-2.2 1.8,-4.5 2.7,-6.7 0.2,-0.6 0.8,-1 1,-1.5 2.3,-7.1 4,-14.5 7.1,-21.1 2.9,-6.2 5.3,-12.4 6.6,-19.1 0.5,-2.5 3.3,-5.5 5.7,-6.3 2.5,-0.8 5.9,0.5 8.8,1.3 5.2,1.5 10.3,3.2 15.4,5 2.2,0.8 1.8,0.6 3.9,1.5 0.3,0.1 3.1,1.7 3.4,1.7 8.7,1.8 8.5,6.8 8.8,11.4 0.1,2 -0.5,3.7 -1.2,6.4 -0.4,1.6 -1.5,3.2 -1.9,4.8 -0.9,3.4 -1.1,2.5 -3,7.6 -1.4,2.1 -1.7,3.8 -2.1,5 -3.6,10.8 -4.3,12.2 -15.7,12.6 z m 0.1,-35.2 c -1.4,-0.3 -3.1,-1.1 -4.3,-1.6 -3.3,-0.7 -4.6,0 -5.8,3.7 -0.8,2.6 -2,5.4 -2.4,8.1 -0.6,4.2 3.9,5.6 6.4,6.5 2.1,0.8 5.3,2.8 7.5,-2.4 0.5,-0.5 1.7,-3.8 1.9,-4.4 1.1,-2.8 2.2,-5.2 1.9,-6.5 -0.9,-1.5 -2.9,-2.6 -5.2,-3.4 z"
   id="path442" />
		<path
   class="st3"
   d="m 666.3,854.6 c -3.9,0.8 -3.6,1.6 -6.2,-3.6 -0.8,-1.6 -2.6,-2.9 -8.2,-1.1 -2.3,0.7 -3.9,1.6 -6.2,2.1 -3.7,0.8 -4.4,5.4 -2.8,7 2.7,7.8 4,11.1 6.1,16.6 2.5,6.5 4.3,13.3 6.9,19.8 1.3,3.2 5.3,1.9 8.7,1.2 1.6,-0.3 1.5,-0.6 1.9,-0.6 5.8,-1.4 6,-3.2 5.5,-7.7 -0.1,-0.7 0.7,-1.9 1.4,-2.2 3.2,-1.3 6.5,-2.6 9.9,-3.3 1.3,-0.3 3.9,0.9 4.2,1.9 1.9,6.4 3.5,13.1 0.1,19.5 -0.9,1.7 -3.3,3 -5.4,3.7 -4.7,1.8 -9.8,2.8 -14.5,4.6 -10.5,3.2 -13.8,5.2 -21.6,0.5 -1.2,-0.7 -3.1,-3.6 -5.3,-8 -1.6,-3.9 -1.6,-3.1 -3.1,-7.8 -0.9,-2.6 -1.3,-2.8 -2,-5.4 -1.8,-7.6 -3.6,-12 -6.5,-22.4 -2.7,-10.2 -3.2,-10.9 -3.1,-21.1 0.3,-7.5 7,-8.3 12.3,-10.4 5.8,-2.3 11.6,-4.7 17.7,-6.5 2.6,-0.7 5.7,0 8.6,0.4 1,0.1 2.3,1.1 4.5,4.2 3.1,5.4 2.6,4.1 4.3,7.6 1,2.4 1.5,4 1.3,5.6 -0.7,4 -0.2,2.8 -8.5,5.4 z"
   id="path444" />
		<path
   class="st3"
   d="m 623.8,917.4 c 1.5,5.3 0.5,5.2 -5.7,7.1 -3.9,0.9 -8.1,3.3 -9.7,0.7 -2.1,-3.3 -4.2,-9.6 -4.5,-15 0.1,-0.3 0.7,-1 1,-1.1 5.9,-2.5 7.1,-2.9 13.7,-3.3 1.6,2.5 2.8,4.7 4.1,7.3 0.7,2.7 0.8,2 1.1,4.3 z"
   id="path446" />
		<path
   class="st3"
   d="m 385.6,899.1 c 7.5,1.3 7.6,0.5 7.5,7 -1.6,10.1 -2.3,11.7 -7.1,11.6 -4,-0.1 -12.2,-3.9 -11.5,-6.7 2.7,-11 2.6,-13.8 11.1,-11.9 z"
   id="path448" />
		<path
   class="st3"
   d="m 492.1,935.3 c -4.9,-0.6 -6.5,-0.7 -6.9,-2.1 -1.1,-4.2 -1.7,-9 -0.6,-13.1 1.2,-4.4 2.8,-3.6 11.1,-2.2 1.9,0.3 4.1,1.3 4.4,3.7 0.4,4.1 0.2,8.3 -0.8,12.3 -0.4,1 -0.9,1.4 -7.2,1.4 z"
   id="path450" />
		<path
   class="st3"
   d="m 722.3,874.4 c 0.6,0.8 1.7,2.8 2.4,4.4 1,2.3 2.1,4.5 2.5,7 0.6,4.2 1.8,3.8 -4.5,6.6 -2,0.9 -2.8,1 -7.5,1.6 -1.5,-0.8 -1.4,-1.4 -3.3,-5.1 -1,-2.6 -2,-6.2 -2.3,-7.1 -1.5,-4.4 -0.8,-4.3 5,-6 3.1,-1.1 6,-2.7 7.7,-1.4 z"
   id="path452" />
		<path
   class="st3"
   d="m 328.1,888.2 c -0.1,-0.1 -0.2,-0.1 -0.3,-0.2 0.1,-0.1 0.1,-0.3 0.2,-0.3 0.1,0 0.2,0.1 0.3,0.1 -0.1,0.2 -0.2,0.3 -0.2,0.4 z"
   id="path454" />
	</g>
</g>
<path
   style="fill:none;stroke:#e5321e;stroke-width:49.7919;stroke-linecap:round;stroke-linejoin:miter;stroke-miterlimit:4;stroke-dasharray:none;stroke-opacity:1"
   d="M 516.99908,332.4529 V 921.49294"
   id="path12192"
   sodipodi:nodetypes="cc" /><path
   style="fill:none;stroke:#e5321e;stroke-width:43.7416;stroke-linecap:round;stroke-linejoin:miter;stroke-miterlimit:4;stroke-dasharray:none;stroke-opacity:1"
   d="m 386.5064,418.77361 v 426.2653"
   id="path12192-7"
   sodipodi:nodetypes="cc" /><path
   style="fill:none;stroke:#e5321e;stroke-width:38.8961;stroke-linecap:round;stroke-linejoin:miter;stroke-miterlimit:4;stroke-dasharray:none;stroke-opacity:1"
   d="M 280.86024,497.85386 V 880.1715"
   id="path12192-7-5" /><path
   style="fill:none;stroke:#e5321e;stroke-width:38.8961;stroke-linecap:round;stroke-linejoin:miter;stroke-miterlimit:4;stroke-dasharray:none;stroke-opacity:1"
   d="M 186.57737,479.86054 V 814.31148"
   id="path12192-7-5-3"
   sodipodi:nodetypes="cc" /><path
   style="fill:none;stroke:#e5321e;stroke-width:38.8961;stroke-linecap:round;stroke-linejoin:miter;stroke-miterlimit:4;stroke-dasharray:none;stroke-opacity:1"
   d="M 838.74124,478.11934 V 812.5703"
   id="path12192-7-5-3-5"
   sodipodi:nodetypes="cc" /><path
   style="fill:none;stroke:#e5321e;stroke-width:38.8961;stroke-linecap:round;stroke-linejoin:miter;stroke-miterlimit:4;stroke-dasharray:none;stroke-opacity:1"
   d="M 738.56237,520.5393 V 902.85694"
   id="path12192-7-5-6" /><path
   style="fill:none;stroke:#e5321e;stroke-width:43.7416;stroke-linecap:round;stroke-linejoin:miter;stroke-miterlimit:4;stroke-dasharray:none;stroke-opacity:1"
   d="M 633.33317,409.79619 V 850.52967"
   id="path12192-7-2"
   sodipodi:nodetypes="cc" /><polygon
   class="st1"
   points="493.2,113.9 510.6,52.5 528.7,113.6 592.4,111.2 539.9,147.3 561.9,207.1 511.3,168.3 461.2,207.8 482.5,147.7 429.5,112.2 "
   id="polygon10-9"
   transform="matrix(2.3636989,0,0,2.3636989,-694.82926,-122.49813)"
   style="fill:#e5321e;stroke:none;stroke-width:6.59448;stroke-miterlimit:4;stroke-dasharray:none;stroke-opacity:1" /><path
   style="fill:#000000;fill-opacity:1;stroke:none;stroke-width:1.06058px;stroke-linecap:butt;stroke-linejoin:miter;stroke-opacity:1"
   d="m 397.59757,194.56066 48.0579,32.05955 -11.84773,29.62988 -159.17267,89.66249 z"
   id="path12314"
   sodipodi:nodetypes="ccccc" /><path
   style="fill:#000000;fill-opacity:1;stroke:none;stroke-width:1.06058px;stroke-linecap:butt;stroke-linejoin:miter;stroke-opacity:1"
   d="m 629.38968,193.61517 -48.0579,32.05955 11.84773,29.62988 159.17267,89.66249 z"
   id="path12314-7"
   sodipodi:nodetypes="ccccc" /><path
   class="st3"
   d="m 531.16565,414.47681 c 0,0 17.18725,-45.83264 51.56172,-45.83264 34.37447,0 71.61348,15.75497 90.233,41.53583 18.6195,25.78084 40.10355,75.91028 17.18723,116.01384 -22.91632,40.10355 -45.83264,52.99398 -80.2071,52.99398 -34.37448,0 -57.29079,-14.32269 -63.01987,-17.18724 l -10.02589,7.16135 74.47802,75.9103 c 10.02588,11.45815 5.72908,22.91632 -2.86453,31.50993 -8.59362,8.59362 -24.34859,5.72908 -31.50994,-1.43227 l -65.88441,-64.45213 c 0,0 -40.10355,48.69716 -52.99399,63.01987 -12.89043,14.32269 -17.18723,18.6195 -27.21312,17.18724 -10.02588,-1.43229 -24.3486,-5.72909 -24.3486,-25.78086 0,-20.05178 14.32272,-27.21313 22.91632,-35.80675 8.59363,-8.59361 50.12946,-47.2649 50.12946,-47.2649 l -77.34258,-80.2071 -38.67127,38.67129 -50.12944,-47.26492 38.67127,-41.53581 -10.02589,-10.02589 32.94221,-32.94221 11.45815,10.02589 44.40037,-42.96809 52.99399,47.26489 -45.83264,45.83264 74.47803,75.9103 15.75496,-10.02589 c 0,0 4.29682,-2.86454 15.75497,-2.86454 11.45817,0 12.89043,5.72908 38.67129,5.72908 25.78086,0 44.40036,-12.89043 50.12944,-31.50994 5.72908,-18.6195 10.02589,-55.8585 -7.16135,-74.47802 -17.18723,-18.61951 -24.34859,-25.78086 -40.10355,-30.07766 -15.75497,-4.29681 -30.07766,0 -35.80674,2.86454 -5.72909,2.86454 -18.61952,10.02589 -18.61952,10.02589 z"
   id="path435"
   style="display:inline;fill:#ffffff;stroke-width:1.43226" /></svg>
