<?xml version="1.0" encoding="UTF-8" standalone="no"?>
<svg
   xmlns:dc="http://purl.org/dc/elements/1.1/"
   xmlns:cc="http://creativecommons.org/ns#"
   xmlns:rdf="http://www.w3.org/1999/02/22-rdf-syntax-ns#"
   xmlns:svg="http://www.w3.org/2000/svg"
   xmlns="http://www.w3.org/2000/svg"
   xmlns:sodipodi="http://sodipodi.sourceforge.net/DTD/sodipodi-0.dtd"
   xmlns:inkscape="http://www.inkscape.org/namespaces/inkscape"
   version="1.1"
   x="0px"
   y="0px"
   viewBox="0 0 825.09998 919.5"
   xml:space="preserve"
   id="svg32"
   sodipodi:docname="redclosecut.svg"
   width="825.09998"
   height="919.5"
   inkscape:version="1.0.1 (3bc2e813f5, 2020-09-07)"><metadata
   id="metadata38"><rdf:RDF><cc:Work
       rdf:about=""><dc:format>image/svg+xml</dc:format><dc:type
         rdf:resource="http://purl.org/dc/dcmitype/StillImage" /><dc:title></dc:title></cc:Work></rdf:RDF></metadata><defs
   id="defs36" /><sodipodi:namedview
   pagecolor="#ffffff"
   bordercolor="#666666"
   borderopacity="1"
   objecttolerance="10"
   gridtolerance="10"
   guidetolerance="10"
   inkscape:pageopacity="0"
   inkscape:pageshadow="2"
   inkscape:window-width="791"
   inkscape:window-height="480"
   id="namedview34"
   showgrid="false"
   inkscape:zoom="0.19458008"
   inkscape:cx="82.074826"
   inkscape:cy="623.56051"
   inkscape:window-x="26"
   inkscape:window-y="23"
   inkscape:window-maximized="0"
   inkscape:current-layer="svg32" />
<style
   type="text/css"
   id="style2">
	.st0{fill:#E5321E;}
</style>
<g
   id="Layer_2"
   transform="translate(-97.9,-52.5)">
</g>
<g
   id="Layer_8"
   transform="translate(-97.9,-52.5)">
	<g
   id="g29">
		<path
   class="st0"
   d="m 392,265.3 c 0,15.1 0,30.1 0,45.2 0,21.6 0,43.2 0,64.8 l 10,-10 c 0,-14.8 0,-29.5 0,-44.3 0,-18.2 0.8,-36.7 0,-54.9 0,-0.3 0,-0.5 0,-0.8 0,-6.5 -10,-6.5 -10,0 z"
   id="path5" />
		<path
   class="st0"
   d="m 449,234.7 c 0,15.7 0,31.5 0,47.2 0,17.4 0,34.9 0,52.3 l 5.2,-5.1 4.8,4.3 c 0,-13.5 0,-26.9 0,-40.4 0,-19.1 0.8,-38.4 0,-57.6 0,-0.3 0,-0.5 0,-0.8 0,-6.3 -10,-6.3 -10,0.1 z"
   id="path7" />
		<path
   class="st0"
   d="m 453.4,506.1 c 0,0 0,0 0,0 0.9,-0.8 1.7,-1.6 2.6,-2.5 0,0 0.1,-0.1 0.1,-0.1 0.9,-0.9 1.8,-1.7 2.8,-2.6 0,0 0,0 0,0 0,-11 0,-21.9 0,-32.9 l -10,-10.4 c 0,17.6 0,35.2 0,52.8 0.6,-0.6 1.3,-1.2 2,-1.9 0,0 0,0 0,0 0.9,-0.9 1.7,-1.6 2.5,-2.4 z"
   id="path9" />
		<path
   class="st0"
   d="m 512.2,215.1 c -0.1,0 -0.1,0 -0.2,0 -2.6,-0.1 -5.2,1.5 -5.2,4.8 0,14.5 0,28.9 0,43.4 0,34.8 0,69.5 0,104.3 0,24.8 0,49.5 0,74.3 l 6,6.1 4.4,-2.8 c 0,-20.7 0,-41.5 0,-62.2 0,0 0,-0.1 0,-0.1 l -9.8,5.4 8.6,-22.9 c 0,0 0,-0.1 0.1,-0.2 0,0 0,-0.1 0,-0.1 0,0 0,-0.1 0.1,-0.2 0,-0.1 0.1,-0.3 0.2,-0.4 0,0 0,0 0,-0.1 0.1,-0.2 0.2,-0.5 0.3,-0.8 0,0 0,0 0,-0.1 0.1,-0.3 0.3,-0.6 0.4,-1 0,0 0,0 0,0 0,-29.6 0,-59.1 0,-88.7 0,-1 0,-1.9 0,-2.9 0,-3.5 0.1,-6.9 0.1,-10.4 0.2,-13.3 0.5,-26.6 -0.1,-39.9 0,-0.3 0,-0.5 0,-0.8 0.1,-3.1 -2.4,-4.7 -4.9,-4.7 z"
   id="path11" />
		<polygon
   class="st0"
   points="561.9,207.1 539.9,147.3 592.4,111.2 528.7,113.6 510.6,52.5 493.2,113.9 429.5,112.2 482.5,147.7 461.2,207.8 511.3,168.3 "
   id="polygon13" />
		<path
   class="st0"
   d="m 524.5,368.5 c 0,0 9,-5 13,-7 4,-2 14,-5 25,-2 11,3 16,8 28,21 12,13 9,39 5,52 -4,13 -17,22 -35,22 -18,0 -19,-4 -27,-4 -8,0 -11,2 -11,2 l -11,7 -52,-53 32,-32 -37,-33 -31,30 -8,-7 -23,23 7,7 -27,29 35,33 27,-27 54,56 c 0,0 -29,27 -35,33 -6,6 -16,11 -16,25 0,14 10,17 17,18 7,1 10,-2 19,-12 9,-10 37,-44 37,-44 l 46,45 c 5,5 16,7 22,1 6,-6 9,-14 2,-22 l -52,-53 7,-5 c 4,2 20,12 44,12 24,0 40,-9 56,-37 16,-28 1,-63 -12,-81 -13,-18 -39,-29 -63,-29 -24,0 -36,32 -36,32 z"
   id="path15" />
		<path
   class="st0"
   d="m 572.7,443.5 c 0.8,-0.3 1.5,-0.6 2.3,-0.9 0,-10.3 0,-20.7 0,-31 0,-11.4 0,-22.9 0,-34.3 -0.5,-0.5 -1,-0.9 -1.4,-1.3 0,0 0,0 0,0 -0.4,-0.4 -0.9,-0.8 -1.3,-1.2 0,0 0,0 0,0 -0.4,-0.4 -0.8,-0.7 -1.2,-1 0,0 0,0 0,0 -0.4,-0.3 -0.8,-0.6 -1.2,-0.9 0,0 0,0 -0.1,0 -0.4,-0.3 -0.8,-0.5 -1.1,-0.8 0,0 0,0 -0.1,0 -0.4,-0.2 -0.7,-0.5 -1.1,-0.7 0,0 0,0 -0.1,0 -0.4,-0.2 -0.8,-0.4 -1.1,-0.6 0,0 0,0 0,0 -0.4,-0.2 -0.8,-0.4 -1.2,-0.6 0,0 0,0 0,0 0,8.5 0,16.9 0,25.4 0,16.7 0,33.3 0,50 0,0 0,0 0,0 2.6,-0.6 5.2,-1.2 7.6,-2.1 0,0 0,0 0,0 z"
   id="path17" />
		<path
   class="st0"
   d="m 622,265.3 c 0,15.1 0,30.1 0,45.2 0,13.3 0,26.7 0,40 0.8,0.7 1.6,1.5 2.4,2.3 0,0 0,0 0.1,0.1 0.8,0.8 1.5,1.6 2.2,2.4 0,0 0.1,0.1 0.1,0.1 0.6,0.7 1.2,1.4 1.8,2.1 0.1,0.2 0.3,0.4 0.4,0.5 0.6,0.8 1.2,1.5 1.8,2.3 0.4,0.6 0.8,1.1 1.2,1.7 0,-13.7 0,-27.3 0,-41 0,-18.2 0.8,-36.7 0,-54.9 0,-0.3 0,-0.5 0,-0.8 0,-6.5 -10,-6.5 -10,0 z"
   id="path19" />
		<path
   class="st0"
   d="m 567.8,491.8 c -0.6,-0.1 -1.1,-0.1 -1.7,-0.2 -0.4,-0.1 -0.8,-0.1 -1.2,-0.2 0,0 0,0 0,0 0,3.2 0,6.3 0,9.5 l 10,10.2 c 0,-6.2 0,-12.4 0,-18.7 -1.5,-0.1 -2.9,-0.2 -4.4,-0.3 -0.4,0 -0.8,-0.1 -1.2,-0.1 -0.4,-0.1 -0.9,-0.2 -1.5,-0.2 z"
   id="path21" />
		<path
   class="st0"
   d="m 565,234.7 c 0,15.7 0,31.5 0,47.2 0,15.2 0,30.5 0,45.7 0.8,0 1.7,0.1 2.5,0.2 0,0 0,0 0,0 0.8,0.1 1.6,0.1 2.5,0.2 0,0 0,0 0,0 0.8,0.1 1.7,0.2 2.5,0.3 0,0 0,0 0,0 0.8,0.1 1.7,0.2 2.5,0.4 0,0 0,0 0,0 0,-11.9 0,-23.7 0,-35.6 0,-19.1 0.8,-38.4 0,-57.6 0,-0.3 0,-0.5 0,-0.8 0,-6.4 -10,-6.4 -10,0 z"
   id="path23" />
		<path
   class="st0"
   d="m 354.6,841.8 c -1.4,-0.3 -3.1,-1.1 -4.3,-1.6 -3.3,-0.7 -4.6,0 -5.8,3.7 -0.8,2.6 -2,5.4 -2.4,8.1 -0.6,4.2 3.9,5.6 6.4,6.5 2.1,0.8 5.3,2.8 7.5,-2.4 0.5,-0.5 1.7,-3.8 1.9,-4.4 1.1,-2.8 2.2,-5.2 1.9,-6.5 -0.9,-1.5 -2.9,-2.6 -5.2,-3.4 z"
   id="path25" />
		<path
   class="st0"
   d="M 915.1,479.2 C 909.8,452.7 902,426.7 891.6,401.8 870.9,351.9 840.3,306.2 802,268 763.8,229.8 718,199.2 668.1,178.6 c -25,-10.3 -50.9,-18.2 -77.4,-23.4 -9.3,-1.8 -18.6,-3.3 -28,-4.5 l 22.9,19.4 c 0.7,0.1 1.4,0.3 2.1,0.4 25.5,5.1 50.5,12.6 74.5,22.6 48,19.9 92,49.4 128.7,86.1 36.7,36.8 66.2,80.8 86,128.8 9.9,24 17.5,49 22.5,74.4 5,25.5 7.6,51.4 7.6,77.4 -0.2,6.5 -0.2,13 -0.1,19.5 -0.2,6.5 -0.5,13 -0.9,19.5 -0.1,1.6 -0.3,3.2 -0.5,4.9 l -0.6,4.8 -1.2,9.7 c -0.1,0.8 -0.2,1.6 -0.3,2.4 l -0.4,2.4 -0.9,4.8 -1.7,9.6 c -3.4,17.2 -8,34.1 -13.6,50.7 0,-19.5 0,-39 0,-58.5 0,-47.2 0,-94.4 0,-141.6 0,-10.9 0,-21.7 0,-32.6 0,-6.4 -10,-6.4 -10,0 0,29.9 0,59.8 0,89.6 0,47.2 0,94.4 0,141.6 0,9.2 0,18.4 0,27.6 -8.8,20.8 -19.4,40.9 -31.6,59.9 0,-24 0,-48 0,-72 0,-48.1 0,-96.2 0,-144.3 0,-11.1 0,-22.3 0,-33.4 0,-6.4 -10,-6.4 -10,0 0,30.4 0,60.8 0,91.3 0,48.1 0,96.2 0,144.3 0,9.7 0,19.4 0,29.1 -12.9,18.3 -27.4,35.5 -43.2,51.4 0,-9.3 0,-18.6 0,-28 0,-35.1 0,-70.2 0,-105.3 0,-42.8 0,-85.5 0,-128.3 0,-36.8 0,-73.6 0,-110.4 0,-17.8 0.7,-35.9 0,-53.7 0,-0.3 0,-0.5 0,-0.8 0,-6.4 -10,-6.4 -10,0 0,14.8 0,29.5 0,44.3 0,35.1 0,70.2 0,105.3 0,42.8 0,85.5 0,128.3 0,36.8 0,73.6 0,110.4 0,11.3 -0.3,22.7 -0.3,34.1 -8.4,-27.1 -21.9,-52.2 -39.7,-74.6 0,-2.9 0,-5.7 0,-8.6 0,-34.4 0,-68.7 0,-103.1 0,-41.5 0,-83.1 0,-124.6 0,-35.9 0,-71.9 0,-107.8 0,-17.5 0.7,-35.1 0,-52.6 0,-0.3 0,-0.5 0,-0.8 0,-6.4 -10,-6.4 -10,0 0,14.4 0,28.8 0,43.2 0,34.4 0,68.7 0,103.1 0,41.5 0,83.1 0,124.6 0,35.9 0,71.9 0,107.8 0,2.3 0,4.6 0,6.9 -12.7,-14.1 -27.1,-26.9 -43,-38.2 0,-3.3 0,-6.6 0,-9.8 0,-34.8 0,-69.5 0,-104.3 0,-42.1 0,-84.1 0,-126.2 0,-36.4 0,-72.8 0,-109.2 0,-17.7 0.7,-35.5 0,-53.2 0,-0.3 0,-0.5 0,-0.8 0,-6.4 -10,-6.4 -10,0 0,14.5 0,28.9 0,43.4 0,34.8 0,69.5 0,104.3 0,42.1 0,84.1 0,126.2 0,36.4 0,72.8 0,109.2 0,4.5 0,9 -0.1,13.5 -14.6,-9.4 -30.3,-17.7 -46.9,-24.5 0,-2.1 0,-4.2 0,-6.3 0,-36.2 0,-72.3 0,-108.5 0,-32.6 0,-65.1 0,-97.7 0,0 0,0 0,0 -0.7,0.9 -1.5,1.8 -2.2,2.6 -0.1,0.2 -0.3,0.3 -0.4,0.5 -0.7,0.8 -1.4,1.6 -2.2,2.4 0,0 0,0 -0.1,0.1 -0.8,0.9 -1.7,1.7 -2.5,2.5 0,0 0,0 0,0 -0.8,0.8 -1.7,1.6 -2.6,2.3 0,24 0,48 0,72 0,37.8 0,75.6 0,113.4 0,4.3 0,8.6 -0.1,12.8 -15,-5.5 -30.7,-9.9 -46.9,-13 0,-0.4 0,-0.9 0,-1.3 0,-32.9 0,-65.7 0,-98.6 0,0 0,0 0,0 -0.4,0.1 -0.8,0.2 -1.2,0.3 0,0 0,0 0,0 -0.4,0.1 -0.8,0.2 -1.2,0.2 0,0 0,0 0,0 -0.4,0.1 -0.8,0.1 -1.2,0.1 0,0 0,0 -0.1,0 -0.4,0 -0.8,0.1 -1.2,0.1 0,0 -0.1,0 -0.1,0 -0.4,0 -0.8,0 -1.2,0 0,0 -0.1,0 -0.1,0 -0.4,0 -0.8,0 -1.2,0 0,0 -0.1,0 -0.1,0 -0.4,0 -0.8,0 -1.2,-0.1 0,0 0,0 0,0 -0.4,0 -0.8,-0.1 -1.2,-0.1 0,29 0,57.9 0,86.9 0,3.6 0,7.1 -0.1,10.7 -15.5,-2.5 -31.4,-3.8 -47.7,-3.9 0,-0.3 0.1,-0.5 0.1,-0.8 0,-14.5 0,-28.9 0,-43.4 0,-29.6 0,-59.2 0,-88.7 l -6,-5.9 c -0.3,0.3 -0.6,0.7 -0.9,1.1 -0.1,0.2 -0.3,0.4 -0.5,0.6 -0.2,0.3 -0.4,0.5 -0.6,0.8 -0.1,0.1 -0.1,0.2 -0.2,0.3 -0.3,0.4 -0.7,0.8 -1,1.2 0,0 0,0 0,0 -0.4,0.5 -0.8,0.9 -1.2,1.4 0,26.3 0,52.6 0,78.8 0,17.7 -0.7,35.5 0,53.1 0,0.3 0,0.5 0,0.8 0,0.3 0,0.6 0.1,0.9 0,0 0,0 0,0 -16.3,0.4 -32.3,2.1 -47.9,4.9 0,-0.2 0,-0.4 0,-0.6 0,-30.5 0,-61 0,-91.5 -0.3,0 -0.5,0 -0.8,0.1 -0.4,0 -0.9,0.1 -1.4,0.1 -1.2,0 -2.4,-0.1 -3.6,-0.3 -0.7,-0.1 -1.5,-0.2 -2.2,-0.4 0,0 -0.1,0 -0.1,0 -0.7,-0.1 -1.3,-0.3 -2,-0.4 0,27.1 0,54.2 0,81.3 0,4.6 0,9.2 -0.1,13.8 -16.2,3.5 -31.9,8.3 -46.9,14.2 0,-1.6 0,-3.2 0,-4.9 0,-36.2 0,-72.3 0,-108.5 0,-33.9 0,-67.9 0,-101.8 l -10,-9.4 c 0,32 0,63.9 0,95.9 0,37.8 0,75.6 0,113.4 0,6.5 -0.1,13.1 -0.2,19.6 -16.6,7.3 -32.3,16 -46.8,26 0,-2.5 0,-4.9 0,-7.4 0,-34.8 0,-69.5 0,-104.3 0,-42.1 0,-84.1 0,-126.2 0,-36.4 0,-72.8 0,-109.2 0,-17.7 0.7,-35.5 0,-53.2 0,-0.3 0,-0.5 0,-0.8 0,-6.4 -10,-6.4 -10,0 0,14.5 0,28.9 0,43.4 0,34.8 0,69.5 0,104.3 0,42.1 0,84.1 0,126.2 0,36.4 0,72.8 0,109.2 0,8.4 -0.2,16.9 -0.3,25.3 -15.9,12.1 -30.3,25.8 -42.7,40.8 0,-1.4 0,-2.9 0,-4.3 0,-34.4 0,-68.7 0,-103.1 0,-41.5 0,-83.1 0,-124.6 0,-35.9 0,-71.9 0,-107.8 0,-17.5 0.7,-35.1 0,-52.6 0,-0.3 0,-0.5 0,-0.8 0,-6.4 -10,-6.4 -10,0 0,14.4 0,28.8 0,43.2 0,34.4 0,68.7 0,103.1 0,41.5 0,83.1 0,124.6 0,35.9 0,71.9 0,107.8 0,9.2 -0.2,18.5 -0.3,27.8 -18.2,25.3 -31.2,53.7 -37.7,84.1 -0.7,-0.6 -1.3,-1.2 -2,-1.8 0,-13.5 0,-27 0,-40.6 0,-35.1 0,-70.2 0,-105.3 0,-42.8 0,-85.5 0,-128.3 0,-36.8 0,-73.6 0,-110.4 0,-17.8 0.7,-35.9 0,-53.7 0,-0.3 0,-0.5 0,-0.8 0,-6.4 -10,-6.4 -10,0 0,14.8 0,29.5 0,44.3 0,35.1 0,70.2 0,105.3 0,42.8 0,85.5 0,128.3 0,36.8 0,73.6 0,110.4 0,13.6 -0.4,27.3 -0.3,41 -0.8,-0.8 -1.7,-1.6 -2.5,-2.4 -14.7,-14.7 -28.2,-30.6 -40.4,-47.4 0,0 0,0 0,0 0,-30.4 0,-60.8 0,-91.3 0,-48.1 0,-96.2 0,-144.3 0,-11.1 0,-22.3 0,-33.4 0,-6.4 -10,-6.4 -10,0 0,30.4 0,60.8 0,91.3 0,48.1 0,96.2 0,144.3 0,6.3 0,12.7 0,19 -13.1,-19.8 -24.4,-40.8 -33.8,-62.6 0,-28.9 0,-57.8 0,-86.7 0,-47.2 0,-94.4 0,-141.6 0,-10.9 0,-21.7 0,-32.6 0,-6.4 -10,-6.4 -10,0 0,29.9 0,59.8 0,89.6 0,47.2 0,94.4 0,141.6 0,1.3 0,2.7 0,4 -6.1,-17.4 -10.9,-35.2 -14.5,-53.3 -5,-25.5 -7.6,-51.5 -7.6,-77.5 0,-26 2.6,-52 7.6,-77.5 5.1,-25.5 12.6,-50.5 22.6,-74.5 19.9,-48 49.4,-92 86.2,-128.8 36.8,-36.8 80.8,-66.2 128.9,-86.1 23,-9.5 47,-16.9 71.4,-21.9 l 25.7,-20 c -8.6,1.1 -17.1,2.6 -25.6,4.2 -26.5,5.3 -52.4,13.1 -77.4,23.5 -49.9,20.7 -95.6,51.3 -133.7,89.5 -38.2,38.2 -68.7,83.9 -89.4,133.8 -10.3,24.9 -18.2,50.9 -23.4,77.4 -5.2,26.5 -7.8,53.5 -7.9,80.4 0,27 2.7,54 7.9,80.4 5.3,26.5 13.1,52.4 23.5,77.3 20.7,49.9 51.3,95.5 89.4,133.7 38.2,38.1 83.9,68.7 133.7,89.3 24.9,10.3 50.9,18.2 77.3,23.4 26.5,5.2 53.4,7.8 80.4,7.9 27,0 53.9,-2.7 80.4,-7.9 26.5,-5.2 52.4,-13.1 77.3,-23.5 49.8,-20.6 95.5,-51.3 133.6,-89.4 38.1,-38.1 68.7,-83.8 89.3,-133.6 10.3,-24.9 18.2,-50.8 23.4,-77.3 l 1.8,-10 0.9,-5 0.4,-2.5 c 0.1,-0.8 0.2,-1.7 0.3,-2.5 l 1.3,-10 0.6,-5 c 0.2,-1.7 0.5,-3.3 0.6,-5 0.6,-6.7 1.4,-13.4 2.1,-20.1 0.4,-6.7 0.7,-13.5 0.9,-20.2 0,-27.3 -2.7,-54.3 -7.9,-80.8 z m -587,409 c -0.1,-0.1 -0.2,-0.1 -0.3,-0.2 0.1,-0.1 0.1,-0.3 0.2,-0.3 0.1,0 0.2,0.1 0.3,0.1 -0.1,0.2 -0.2,0.3 -0.2,0.4 z m 42.1,-23.8 c -3.6,10.8 -4.3,12.3 -15.7,12.6 -2.6,-0.9 -3.3,-0.7 -8.2,-3.5 -0.4,-0.2 -1.9,-0.4 -3.8,-1 -1,-0.2 -2.2,-0.5 -4.6,-1.1 -2.7,-0.7 -4.9,0.7 -5.8,4.3 -1.5,5.8 -4.3,11.3 -6.9,16.8 -0.5,1.2 -2.4,2.7 -3.5,2.5 -3.8,-0.5 -8.4,-0.7 -10.8,-3 -1.6,-1.6 -0.5,-6.6 0.3,-9.9 0.6,-2.7 2.6,-5.1 3.8,-7.7 1,-2.2 1.8,-4.5 2.7,-6.7 0.2,-0.6 0.8,-1 1,-1.5 2.3,-7.1 4,-14.5 7.1,-21.1 2.9,-6.2 5.3,-12.4 6.6,-19.1 0.5,-2.5 3.3,-5.5 5.7,-6.3 2.5,-0.8 5.9,0.5 8.8,1.3 5.2,1.5 10.3,3.2 15.4,5 2.2,0.8 1.8,0.6 3.9,1.5 0.3,0.1 3.1,1.7 3.4,1.7 8.7,1.8 8.5,6.8 8.8,11.4 0.1,2 -0.5,3.7 -1.2,6.4 -0.4,1.6 -1.5,3.2 -1.9,4.8 -0.9,3.4 -1.1,2.5 -3,7.6 -1.3,2 -1.7,3.7 -2.1,5 z m 22.9,41.7 c -1.6,10.1 -2.3,11.7 -7.1,11.6 -4,-0.1 -12.2,-3.9 -11.5,-6.7 2.6,-11 2.5,-13.7 11.1,-11.9 7.6,1.3 7.7,0.5 7.5,7 z M 473.2,865 c -0.4,3.7 -1.2,6.8 -1.7,10.5 -2.3,14.2 -4.4,28.5 -6.7,42.7 -0.7,4.2 -1.1,8.7 -3.1,12.3 -0.9,1.7 -5.4,1.9 -8.2,1.8 -2.7,-0.1 -5.4,-1.4 -8,-2.2 -0.7,-0.2 -1.6,-0.7 -1.9,-1.3 -1.5,-2.8 -2.1,-5.7 -2.7,-8.4 -1.9,-9.3 -4.7,-17.1 -6,-25.5 -0.1,-0.4 -0.5,-0.8 -0.7,-1.2 -0.5,-0.1 -1,-0.1 -1.6,-0.2 -1.8,9.1 -3.8,18.2 -5.3,27.4 -1.8,7.1 -2.1,9.3 -9.7,6.9 -2.1,-0.9 -5.7,-1.7 -6.4,-3.8 -0.9,-2.6 0.7,-7.3 1.2,-10.2 1.4,-8.3 3.5,-16.5 4.6,-24.9 1.5,-11 4,-23.8 5,-34.9 1.1,-9 1.9,-8.2 12.4,-5.8 0.9,0.4 2,0.6 2.9,0.7 6.8,1.2 7,1.6 7.7,8.5 0.9,8.9 2.1,17.8 3.3,26.8 0.1,0.7 2.7,5.2 3.4,5.5 0.5,0.2 1.2,-3.2 1.4,-3.8 0.8,-3.3 1.3,-4.3 1.5,-5.6 1.6,-7.9 2.3,-13.2 3.6,-21.7 1.2,-5.6 1.4,-6.5 7.6,-5.1 0.5,0.2 0.9,0.3 1.4,0.4 2.2,0.4 6.4,0.2 6.4,1.1 -0.1,4.4 0,6.7 -0.4,10 z m 26,68.8 c -0.3,1.1 -0.8,1.5 -7.1,1.5 -4.9,-0.6 -6.5,-0.7 -6.9,-2.1 -1.1,-4.2 -1.7,-9 -0.6,-13.1 1.2,-4.4 2.8,-3.6 11.1,-2.2 1.9,0.3 4.1,1.3 4.4,3.7 0.3,4 0.2,8.3 -0.9,12.2 z m 82.9,-8.3 c 0,6.2 -1,6.4 -7.2,7.3 -8,1.2 -8.1,0.2 -9.2,-1.6 -2.6,-4.3 -3.4,-6 -7,-13.7 -1.3,-2.6 -2.1,-5.7 -3.4,-8.6 -0.6,-1.2 -1.4,-2.9 -2.1,-4.1 -0.5,-0.2 -0.8,-0.5 -1.5,0.1 -1.1,3.7 -2.4,7.4 -3.4,11.2 -1.3,4.9 -2.2,9.9 -3.4,14.9 -1.2,5.2 -0.2,5.8 -10,5.8 -6.4,-0.3 -6,-0.5 -7.1,-6.5 -0.3,-1.4 -0.7,-3.8 -0.9,-5.3 -1.8,-11.5 -1.9,-12.9 -3.4,-20.6 -0.7,-5.9 -1.2,-7.8 -1.6,-11.8 -0.6,-5.3 -1.5,-10.5 -2.2,-15.8 -0.7,-5.2 -1.7,-10.6 -1.8,-16.3 0,-4.3 0.5,-3.9 9.4,-4.7 5.6,-0.5 6.1,4.2 6.7,7.5 1.2,7.9 1.5,15.9 2.4,23.9 0.1,1.3 0.5,3.3 1.2,4.6 0.6,-1.1 2,-3 2.6,-4.1 5.9,-12.9 6.6,-12.4 9.9,-12.2 3.4,0.3 4.6,-0.3 7.6,5.6 1.6,3.2 1.5,3.3 2.1,4.4 0.7,1.3 3.1,4.1 4.1,5.2 1.1,-1.5 1.1,-2.3 1.3,-6.3 0.5,-7.9 0.7,-15.8 0.8,-23.7 0.1,-6.8 0.1,-6.8 6.7,-6.8 9.6,0 9.6,0 9.6,9.7 -0.2,20.6 -0.2,41.2 -0.2,61.9 z m 36.1,-1 c -3.9,0.9 -8.1,3.3 -9.7,0.7 -2.1,-3.3 -4.2,-9.6 -4.5,-15 0.1,-0.3 0.7,-1 1,-1.1 5.9,-2.5 7.1,-2.9 13.7,-3.3 1.6,2.5 2.8,4.7 4.1,7.3 0.6,2.6 0.6,1.9 1,4.2 1.6,5.4 0.5,5.3 -5.6,7.2 z m 69.5,-20.3 c -0.9,1.7 -3.3,3 -5.4,3.7 -4.7,1.8 -9.8,2.8 -14.5,4.6 -10.5,3.2 -13.8,5.2 -21.6,0.5 -1.2,-0.7 -3.1,-3.6 -5.3,-8 -1.6,-3.9 -1.6,-3.1 -3.1,-7.8 -0.9,-2.6 -1.3,-2.8 -2,-5.4 -1.8,-7.6 -3.6,-12 -6.5,-22.4 -2.7,-10.2 -3.2,-10.9 -3.1,-21.1 0.3,-7.5 7,-8.3 12.3,-10.4 5.8,-2.3 11.6,-4.7 17.7,-6.5 2.6,-0.7 5.7,0 8.6,0.4 1,0.1 2.3,1.1 4.5,4.2 3.1,5.4 2.6,4.1 4.3,7.6 1,2.4 1.5,4 1.3,5.6 -0.8,3.9 -0.3,2.7 -8.6,5.3 -3.9,0.8 -3.6,1.6 -6.2,-3.6 -0.8,-1.6 -2.6,-2.9 -8.2,-1.1 -2.3,0.7 -3.9,1.6 -6.2,2.1 -3.7,0.8 -4.4,5.4 -2.8,7 2.7,7.8 4,11.1 6.1,16.6 2.5,6.5 4.3,13.3 6.9,19.8 1.3,3.2 5.3,1.9 8.7,1.2 1.6,-0.3 1.5,-0.6 1.9,-0.6 5.8,-1.4 6,-3.2 5.5,-7.7 -0.1,-0.7 0.7,-1.9 1.4,-2.2 3.2,-1.3 6.5,-2.6 9.9,-3.3 1.3,-0.3 3.9,0.9 4.2,1.9 2,6.5 3.6,13.2 0.2,19.6 z m 34.9,-11.8 c -2,0.9 -2.8,1 -7.5,1.6 -1.5,-0.8 -1.4,-1.4 -3.3,-5.1 -1,-2.6 -2,-6.2 -2.3,-7.1 -1.5,-4.4 -0.8,-4.3 5,-6 3.2,-1.1 6.1,-2.7 7.8,-1.4 0.6,0.8 1.7,2.8 2.4,4.4 1,2.3 2.1,4.5 2.5,7 0.5,4.2 1.7,3.8 -4.6,6.6 z"
   id="path27" />
	</g>
</g>
</svg>
